<svg width="418" height="240" viewBox="0 0 418 240" fill="none" xmlns="http://www.w3.org/2000/svg">
<g clip-path="url(#clip0_4140_7712)">
<path d="M106.385 16.2382V4.60149L99.7413 2.75195V14.5428" stroke="#005EB8" stroke-linecap="round" stroke-linejoin="round"/>
<path d="M99.7413 83.4277V189.815L106.385 192.066V84.6938" stroke="#005EB8" stroke-linecap="round" stroke-linejoin="round"/>
<path d="M114.967 17.912V1.84961L106.385 4.40374V16.079" stroke="#005EB8" stroke-linecap="round" stroke-linejoin="round"/>
<path d="M106.385 84.5449V192.066L114.967 188.807V86.7963" stroke="#005EB8" stroke-linecap="round" stroke-linejoin="round"/>
<path d="M107.216 0.275391L114.967 1.8497L106.385 4.40383L99.7413 2.75245L107.216 0.275391Z" stroke="#005EB8" stroke-linecap="round" stroke-linejoin="round"/>
<path d="M70.6743 9.63281V76.2383L99.7413 83.009L106.385 84.5557L114.967 86.5539L132.13 90.5502V24.7429L70.6743 9.63281Z" stroke="#005EB8" stroke-linecap="round" stroke-linejoin="round"/>
<path d="M136.006 89.4496V23.3945L132.13 24.7432V90.5505L136.006 89.4496Z" stroke="#005EB8" stroke-linecap="round" stroke-linejoin="round"/>
<path d="M70.6743 9.63412L75.1036 8.5332L114.967 18.2598L136.006 23.3956L132.13 24.7442L70.6743 9.63412Z" stroke="#005EB8" stroke-linecap="round" stroke-linejoin="round"/>
<path d="M126.04 50.6429C123.814 38.0264 111.717 27.7988 99.0271 27.7988C86.3373 27.7988 77.8552 38.0264 80.0865 50.6429C82.3122 63.2594 94.4096 73.4869 107.099 73.4869C119.789 73.4869 128.271 63.2594 126.04 50.6429ZM106.031 67.4429C96.7017 67.4429 87.8045 59.9236 86.1656 50.6429C85.3075 45.7988 86.603 41.4337 89.3658 38.3676L111.866 66.3364C110.117 67.052 108.157 67.4429 106.025 67.4429H106.031ZM116.262 63.441L93.7507 35.164C95.6221 34.3108 97.7647 33.8429 100.096 33.8429C109.425 33.8429 118.322 41.3621 119.961 50.6429C120.869 55.7731 119.363 60.3585 116.262 63.441Z" stroke="#005EB8" stroke-linecap="round" stroke-linejoin="round"/>
<path d="M232.558 173.941L232.497 163.213" stroke="#005EB8" stroke-linecap="round" stroke-linejoin="round"/>
<path d="M241.201 198.117V224.963L258.364 220.46V226.714L210.75 239.726V232.571L232.896 226.515L232.735 196.24" stroke="#005EB8" stroke-linecap="round" stroke-linejoin="round"/>
<path d="M241.201 165.09V175.598" stroke="#005EB8" stroke-linecap="round" stroke-linejoin="round"/>
<path d="M210.75 239.726L203.552 238.075V230.748L210.75 232.57V239.726Z" stroke="#005EB8" stroke-linecap="round" stroke-linejoin="round"/>
<path d="M225.698 225.414L203.552 230.748" stroke="#005EB8" stroke-linecap="round" stroke-linejoin="round"/>
<path d="M258.364 220.46L250.613 219.359L241.201 221.561" stroke="#005EB8" stroke-linecap="round" stroke-linejoin="round"/>
<path d="M225.394 172.174V161.451" stroke="#005EB8" stroke-linecap="round" stroke-linejoin="round"/>
<path d="M225.394 225.05V194.588" stroke="#005EB8" stroke-linecap="round" stroke-linejoin="round"/>
<path d="M143.419 153.574L143.358 142.846" stroke="#005EB8" stroke-linecap="round" stroke-linejoin="round"/>
<path d="M152.062 177.75V204.596L169.225 200.093V206.346L121.611 219.359V212.203L143.757 206.148L143.596 175.873" stroke="#005EB8" stroke-linecap="round" stroke-linejoin="round"/>
<path d="M152.062 144.723V155.231" stroke="#005EB8" stroke-linecap="round" stroke-linejoin="round"/>
<path d="M121.611 219.359L114.413 217.707V210.381L121.611 212.203V219.359Z" stroke="#005EB8" stroke-linecap="round" stroke-linejoin="round"/>
<path d="M136.559 205.047L114.413 210.381" stroke="#005EB8" stroke-linecap="round" stroke-linejoin="round"/>
<path d="M169.225 200.093L161.474 198.992L152.062 201.194" stroke="#005EB8" stroke-linecap="round" stroke-linejoin="round"/>
<path d="M136.255 151.807V141.084" stroke="#005EB8" stroke-linecap="round" stroke-linejoin="round"/>
<path d="M136.255 204.683V174.221" stroke="#005EB8" stroke-linecap="round" stroke-linejoin="round"/>
<path d="M153.601 127.519L143.635 125.246" stroke="#005EB8" stroke-linecap="round" stroke-linejoin="round"/>
<path d="M173.704 132.111L162.997 129.645" stroke="#005EB8" stroke-linecap="round" stroke-linejoin="round"/>
<path d="M193.199 136.884L182.984 134.6" stroke="#005EB8" stroke-linecap="round" stroke-linejoin="round"/>
<path d="M212.964 141.193L202.644 139.002" stroke="#005EB8" stroke-linecap="round" stroke-linejoin="round"/>
<path d="M231.235 145.596L222.376 143.395" stroke="#005EB8" stroke-linecap="round" stroke-linejoin="round"/>
<path d="M133.625 122.781L124.086 120.551L132.684 118.074L247.291 144.496L238.432 147.249" stroke="#005EB8" stroke-linecap="round" stroke-linejoin="round"/>
<path d="M238.432 147.248V164.835L221.048 160.806L213.468 159.05L202.644 156.54L197.456 155.34L193.199 154.354L182.984 151.987L178.073 150.848L174.169 149.945L163.655 147.512L158.362 146.285L153.601 145.184L144.017 142.96L138.27 141.628L134.766 140.819L124.086 138.347V120.551" stroke="#005EB8" stroke-linecap="round" stroke-linejoin="round"/>
<path d="M247.291 144.496V162.672L238.432 164.836V147.248L247.291 144.496Z" stroke="#005EB8" stroke-linecap="round" stroke-linejoin="round"/>
<path d="M124.086 138.348L134.013 122.869L142.295 120.287L151.248 122.351L143.27 125.032L133.52 140.533L124.086 138.348Z" stroke="#005EB8" stroke-linecap="round" stroke-linejoin="round"/>
<path d="M144.017 142.752L153.944 127.273L162.227 124.691L171.18 126.756L163.201 129.436L153.452 144.937L144.017 142.752Z" stroke="#005EB8" stroke-linecap="round" stroke-linejoin="round"/>
<path d="M163.949 147.705L173.876 132.226L182.159 129.645L191.111 131.709L183.133 134.389L173.383 149.89L163.949 147.705Z" stroke="#005EB8" stroke-linecap="round" stroke-linejoin="round"/>
<path d="M183.327 152.109L193.254 136.63L201.537 134.049L210.489 136.113L202.511 138.794L192.761 154.295L183.327 152.109Z" stroke="#005EB8" stroke-linecap="round" stroke-linejoin="round"/>
<path d="M203.259 156.514L213.186 141.035L221.468 138.453L230.421 140.517L222.443 143.198L212.693 158.699L203.259 156.514Z" stroke="#005EB8" stroke-linecap="round" stroke-linejoin="round"/>
<path d="M238.432 151.222L237.331 152.978L230.963 163.101L221.529 160.916L231.456 145.437L239.739 142.855L247.291 144.496" stroke="#005EB8" stroke-linecap="round" stroke-linejoin="round"/>
<path d="M153.601 160.547L143.635 158.273" stroke="#005EB8" stroke-linecap="round" stroke-linejoin="round"/>
<path d="M173.704 165.138L162.997 162.672" stroke="#005EB8" stroke-linecap="round" stroke-linejoin="round"/>
<path d="M193.199 169.911L182.984 167.627" stroke="#005EB8" stroke-linecap="round" stroke-linejoin="round"/>
<path d="M212.964 174.22L202.644 172.029" stroke="#005EB8" stroke-linecap="round" stroke-linejoin="round"/>
<path d="M231.235 178.624L222.376 176.422" stroke="#005EB8" stroke-linecap="round" stroke-linejoin="round"/>
<path d="M133.625 155.808L124.086 153.579L132.684 151.102L247.291 177.524L238.432 180.276" stroke="#005EB8" stroke-linecap="round" stroke-linejoin="round"/>
<path d="M238.432 180.275V197.863L221.048 193.833L213.468 192.077L202.644 189.567L197.456 188.367L193.199 187.382L182.984 185.015L178.073 183.875L174.169 182.973L163.655 180.54L158.362 179.312L153.601 178.211L144.017 175.987L138.27 174.655L134.766 173.846L124.086 171.374V153.578" stroke="#005EB8" stroke-linecap="round" stroke-linejoin="round"/>
<path d="M247.291 177.523V195.7L238.432 197.863V180.276L247.291 177.523Z" stroke="#005EB8" stroke-linecap="round" stroke-linejoin="round"/>
<path d="M124.086 171.375L134.013 155.896L142.295 153.314L151.248 155.379L143.27 158.059L133.52 173.56L124.086 171.375Z" stroke="#005EB8" stroke-linecap="round" stroke-linejoin="round"/>
<path d="M144.017 175.779L153.944 160.3L162.227 157.719L171.18 159.783L163.201 162.464L153.452 177.965L144.017 175.779Z" stroke="#005EB8" stroke-linecap="round" stroke-linejoin="round"/>
<path d="M163.949 180.732L173.876 165.254L182.159 162.672L191.111 164.736L183.133 167.417L173.383 182.918L163.949 180.732Z" stroke="#005EB8" stroke-linecap="round" stroke-linejoin="round"/>
<path d="M183.327 185.137L193.254 169.658L201.537 167.076L210.489 169.14L202.511 171.821L192.761 187.322L183.327 185.137Z" stroke="#005EB8" stroke-linecap="round" stroke-linejoin="round"/>
<path d="M203.259 189.541L213.186 174.062L221.468 171.48L230.421 173.545L222.443 176.225L212.693 191.726L203.259 189.541Z" stroke="#005EB8" stroke-linecap="round" stroke-linejoin="round"/>
<path d="M238.432 184.25L237.331 186.006L230.963 196.129L221.529 193.943L231.456 178.464L239.739 175.883L247.291 177.523" stroke="#005EB8" stroke-linecap="round" stroke-linejoin="round"/>
<path d="M261.132 202.844V207.473L302.657 217.156L344.181 207.247V202.844L302.657 212.835L261.132 202.844Z" stroke="#005EB8" stroke-linecap="round" stroke-linejoin="round"/>
<path d="M324.377 198.908L344.181 202.844L302.657 212.835L261.132 202.844L280.732 198.947" stroke="#005EB8" stroke-linecap="round" stroke-linejoin="round"/>
<path d="M279.658 202.844C284.386 209.449 315.944 211.651 325.705 202.844L306.532 126.33C303.587 126.991 300.94 127.189 298.997 126.33L279.658 202.844Z" stroke="#005EB8" stroke-linecap="round" stroke-linejoin="round"/>
<path d="M281.64 195.012C295.78 200.263 309.882 200.291 323.939 194.588" stroke="#005EB8" stroke-linecap="round" stroke-linejoin="round"/>
<path d="M283.777 186.545C295.647 192.248 308.298 192.259 321.741 186.545" stroke="#005EB8" stroke-linecap="round" stroke-linejoin="round"/>
<path d="M285.842 178.623C296.306 183.94 307.562 184.353 319.803 178.623" stroke="#005EB8" stroke-linecap="round" stroke-linejoin="round"/>
<path d="M287.697 171.039C296.422 174.81 306.41 174.98 317.849 171.039" stroke="#005EB8" stroke-linecap="round" stroke-linejoin="round"/>
<path d="M289.679 163.211C297.552 165.677 306.228 165.749 315.778 163.211" stroke="#005EB8" stroke-linecap="round" stroke-linejoin="round"/>
<path d="M291.838 154.662C299.29 156.98 306.554 156.958 313.636 154.662" stroke="#005EB8" stroke-linecap="round" stroke-linejoin="round"/>
<path d="M293.715 147.248C299.7 149.015 305.718 148.993 311.781 147.248" stroke="#005EB8" stroke-linecap="round" stroke-linejoin="round"/>
<path d="M295.935 138.451C300.514 139.348 305.059 139.359 309.572 138.451" stroke="#005EB8" stroke-linecap="round" stroke-linejoin="round"/>
<path d="M311.493 145.486H417.723" stroke="#005EB8" stroke-linecap="round" stroke-linejoin="round"/>
<path d="M247.103 145.486H294.053" stroke="#005EB8" stroke-linecap="round" stroke-linejoin="round"/>
<path d="M115.1 145.486H136.15" stroke="#005EB8" stroke-linecap="round" stroke-linejoin="round"/>
<path d="M0.276855 145.486H99.6583" stroke="#005EB8" stroke-linecap="round" stroke-linejoin="round"/>
</g>
<defs>
<clipPath id="clip0_4140_7712">
<rect width="418" height="240" fill="white"/>
</clipPath>
</defs>
</svg>
