<svg width="237" height="97" viewBox="0 0 237 97" fill="none" xmlns="http://www.w3.org/2000/svg">
<path d="M33.6932 28.2727C33.6932 31.8774 33.018 34.9647 31.6676 37.5348C30.3281 40.094 28.4986 42.0542 26.179 43.4155C23.8703 44.7768 21.2512 45.4574 18.3217 45.4574C15.3923 45.4574 12.7678 44.7768 10.4482 43.4155C8.13944 42.0433 6.3099 40.0777 4.95952 37.5185C3.62003 34.9484 2.95028 31.8665 2.95028 28.2727C2.95028 24.6681 3.62003 21.5862 4.95952 19.027C6.3099 16.4569 8.13944 14.4912 10.4482 13.13C12.7678 11.7687 15.3923 11.0881 18.3217 11.0881C21.2512 11.0881 23.8703 11.7687 26.179 13.13C28.4986 14.4912 30.3281 16.4569 31.6676 19.027C33.018 21.5862 33.6932 24.6681 33.6932 28.2727ZM27.6001 28.2727C27.6001 25.7353 27.2027 23.5954 26.4077 21.853C25.6236 20.0997 24.5346 18.7765 23.1406 17.8835C21.7467 16.9796 20.1404 16.5277 18.3217 16.5277C16.5031 16.5277 14.8968 16.9796 13.5028 17.8835C12.1089 18.7765 11.0144 20.0997 10.2195 21.853C9.43537 23.5954 9.04332 25.7353 9.04332 28.2727C9.04332 30.8101 9.43537 32.9555 10.2195 34.7088C11.0144 36.4512 12.1089 37.7744 13.5028 38.6783C14.8968 39.5713 16.5031 40.0178 18.3217 40.0178C20.1404 40.0178 21.7467 39.5713 23.1406 38.6783C24.5346 37.7744 25.6236 36.4512 26.4077 34.7088C27.2027 32.9555 27.6001 30.8101 27.6001 28.2727ZM39.1614 45V19.9091H44.8951V24.0909H45.1564C45.6138 22.6425 46.3979 21.5263 47.5087 20.7422C48.6304 19.9472 49.91 19.5497 51.3475 19.5497C51.6742 19.5497 52.039 19.566 52.4419 19.5987C52.8558 19.6205 53.1988 19.6586 53.4711 19.7131V25.1527C53.2206 25.0656 52.8231 24.9893 52.2786 24.924C51.745 24.8478 51.2277 24.8097 50.7267 24.8097C49.6486 24.8097 48.6794 25.0438 47.8191 25.5121C46.9696 25.9695 46.2999 26.6065 45.8098 27.4233C45.3198 28.2401 45.0748 29.1821 45.0748 30.2493V45H39.1614ZM65.6776 45.4411C63.7064 45.4411 61.9422 44.9347 60.3849 43.9219C58.8277 42.9091 57.5971 41.4389 56.6932 39.5114C55.7893 37.5838 55.3374 35.2424 55.3374 32.4872C55.3374 29.6993 55.7947 27.3471 56.7095 25.4304C57.6352 23.5028 58.8821 22.049 60.4503 21.0689C62.0185 20.0779 63.7663 19.5824 65.6939 19.5824C67.1641 19.5824 68.3729 19.8329 69.3203 20.3338C70.2678 20.8239 71.0192 21.4174 71.5746 22.1143C72.13 22.8004 72.5601 23.4484 72.8651 24.0582H73.1101V11.5455H79.0398V45H73.2244V41.0469H72.8651C72.5601 41.6567 72.1191 42.3047 71.5419 42.9908C70.9647 43.666 70.2024 44.2431 69.255 44.7223C68.3075 45.2015 67.1151 45.4411 65.6776 45.4411ZM67.3274 40.5895C68.5798 40.5895 69.647 40.2519 70.5291 39.5767C71.4112 38.8906 72.081 37.9377 72.5384 36.718C72.9957 35.4983 73.2244 34.0772 73.2244 32.4545C73.2244 30.8319 72.9957 29.4216 72.5384 28.2237C72.0919 27.0258 71.4276 26.0947 70.5455 25.4304C69.6742 24.7661 68.6016 24.4339 67.3274 24.4339C66.0097 24.4339 64.9098 24.777 64.0277 25.4631C63.1456 26.1491 62.4813 27.0966 62.0348 28.3054C61.5883 29.5142 61.3651 30.8973 61.3651 32.4545C61.3651 34.0227 61.5883 35.4221 62.0348 36.6527C62.4922 37.8724 63.1619 38.8362 64.044 39.544C64.937 40.241 66.0315 40.5895 67.3274 40.5895ZM96.449 45.4901C93.9334 45.4901 91.7608 44.9673 89.9313 43.9219C88.1126 42.8655 86.7132 41.3736 85.7331 39.446C84.753 37.5076 84.263 35.2261 84.263 32.6016C84.263 30.0206 84.753 27.7554 85.7331 25.8061C86.7241 23.8459 88.1072 22.3213 89.8823 21.2322C91.6574 20.1323 93.7428 19.5824 96.1387 19.5824C97.6851 19.5824 99.1444 19.8329 100.517 20.3338C101.9 20.8239 103.119 21.5862 104.176 22.6207C105.243 23.6553 106.081 24.973 106.691 26.5739C107.301 28.1638 107.606 30.0587 107.606 32.2585V34.0717H87.04V30.0859H101.938C101.927 28.9534 101.682 27.946 101.203 27.0639C100.723 26.1709 100.054 25.4685 99.1934 24.9567C98.3439 24.4448 97.3529 24.1889 96.2203 24.1889C95.0115 24.1889 93.9498 24.483 93.035 25.071C92.1202 25.6482 91.4069 26.4105 90.8951 27.358C90.3941 28.2945 90.1382 29.3236 90.1273 30.4453V33.9247C90.1273 35.384 90.3941 36.6364 90.9277 37.6818C91.4614 38.7164 92.2073 39.5114 93.1657 40.0668C94.124 40.6113 95.2457 40.8835 96.5307 40.8835C97.391 40.8835 98.1697 40.7637 98.8667 40.5241C99.5636 40.2737 100.168 39.9089 100.68 39.4297C101.192 38.9505 101.578 38.357 101.84 37.6491L107.361 38.2699C107.012 39.7292 106.348 41.0033 105.368 42.0923C104.399 43.1705 103.157 44.009 101.644 44.608C100.13 45.196 98.3984 45.4901 96.449 45.4901ZM112.609 45V19.9091H118.342V24.0909H118.604C119.061 22.6425 119.845 21.5263 120.956 20.7422C122.078 19.9472 123.357 19.5497 124.795 19.5497C125.121 19.5497 125.486 19.566 125.889 19.5987C126.303 19.6205 126.646 19.6586 126.918 19.7131V25.1527C126.668 25.0656 126.27 24.9893 125.726 24.924C125.192 24.8478 124.675 24.8097 124.174 24.8097C123.096 24.8097 122.127 25.0438 121.266 25.5121C120.417 25.9695 119.747 26.6065 119.257 27.4233C118.767 28.2401 118.522 29.1821 118.522 30.2493V45H112.609ZM131.108 45V11.5455H137.022V24.0582H137.267C137.572 23.4484 138.002 22.8004 138.557 22.1143C139.113 21.4174 139.864 20.8239 140.811 20.3338C141.759 19.8329 142.968 19.5824 144.438 19.5824C146.376 19.5824 148.124 20.0779 149.681 21.0689C151.25 22.049 152.491 23.5028 153.406 25.4304C154.332 27.3471 154.794 29.6993 154.794 32.4872C154.794 35.2424 154.342 37.5838 153.439 39.5114C152.535 41.4389 151.304 42.9091 149.747 43.9219C148.19 44.9347 146.425 45.4411 144.454 45.4411C143.017 45.4411 141.824 45.2015 140.877 44.7223C139.929 44.2431 139.167 43.666 138.59 42.9908C138.024 42.3047 137.583 41.6567 137.267 41.0469H136.924V45H131.108ZM136.907 32.4545C136.907 34.0772 137.136 35.4983 137.593 36.718C138.062 37.9377 138.731 38.8906 139.603 39.5767C140.485 40.2519 141.552 40.5895 142.804 40.5895C144.111 40.5895 145.206 40.241 146.088 39.544C146.97 38.8362 147.634 37.8724 148.081 36.6527C148.538 35.4221 148.767 34.0227 148.767 32.4545C148.767 30.8973 148.543 29.5142 148.097 28.3054C147.65 27.0966 146.986 26.1491 146.104 25.4631C145.222 24.777 144.122 24.4339 142.804 24.4339C141.541 24.4339 140.468 24.7661 139.586 25.4304C138.704 26.0947 138.034 27.0258 137.577 28.2237C137.131 29.4216 136.907 30.8319 136.907 32.4545ZM167.042 45.5064C165.452 45.5064 164.02 45.2232 162.746 44.657C161.482 44.0798 160.48 43.2304 159.74 42.1087C159.01 40.987 158.645 39.6039 158.645 37.9595C158.645 36.5438 158.907 35.3731 159.43 34.4474C159.952 33.5218 160.666 32.7812 161.569 32.2259C162.473 31.6705 163.492 31.2512 164.624 30.968C165.768 30.674 166.949 30.4616 168.169 30.331C169.639 30.1785 170.831 30.0424 171.746 29.9226C172.661 29.7919 173.325 29.5959 173.739 29.3345C174.164 29.0623 174.376 28.643 174.376 28.0767V27.9787C174.376 26.7481 174.011 25.7952 173.282 25.12C172.552 24.4448 171.501 24.1072 170.129 24.1072C168.681 24.1072 167.532 24.4231 166.682 25.0547C165.844 25.6863 165.278 26.4323 164.983 27.2926L159.462 26.5085C159.898 24.9839 160.617 23.7098 161.618 22.6861C162.62 21.6515 163.845 20.8783 165.294 20.3665C166.742 19.8438 168.343 19.5824 170.096 19.5824C171.305 19.5824 172.509 19.724 173.706 20.0071C174.904 20.2902 175.999 20.7585 176.99 21.4119C177.981 22.0544 178.776 22.9311 179.375 24.0419C179.985 25.1527 180.29 26.5412 180.29 28.2074V45H174.605V41.5533H174.409C174.05 42.2502 173.543 42.9036 172.89 43.5135C172.247 44.1125 171.436 44.5971 170.456 44.9673C169.487 45.3267 168.349 45.5064 167.042 45.5064ZM168.577 41.1612C169.764 41.1612 170.793 40.9271 171.665 40.4588C172.536 39.9796 173.206 39.348 173.674 38.5639C174.153 37.7798 174.393 36.925 174.393 35.9993V33.0426C174.207 33.1951 173.892 33.3366 173.445 33.4673C173.01 33.598 172.519 33.7124 171.975 33.8104C171.43 33.9084 170.891 33.9955 170.358 34.0717C169.824 34.148 169.361 34.2133 168.969 34.2678C168.087 34.3875 167.298 34.5836 166.601 34.8558C165.904 35.1281 165.354 35.5092 164.951 35.9993C164.548 36.4785 164.346 37.0992 164.346 37.8615C164.346 38.9505 164.744 39.7727 165.539 40.3281C166.334 40.8835 167.347 41.1612 168.577 41.1612ZM206.067 26.5412L200.676 27.1293C200.523 26.5848 200.257 26.0729 199.876 25.5938C199.505 25.1146 199.004 24.728 198.373 24.4339C197.741 24.1399 196.968 23.9929 196.053 23.9929C194.823 23.9929 193.788 24.2597 192.949 24.7933C192.122 25.3269 191.713 26.0185 191.724 26.8679C191.713 27.5975 191.98 28.1911 192.525 28.6484C193.08 29.1058 193.995 29.4815 195.269 29.7756L199.549 30.6903C201.923 31.2022 203.687 32.0135 204.841 33.1243C206.007 34.2351 206.595 35.6889 206.606 37.4858C206.595 39.0649 206.132 40.4588 205.217 41.6676C204.313 42.8655 203.055 43.8021 201.444 44.4773C199.832 45.1525 197.981 45.4901 195.89 45.4901C192.819 45.4901 190.347 44.8475 188.474 43.5625C186.6 42.2666 185.484 40.4643 185.125 38.1555L190.891 37.6001C191.153 38.7327 191.708 39.5876 192.557 40.1648C193.407 40.742 194.512 41.0305 195.873 41.0305C197.278 41.0305 198.405 40.742 199.255 40.1648C200.115 39.5876 200.545 38.8743 200.545 38.0249C200.545 37.3061 200.268 36.7126 199.712 36.2443C199.168 35.776 198.318 35.4167 197.164 35.1662L192.884 34.2678C190.477 33.7668 188.697 32.9228 187.542 31.7358C186.388 30.5379 185.816 29.0241 185.827 27.1946C185.816 25.6482 186.236 24.3087 187.085 23.1761C187.945 22.0327 189.138 21.1506 190.662 20.5298C192.198 19.8982 193.968 19.5824 195.971 19.5824C198.912 19.5824 201.226 20.2086 202.914 21.4609C204.613 22.7133 205.664 24.4067 206.067 26.5412ZM222.59 45.4901C220.074 45.4901 217.901 44.9673 216.072 43.9219C214.253 42.8655 212.854 41.3736 211.874 39.446C210.894 37.5076 210.404 35.2261 210.404 32.6016C210.404 30.0206 210.894 27.7554 211.874 25.8061C212.865 23.8459 214.248 22.3213 216.023 21.2322C217.798 20.1323 219.883 19.5824 222.279 19.5824C223.826 19.5824 225.285 19.8329 226.657 20.3338C228.04 20.8239 229.26 21.5862 230.316 22.6207C231.383 23.6553 232.222 24.973 232.832 26.5739C233.442 28.1638 233.747 30.0587 233.747 32.2585V34.0717H213.181V30.0859H228.078C228.067 28.9534 227.822 27.946 227.343 27.0639C226.864 26.1709 226.194 25.4685 225.334 24.9567C224.485 24.4448 223.494 24.1889 222.361 24.1889C221.152 24.1889 220.09 24.483 219.176 25.071C218.261 25.6482 217.548 26.4105 217.036 27.358C216.535 28.2945 216.279 29.3236 216.268 30.4453V33.9247C216.268 35.384 216.535 36.6364 217.068 37.6818C217.602 38.7164 218.348 39.5114 219.306 40.0668C220.265 40.6113 221.386 40.8835 222.671 40.8835C223.532 40.8835 224.31 40.7637 225.007 40.5241C225.704 40.2737 226.309 39.9089 226.82 39.4297C227.332 38.9505 227.719 38.357 227.98 37.6491L233.502 38.2699C233.153 39.7292 232.489 41.0033 231.509 42.0923C230.539 43.1705 229.298 44.009 227.784 44.608C226.271 45.196 224.539 45.4901 222.59 45.4901Z" fill="white"/>
<path d="M98.817 81.2079C99.812 81.7821 100.154 83.0589 99.5798 84.0536C99.0053 85.0485 97.7285 85.3905 96.7338 84.8163C95.7392 84.2419 95.3969 82.9651 95.9714 81.9704C96.5456 80.9757 97.8224 80.6335 98.817 81.2079ZM94.4986 81.4583C93.7316 83.0569 94.2647 85.0161 95.7438 86.013C97.504 87.1984 99.8741 86.6293 100.921 84.8152C101.299 84.1619 101.453 83.4446 101.398 82.7503C101.338 81.9092 101.153 79.5267 101.058 78.2497C101.026 77.8542 100.607 77.6121 100.258 77.788C99.1106 78.3346 96.9493 79.3753 96.1907 79.7435C95.474 80.084 94.8735 80.6734 94.4986 81.4583ZM95.8899 76.1381C95.8899 77.2867 94.9552 78.2215 93.8065 78.2215C92.6579 78.2215 91.7231 77.2867 91.7231 76.1381C91.7231 74.9896 92.6579 74.0549 93.8065 74.0549C94.9552 74.0549 95.8899 74.9896 95.8899 76.1381ZM93.5137 72.5233C91.7457 72.6584 90.3156 74.0998 90.1918 75.8792C90.0454 77.9962 91.7231 79.7643 93.8178 79.7643C94.5723 79.7643 95.2705 79.5389 95.8447 79.1449C96.543 78.6719 98.5136 77.3206 99.5722 76.5998C99.8988 76.3746 99.8988 75.8905 99.5722 75.6763C98.5249 74.9557 96.543 73.6045 95.8447 73.1314C95.1917 72.681 94.3807 72.4558 93.5137 72.5233ZM98.8166 71.0683C97.8219 71.6425 96.5451 71.3004 95.9709 70.3057C95.3965 69.3108 95.7385 68.034 96.7335 67.4598C97.7281 66.8854 99.0049 67.2276 99.5791 68.2223C100.154 69.217 99.8115 70.4938 98.8166 71.0683ZM100.759 67.2029C99.7581 65.7395 97.7948 65.2215 96.192 66.0041C94.2851 66.9357 93.593 69.2728 94.6403 71.0867C95.0175 71.7402 95.5617 72.2321 96.1903 72.5324C96.9489 72.9006 99.1046 73.9317 100.258 74.4879C100.616 74.6582 101.036 74.416 101.058 74.0265C101.158 72.759 101.337 70.3669 101.398 69.5258C101.462 68.7349 101.251 67.9202 100.759 67.2029Z" fill="white"/>
<path d="M104.671 71.068C103.676 70.4938 103.334 69.217 103.908 68.2223C104.483 67.2274 105.759 66.8853 106.754 67.4598C107.749 68.034 108.091 69.3108 107.517 70.3055C106.942 71.3003 105.666 71.6424 104.671 71.068ZM108.989 70.8178C109.756 69.2192 109.223 67.2598 107.744 66.2629C105.984 65.0776 103.614 65.6465 102.567 67.4606C102.189 68.1141 102.035 68.8312 102.089 69.5258C102.15 70.3669 102.335 72.7492 102.43 74.0262C102.461 74.4217 102.881 74.6638 103.229 74.4879C104.377 73.9412 106.538 72.9006 107.297 72.5324C108.014 72.1921 108.614 71.6025 108.989 70.8178ZM107.598 76.1378C107.598 74.9891 108.533 74.0544 109.681 74.0544C110.83 74.0544 111.765 74.9891 111.765 76.1378C111.765 77.2864 110.83 78.221 109.681 78.221C108.533 78.221 107.598 77.2864 107.598 76.1378ZM109.974 79.7525C111.742 79.6174 113.172 78.176 113.296 76.3967C113.443 74.2796 111.765 72.5118 109.67 72.5118C108.916 72.5118 108.217 72.737 107.643 73.131C106.945 73.604 104.974 74.9555 103.916 75.6761C103.589 75.9013 103.589 76.3856 103.916 76.5995C104.963 77.3201 106.945 78.6716 107.643 79.1444C108.296 79.5949 109.107 79.8201 109.974 79.7525ZM104.671 81.2079C105.666 80.6334 106.943 80.9757 107.517 81.9703C108.091 82.965 107.749 84.2418 106.754 84.8161C105.76 85.3905 104.483 85.0485 103.909 84.0535C103.334 83.0589 103.677 81.7821 104.671 81.2079ZM102.729 85.073C103.73 86.5365 105.693 87.0543 107.296 86.2721C109.203 85.3403 109.895 83.0031 108.847 81.1892C108.47 80.5357 107.926 80.0438 107.298 79.7434C106.539 79.3753 104.383 78.3444 103.23 77.7879C102.872 77.6176 102.452 77.8598 102.43 78.2497C102.33 79.5169 102.15 81.9089 102.09 82.7503C102.026 83.541 102.237 84.3559 102.729 85.073Z" fill="white"/>
<path d="M221.666 77.0576H227.203C227.087 75.5669 226.08 74.5798 224.473 74.5798C222.943 74.5798 221.957 75.4314 221.666 77.0576ZM229.177 79.8067C228.829 81.8199 227.067 83.1362 224.666 83.1362C221.647 83.1362 219.769 80.7551 219.769 78.0449C219.769 75.3152 221.472 73.0698 224.473 73.0698C227.493 73.0698 229.1 75.2185 229.1 77.6963C229.1 77.9483 229.08 78.258 229.061 78.4322H221.608C221.763 80.271 222.963 81.5296 224.666 81.5296C226.099 81.5296 227.028 80.9101 227.299 79.8067H229.177ZM211.343 79.8067H213.105C213.221 80.9293 214.034 81.5684 215.293 81.5684C216.416 81.5684 217.132 80.9681 217.132 80.2519C217.132 77.6577 211.595 80.0388 211.595 75.8768C211.595 74.1926 213.027 73.0698 215.061 73.0698C217.267 73.0698 218.777 74.2892 218.874 76.1285H217.112C216.977 75.0055 215.893 74.5603 215.061 74.5603C214.054 74.5603 213.376 75.0637 213.376 75.8188C213.376 78.2386 218.951 75.7608 218.951 80.213C218.951 81.9941 217.5 83.1362 215.293 83.1362C213.009 83.1362 211.479 81.8586 211.343 79.8067ZM208.141 78.1029C208.141 76.0705 206.96 74.7153 205.14 74.7153C203.34 74.7153 202.159 76.0705 202.159 78.1029C202.159 80.1357 203.34 81.4909 205.14 81.4909C206.96 81.4909 208.141 80.1357 208.141 78.1029ZM200.243 78.1029C200.243 75.1992 201.927 73.0698 204.909 73.0698C206.186 73.0698 207.405 73.6699 208.006 74.5218V73.2246H209.883V82.9816H208.006V81.6651C207.541 82.4975 206.302 83.1362 204.927 83.1362C201.927 83.1362 200.243 81.0068 200.243 78.1029ZM197.381 78.1029C197.381 76.0705 196.181 74.7153 194.381 74.7153C192.561 74.7153 191.38 76.0705 191.38 78.1029C191.38 80.1357 192.561 81.4909 194.381 81.4909C196.181 81.4909 197.381 80.1357 197.381 78.1029ZM191.535 81.5296V82.9816H189.657V69.1399H191.535V74.6573C192.097 73.7085 193.277 73.0698 194.613 73.0698C197.594 73.0698 199.278 75.1992 199.278 78.1029C199.278 81.0068 197.594 83.1362 194.593 83.1362C193.296 83.1362 192.097 82.4975 191.535 81.5296ZM183.898 70.1659H185.776V73.2246H188.66V74.8509H185.776V79.6516C185.776 80.6971 186.337 81.2778 187.285 81.2778H188.66V82.9816H187.131C185.156 82.9816 183.898 81.7813 183.898 79.7876V74.8509H181.904V73.2246H183.898V70.1659ZM172.22 78.1029C172.22 75.4122 173.982 73.0698 177.06 73.0698C179.344 73.0698 181.319 74.4248 181.59 76.6317H179.712C179.538 75.5282 178.415 74.7153 177.099 74.7153C175.143 74.7153 174.175 76.2252 174.175 78.1029C174.175 79.9808 175.163 81.4909 177.099 81.4909C178.435 81.4909 179.421 80.7937 179.731 79.6905H181.59C181.28 81.7426 179.538 83.1362 177.06 83.1362C173.982 83.1362 172.22 80.7937 172.22 78.1029ZM163.944 77.0576H169.481C169.364 75.5669 168.358 74.5798 166.751 74.5798C165.222 74.5798 164.234 75.4314 163.944 77.0576ZM171.455 79.8067C171.107 81.8199 169.345 83.1362 166.945 83.1362C163.925 83.1362 162.047 80.7551 162.047 78.0449C162.047 75.3152 163.751 73.0698 166.751 73.0698C169.771 73.0698 171.378 75.2185 171.378 77.6963C171.378 77.9483 171.359 78.258 171.339 78.4322H163.886C164.041 80.271 165.241 81.5296 166.945 81.5296C168.377 81.5296 169.306 80.9101 169.577 79.8067H171.455ZM152.106 82.9816V73.2246H153.983V74.9475C154.506 73.728 155.668 73.0698 157.119 73.0698C159.327 73.0698 160.759 74.6573 160.759 76.9803V82.9816H158.881V77.348C158.881 75.7993 157.971 74.754 156.597 74.754C155.067 74.754 153.983 75.993 153.983 77.6963V82.9816H152.106ZM141.595 82.9816V73.2246H143.473V74.9475C143.996 73.728 145.157 73.0698 146.609 73.0698C148.816 73.0698 150.249 74.6573 150.249 76.9803V82.9816H148.371V77.348C148.371 75.7993 147.461 74.754 146.087 74.754C144.557 74.754 143.473 75.993 143.473 77.6963V82.9816H141.595ZM138.354 78.1029C138.354 76.109 137.096 74.7153 135.257 74.7153C133.398 74.7153 132.14 76.109 132.14 78.1029C132.14 80.0973 133.398 81.4909 135.257 81.4909C137.096 81.4909 138.354 80.0973 138.354 78.1029ZM130.224 78.1029C130.224 75.1797 132.333 73.0698 135.257 73.0698C138.18 73.0698 140.271 75.1797 140.271 78.1029C140.271 81.0263 138.18 83.1362 135.257 83.1362C132.333 83.1362 130.224 81.0263 130.224 78.1029ZM116.931 76.2061C116.931 71.5599 120.106 69.2755 123.552 69.2755C126.63 69.2755 129.07 71.1338 129.437 73.786H127.327C127.095 72.1987 125.507 71.0563 123.533 71.0563C120.9 71.0563 119.003 72.857 119.003 76.2061C119.003 79.555 120.9 81.3554 123.533 81.3554C125.546 81.3554 127.153 80.213 127.366 78.6256H129.399C129.108 81.2778 126.688 83.1362 123.552 83.1362C120.067 83.1362 116.931 80.8522 116.931 76.2061Z" fill="white"/>
<path d="M65.1477 81V69.3636H67.2045V73.7159H67.2898C67.3958 73.5038 67.5455 73.2784 67.7386 73.0398C67.9318 72.7973 68.1932 72.5909 68.5227 72.4205C68.8523 72.2462 69.2727 72.1591 69.7841 72.1591C70.4583 72.1591 71.0663 72.3314 71.608 72.6761C72.1534 73.017 72.5852 73.5227 72.9034 74.1932C73.2254 74.8598 73.3864 75.678 73.3864 76.6477C73.3864 77.6061 73.2292 78.4205 72.9148 79.0909C72.6004 79.7614 72.1723 80.2727 71.6307 80.625C71.089 80.9773 70.4754 81.1534 69.7898 81.1534C69.2898 81.1534 68.875 81.0701 68.5455 80.9034C68.2159 80.7367 67.9508 80.536 67.75 80.3011C67.553 80.0625 67.3996 79.8371 67.2898 79.625H67.1705V81H65.1477ZM67.1648 76.6364C67.1648 77.2008 67.2443 77.6951 67.4034 78.1193C67.5663 78.5436 67.7992 78.875 68.1023 79.1136C68.4091 79.3485 68.7803 79.4659 69.2159 79.4659C69.6705 79.4659 70.0511 79.3447 70.358 79.1023C70.6648 78.8561 70.8958 78.5208 71.0511 78.0966C71.2102 77.6686 71.2898 77.1818 71.2898 76.6364C71.2898 76.0947 71.2121 75.6136 71.0568 75.1932C70.9015 74.7727 70.6705 74.4432 70.3636 74.2045C70.0568 73.9659 69.6742 73.8466 69.2159 73.8466C68.7765 73.8466 68.4034 73.9621 68.0966 74.1932C67.7898 74.4242 67.5568 74.7481 67.3977 75.1648C67.2424 75.5814 67.1648 76.072 67.1648 76.6364ZM76.1165 84.2727C75.8362 84.2727 75.5767 84.25 75.3381 84.2045C75.1032 84.1629 74.9157 84.1136 74.7756 84.0568L75.2528 82.4545C75.5521 82.5417 75.8191 82.5833 76.054 82.5795C76.2888 82.5758 76.4953 82.5019 76.6733 82.358C76.8551 82.2178 77.0085 81.983 77.1335 81.6534L77.3097 81.1818L74.1449 72.2727H76.3267L78.3381 78.8636H78.429L80.446 72.2727H82.6335L79.1392 82.0568C78.9763 82.5189 78.7604 82.9148 78.4915 83.2443C78.2225 83.5777 77.893 83.8314 77.5028 84.0057C77.1165 84.1837 76.6544 84.2727 76.1165 84.2727Z" fill="white"/>
</svg>
