<svg width="273" height="146" viewBox="0 0 273 146" fill="none" xmlns="http://www.w3.org/2000/svg">
<g clip-path="url(#clip0_4145_7898)">
<path d="M176.597 68.3094L156.45 0.644531L97.2239 18.3415L105.536 46.4485L79.5601 53.7354L106.575 145.343L191.777 119.318L188.494 108.263" stroke="#005EB8" stroke-miterlimit="10"/>
<path d="M97.2239 18.3418L79.5601 53.7357" stroke="#005EB8" stroke-miterlimit="10"/>
<path d="M97.2239 67.2182L151.774 51.1348" stroke="#005EB8" stroke-miterlimit="10"/>
<path d="M99.8215 76.1169L153.852 60.502" stroke="#005EB8" stroke-miterlimit="10"/>
<path d="M101.9 85.4861L155.93 69.8711" stroke="#005EB8" stroke-miterlimit="10"/>
<path d="M118.968 103.931L112.946 105.549L118.059 124.653L124.081 123.035L118.968 103.931Z" stroke="#005EB8" stroke-miterlimit="10"/>
<path d="M128.785 88.357L122.764 89.9746L131.106 121.144L137.128 119.527L128.785 88.357Z" stroke="#005EB8" stroke-miterlimit="10"/>
<path d="M146.681 102.957L140.66 104.574L144.158 117.645L150.18 116.028L146.681 102.957Z" stroke="#005EB8" stroke-miterlimit="10"/>
<path d="M174.114 112.552C186.451 112.552 196.453 102.531 196.453 90.1705C196.453 77.8096 186.451 67.7891 174.114 67.7891C161.776 67.7891 151.774 77.8096 151.774 90.1705C151.774 102.531 161.776 112.552 174.114 112.552Z" stroke="#005EB8" stroke-miterlimit="10"/>
<path d="M174.114 107.347C183.582 107.347 191.258 99.6569 191.258 90.1706C191.258 80.6843 183.582 72.9941 174.114 72.9941C164.645 72.9941 156.969 80.6843 156.969 90.1706C156.969 99.6569 164.645 107.347 174.114 107.347Z" stroke="#005EB8" stroke-miterlimit="10"/>
<path d="M193.689 100.956L223.468 120.881L229.318 110.918L194.863 98.4785" stroke="#005EB8" stroke-miterlimit="10"/>
<path d="M171.007 78.7207H174.114L173.438 93.4508H172.015L171.007 78.7207Z" stroke="#005EB8" stroke-miterlimit="10"/>
<path d="M173.604 96.9375H171.526V99.0195H173.604V96.9375Z" stroke="#005EB8" stroke-miterlimit="10"/>
<path d="M0 72.9941H84.9319" stroke="#005EB8" stroke-miterlimit="10"/>
<path d="M188.068 72.9941H273" stroke="#005EB8" stroke-miterlimit="10"/>
</g>
<defs>
<clipPath id="clip0_4145_7898">
<rect width="273" height="146" fill="white"/>
</clipPath>
</defs>
</svg>
