<svg width="20" height="20" viewBox="0 0 20 20" fill="none" xmlns="http://www.w3.org/2000/svg">
<g clip-path="url(#clip0_183_3217)">
<path d="M15.8333 3.3335H4.16667C3.24619 3.3335 2.5 4.07969 2.5 5.00016C2.5 5.92064 3.24619 6.66683 4.16667 6.66683H15.8333C16.7538 6.66683 17.5 5.92064 17.5 5.00016C17.5 4.07969 16.7538 3.3335 15.8333 3.3335Z" stroke="#66757E" stroke-width="1.8" stroke-linecap="round" stroke-linejoin="round"/>
<path d="M4.16675 6.6665V14.9998C4.16675 15.4419 4.34234 15.8658 4.6549 16.1783C4.96746 16.4909 5.39139 16.6665 5.83341 16.6665H14.1667C14.6088 16.6665 15.0327 16.4909 15.3453 16.1783C15.6578 15.8658 15.8334 15.4419 15.8334 14.9998V6.6665" stroke="#66757E" stroke-width="1.8" stroke-linecap="round" stroke-linejoin="round"/>
<path d="M8.33325 10H11.6666" stroke="#66757E" stroke-width="1.8" stroke-linecap="round" stroke-linejoin="round"/>
</g>
<defs>
<clipPath id="clip0_183_3217">
<rect width="20" height="20" fill="white"/>
</clipPath>
</defs>
</svg>
