<svg width="12" height="13" viewBox="0 0 12 13" fill="none" xmlns="http://www.w3.org/2000/svg">
<g clip-path="url(#clip0_919_6660)">
<path fill-rule="evenodd" clip-rule="evenodd" d="M12 6.5C12 8.0913 11.3679 9.61742 10.2426 10.7426C9.11742 11.8679 7.5913 12.5 6 12.5C4.4087 12.5 2.88258 11.8679 1.75736 10.7426C0.632141 9.61742 0 8.0913 0 6.5C0 4.9087 0.632141 3.38258 1.75736 2.25736C2.88258 1.13214 4.4087 0.5 6 0.5C7.5913 0.5 9.11742 1.13214 10.2426 2.25736C11.3679 3.38258 12 4.9087 12 6.5ZM5.7345 8.4845C5.66408 8.55491 5.62453 8.65042 5.62453 8.75C5.62453 8.84958 5.66408 8.94509 5.7345 9.0155C5.80491 9.08591 5.90042 9.12547 6 9.12547C6.09958 9.12547 6.19509 9.08591 6.2655 9.0155L8.5155 6.7655C8.55042 6.73067 8.57813 6.68928 8.59703 6.64372C8.61594 6.59817 8.62567 6.54933 8.62567 6.5C8.62567 6.45067 8.61594 6.40183 8.59703 6.35627C8.57813 6.31072 8.55042 6.26933 8.5155 6.2345L6.2655 3.9845C6.23063 3.94963 6.18924 3.92198 6.14369 3.90311C6.09813 3.88424 6.04931 3.87453 6 3.87453C5.95069 3.87453 5.90187 3.88424 5.85631 3.90311C5.81076 3.92198 5.76937 3.94963 5.7345 3.9845C5.69963 4.01937 5.67198 4.06076 5.65311 4.10631C5.63424 4.15187 5.62453 4.20069 5.62453 4.25C5.62453 4.29931 5.63424 4.34813 5.65311 4.39369C5.67198 4.43924 5.69963 4.48063 5.7345 4.5155L7.34475 6.125H3.75C3.65054 6.125 3.55516 6.16451 3.48484 6.23484C3.41451 6.30516 3.375 6.40054 3.375 6.5C3.375 6.59946 3.41451 6.69484 3.48484 6.76517C3.55516 6.83549 3.65054 6.875 3.75 6.875H7.34475L5.7345 8.4845Z" fill="white"/>
</g>
<defs>
<clipPath id="clip0_919_6660">
<rect width="12" height="12" fill="white" transform="translate(0 0.5)"/>
</clipPath>
</defs>
</svg>
