<svg width="12" height="12" viewBox="0 0 12 12" fill="none" xmlns="http://www.w3.org/2000/svg">
<g clip-path="url(#clip0_919_6562)">
<path fill-rule="evenodd" clip-rule="evenodd" d="M0 6C0 7.5913 0.632141 9.11742 1.75736 10.2426C2.88258 11.3679 4.4087 12 6 12C7.5913 12 9.11742 11.3679 10.2426 10.2426C11.3679 9.11742 12 7.5913 12 6C12 4.4087 11.3679 2.88258 10.2426 1.75736C9.11742 0.632141 7.5913 0 6 0C4.4087 0 2.88258 0.632141 1.75736 1.75736C0.632141 2.88258 0 4.4087 0 6ZM5.7345 7.9845C5.66408 8.05491 5.62453 8.15042 5.62453 8.25C5.62453 8.34958 5.66408 8.44509 5.7345 8.5155C5.80491 8.58591 5.90042 8.62547 6 8.62547C6.09958 8.62547 6.19509 8.58591 6.2655 8.5155L8.5155 6.2655C8.55042 6.23067 8.57813 6.18928 8.59703 6.14372C8.61594 6.09817 8.62567 6.04933 8.62567 6C8.62567 5.95067 8.61594 5.90183 8.59703 5.85627C8.57813 5.81072 8.55042 5.76933 8.5155 5.7345L6.2655 3.4845C6.23063 3.44963 6.18924 3.42198 6.14369 3.40311C6.09813 3.38424 6.04931 3.37453 6 3.37453C5.95069 3.37453 5.90187 3.38424 5.85631 3.40311C5.81076 3.42198 5.76937 3.44963 5.7345 3.4845C5.69963 3.51937 5.67198 3.56076 5.65311 3.60631C5.63424 3.65187 5.62453 3.70069 5.62453 3.75C5.62453 3.79931 5.63424 3.84813 5.65311 3.89369C5.67198 3.93924 5.69963 3.98063 5.7345 4.0155L7.34475 5.625H3.75C3.65054 5.625 3.55516 5.66451 3.48483 5.73484C3.41451 5.80516 3.375 5.90054 3.375 6C3.375 6.09946 3.41451 6.19484 3.48483 6.26517C3.55516 6.33549 3.65054 6.375 3.75 6.375H7.34475L5.7345 7.9845Z" fill="#005EB8"/>
</g>
<defs>
<clipPath id="clip0_919_6562">
<rect width="12" height="12" fill="white" transform="matrix(-1 0 0 1 12 0)"/>
</clipPath>
</defs>
</svg>
