<svg width="12" height="12" viewBox="0 0 12 12" fill="none" xmlns="http://www.w3.org/2000/svg">
<g clip-path="url(#clip0_919_6560)">
<path fill-rule="evenodd" clip-rule="evenodd" d="M12 6C12 7.5913 11.3679 9.11742 10.2426 10.2426C9.11742 11.3679 7.5913 12 6 12C4.4087 12 2.88258 11.3679 1.75736 10.2426C0.632141 9.11742 0 7.5913 0 6C0 4.4087 0.632141 2.88258 1.75736 1.75736C2.88258 0.632141 4.4087 0 6 0C7.5913 0 9.11742 0.632141 10.2426 1.75736C11.3679 2.88258 12 4.4087 12 6ZM6.2655 7.9845C6.33592 8.05491 6.37547 8.15042 6.37547 8.25C6.37547 8.34958 6.33592 8.44509 6.2655 8.5155C6.19509 8.58591 6.09958 8.62547 6 8.62547C5.90042 8.62547 5.80491 8.58591 5.7345 8.5155L3.4845 6.2655C3.44958 6.23067 3.42187 6.18928 3.40297 6.14372C3.38406 6.09817 3.37433 6.04933 3.37433 6C3.37433 5.95067 3.38406 5.90183 3.40297 5.85627C3.42187 5.81072 3.44958 5.76933 3.4845 5.7345L5.7345 3.4845C5.76937 3.44963 5.81076 3.42198 5.85631 3.40311C5.90187 3.38424 5.95069 3.37453 6 3.37453C6.04931 3.37453 6.09813 3.38424 6.14369 3.40311C6.18924 3.42198 6.23063 3.44963 6.2655 3.4845C6.30037 3.51937 6.32802 3.56076 6.34689 3.60631C6.36576 3.65187 6.37547 3.70069 6.37547 3.75C6.37547 3.79931 6.36576 3.84813 6.34689 3.89369C6.32802 3.93924 6.30037 3.98063 6.2655 4.0155L4.65525 5.625H8.25C8.34946 5.625 8.44484 5.66451 8.51517 5.73484C8.58549 5.80516 8.625 5.90054 8.625 6C8.625 6.09946 8.58549 6.19484 8.51517 6.26517C8.44484 6.33549 8.34946 6.375 8.25 6.375H4.65525L6.2655 7.9845Z" fill="#005EB8"/>
</g>
<defs>
<clipPath id="clip0_919_6560">
<rect width="12" height="12" fill="white"/>
</clipPath>
</defs>
</svg>
