<svg width="16" height="16" viewBox="0 0 16 16" fill="none" xmlns="http://www.w3.org/2000/svg">
<path d="M11.3362 3.33331C11.3348 3.33331 11.3342 3.33331 11.3335 3.33331H11.3328H6.00016C4.77483 3.33331 3.6095 3.82465 2.7175 4.71731C1.82483 5.60998 1.3335 6.77531 1.3335 7.99998C1.3335 9.22531 1.82483 10.3906 2.7175 11.2826C3.6095 12.1753 4.77483 12.6666 6.00016 12.6666H11.3335V11.3333H6.00016C5.1315 11.3333 4.30016 10.9806 3.66016 10.34C3.0195 9.69998 2.66683 8.86865 2.66683 7.99998C2.66683 7.13198 3.0195 6.30065 3.66016 5.65998C4.30016 5.01931 5.1315 4.66665 6.00016 4.66665H11.3335V3.99998L11.3342 4.66665C11.3348 4.66665 11.3355 4.66665 11.3362 4.66665C11.8628 4.66665 12.3622 4.87598 12.7422 5.25731C13.1228 5.63798 13.3328 6.13865 13.3335 6.66798C13.3342 7.19398 13.1248 7.69398 12.7442 8.07465C12.3622 8.45598 11.8608 8.66598 11.3335 8.66665H6.00016C5.8295 8.66665 5.6635 8.59531 5.53483 8.46665C5.40483 8.33665 5.3335 8.17065 5.3335 7.99998C5.3335 7.83198 5.40683 7.66198 5.53416 7.53465C5.6635 7.40465 5.8295 7.33331 6.00016 7.33331H11.3335V5.99998H6.00016C5.4735 5.99998 4.97283 6.20998 4.59083 6.59265C4.2095 6.97398 4.00016 7.47398 4.00016 7.99998C4.00016 8.52598 4.2095 9.02665 4.59216 9.40931C4.9735 9.79065 5.47416 9.99998 6.00016 9.99998H11.3342C12.2168 9.99931 13.0522 9.65131 13.6862 9.01798C14.3202 8.38465 14.6682 7.54865 14.6668 6.66598C14.6662 5.78198 14.3175 4.94665 13.6855 4.31465C13.0535 3.68131 12.2188 3.33331 11.3362 3.33331Z" fill="#005EB8"/>
</svg>
