<svg width="14" height="11" viewBox="0 0 14 11" fill="none" xmlns="http://www.w3.org/2000/svg">
<path d="M10.0027 0.833252C10.0013 0.833252 10.0007 0.833252 10 0.833252H9.99933H4.66667C3.44133 0.833252 2.276 1.32459 1.384 2.21725C0.491333 3.10992 0 4.27525 0 5.49992C0 6.72525 0.491333 7.89058 1.384 8.78258C2.276 9.67525 3.44133 10.1666 4.66667 10.1666H10V8.83325H4.66667C3.798 8.83325 2.96667 8.48059 2.32667 7.83992C1.686 7.19992 1.33333 6.36859 1.33333 5.49992C1.33333 4.63192 1.686 3.80059 2.32667 3.15992C2.96667 2.51925 3.798 2.16659 4.66667 2.16659H10V1.49992L10.0007 2.16659C10.0013 2.16659 10.002 2.16659 10.0027 2.16659C10.5293 2.16659 11.0287 2.37592 11.4087 2.75725C11.7893 3.13792 11.9993 3.63859 12 4.16792C12.0007 4.69392 11.7913 5.19392 11.4107 5.57459C11.0287 5.95592 10.5273 6.16592 10 6.16658H4.66667C4.496 6.16658 4.33 6.09525 4.20133 5.96658C4.07133 5.83659 4 5.67059 4 5.49992C4 5.33192 4.07333 5.16192 4.20067 5.03458C4.33 4.90458 4.496 4.83325 4.66667 4.83325H10V3.49992H4.66667C4.14 3.49992 3.63933 3.70992 3.25733 4.09259C2.876 4.47392 2.66667 4.97392 2.66667 5.49992C2.66667 6.02592 2.876 6.52659 3.25867 6.90925C3.64 7.29059 4.14067 7.49992 4.66667 7.49992H10.0007C10.8833 7.49925 11.7187 7.15125 12.3527 6.51792C12.9867 5.88459 13.3347 5.04858 13.3333 4.16592C13.3327 3.28192 12.984 2.44659 12.352 1.81459C11.72 1.18125 10.8853 0.833252 10.0027 0.833252Z" fill="#66757E"/>
</svg>
