<svg width="16" height="16" viewBox="0 0 16 16" fill="none" xmlns="http://www.w3.org/2000/svg">
<path d="M14.5 4H11V2.5C11 1.67281 10.3272 1 9.5 1H6.5C5.67281 1 5 1.67281 5 2.5V4H1.5C0.671875 4 0 4.67188 0 5.5V13.5C0 14.3281 0.671875 15 1.5 15H14.5C15.3281 15 16 14.3281 16 13.5V5.5C16 4.67188 15.3281 4 14.5 4ZM6 2.5C6 2.22406 6.22469 2 6.5 2H9.5C9.77531 2 10 2.22406 10 2.5V4H6V2.5ZM3 14H1.5C1.225 14 1 13.775 1 13.5V5.5C1 5.225 1.225 5 1.5 5H3V14ZM12 14H4V5H12V14ZM15 13.5C15 13.775 14.775 14 14.5 14H13V5H14.5C14.775 5 15 5.225 15 5.5V13.5Z" fill="white"/>
</svg>
