<svg width="20" height="20" viewBox="0 0 20 20" fill="none" xmlns="http://www.w3.org/2000/svg">
<path d="M5.2381 12.381H2.85714C2.19966 12.381 1.66667 12.9139 1.66667 13.5714V17.1429C1.66667 17.8003 2.19966 18.3333 2.85714 18.3333H5.2381C5.89558 18.3333 6.42857 17.8003 6.42857 17.1429V13.5714C6.42857 12.9139 5.89558 12.381 5.2381 12.381Z" fill="#9AAEC0"/>
<path d="M11.1906 7.61905H8.80963C8.15215 7.61905 7.61915 8.15204 7.61915 8.80952V17.1429C7.61915 17.8003 8.15215 18.3333 8.80963 18.3333H11.1906C11.8481 18.3333 12.3811 17.8003 12.3811 17.1429V8.80952C12.3811 8.15204 11.8481 7.61905 11.1906 7.61905Z" fill="#9AAEC0"/>
<path d="M17.1428 1.66667H14.7619C14.1044 1.66667 13.5714 2.19966 13.5714 2.85714V17.1429C13.5714 17.8003 14.1044 18.3333 14.7619 18.3333H17.1428C17.8003 18.3333 18.3333 17.8003 18.3333 17.1429V2.85714C18.3333 2.19966 17.8003 1.66667 17.1428 1.66667Z" fill="#9AAEC0"/>
</svg>
