<svg width="20" height="20" viewBox="0 0 20 20" fill="none" xmlns="http://www.w3.org/2000/svg">
<path d="M5.23812 12.381H2.85716C2.19968 12.381 1.66669 12.9139 1.66669 13.5714V17.1429C1.66669 17.8003 2.19968 18.3333 2.85716 18.3333H5.23812C5.8956 18.3333 6.42859 17.8003 6.42859 17.1429V13.5714C6.42859 12.9139 5.8956 12.381 5.23812 12.381Z" fill="#66757E"/>
<path d="M11.1906 7.61905H8.80962C8.15213 7.61905 7.61914 8.15204 7.61914 8.80953V17.1429C7.61914 17.8003 8.15213 18.3333 8.80962 18.3333H11.1906C11.8481 18.3333 12.381 17.8003 12.381 17.1429V8.80953C12.381 8.15204 11.8481 7.61905 11.1906 7.61905Z" fill="#66757E"/>
<path d="M17.1428 1.66666H14.7619C14.1044 1.66666 13.5714 2.19965 13.5714 2.85713V17.1428C13.5714 17.8003 14.1044 18.3333 14.7619 18.3333H17.1428C17.8003 18.3333 18.3333 17.8003 18.3333 17.1428V2.85713C18.3333 2.19965 17.8003 1.66666 17.1428 1.66666Z" fill="#66757E"/>
</svg>
