<svg width="20" height="21" viewBox="0 0 20 21" fill="none" xmlns="http://www.w3.org/2000/svg">
<g clip-path="url(#clip0_12_2561)">
<path fill-rule="evenodd" clip-rule="evenodd" d="M17.5 1.67859H2.5C2.16848 1.67859 1.85054 1.81028 1.61612 2.04471C1.3817 2.27913 1.25 2.59707 1.25 2.92859V17.4111L3.75 14.9111C4.21873 14.4422 4.85451 14.1787 5.5175 14.1786H17.5C17.8315 14.1786 18.1495 14.0469 18.3839 13.8125C18.6183 13.5781 18.75 13.2601 18.75 12.9286V2.92859C18.75 2.59707 18.6183 2.27913 18.3839 2.04471C18.1495 1.81028 17.8315 1.67859 17.5 1.67859ZM2.5 0.428589C1.83696 0.428589 1.20107 0.691981 0.732233 1.16082C0.263392 1.62966 0 2.26555 0 2.92859L0 18.9198C2.62686e-05 19.0435 0.0367407 19.1644 0.105497 19.2672C0.174252 19.37 0.271959 19.4501 0.386249 19.4973C0.50054 19.5445 0.626276 19.5568 0.747545 19.5326C0.868814 19.5083 0.980163 19.4486 1.0675 19.3611L4.63375 15.7948C4.86812 15.5604 5.18601 15.4287 5.5175 15.4286H17.5C18.163 15.4286 18.7989 15.1652 19.2678 14.6964C19.7366 14.2275 20 13.5916 20 12.9286V2.92859C20 2.26555 19.7366 1.62966 19.2678 1.16082C18.7989 0.691981 18.163 0.428589 17.5 0.428589L2.5 0.428589Z" fill="#66757E"/>
<path d="M6.25 7.92859C6.25 8.26011 6.1183 8.57805 5.88388 8.81247C5.64946 9.04689 5.33152 9.17859 5 9.17859C4.66848 9.17859 4.35054 9.04689 4.11612 8.81247C3.8817 8.57805 3.75 8.26011 3.75 7.92859C3.75 7.59707 3.8817 7.27913 4.11612 7.04471C4.35054 6.81029 4.66848 6.67859 5 6.67859C5.33152 6.67859 5.64946 6.81029 5.88388 7.04471C6.1183 7.27913 6.25 7.59707 6.25 7.92859ZM11.25 7.92859C11.25 8.26011 11.1183 8.57805 10.8839 8.81247C10.6495 9.04689 10.3315 9.17859 10 9.17859C9.66848 9.17859 9.35054 9.04689 9.11612 8.81247C8.8817 8.57805 8.75 8.26011 8.75 7.92859C8.75 7.59707 8.8817 7.27913 9.11612 7.04471C9.35054 6.81029 9.66848 6.67859 10 6.67859C10.3315 6.67859 10.6495 6.81029 10.8839 7.04471C11.1183 7.27913 11.25 7.59707 11.25 7.92859ZM16.25 7.92859C16.25 8.26011 16.1183 8.57805 15.8839 8.81247C15.6495 9.04689 15.3315 9.17859 15 9.17859C14.6685 9.17859 14.3505 9.04689 14.1161 8.81247C13.8817 8.57805 13.75 8.26011 13.75 7.92859C13.75 7.59707 13.8817 7.27913 14.1161 7.04471C14.3505 6.81029 14.6685 6.67859 15 6.67859C15.3315 6.67859 15.6495 6.81029 15.8839 7.04471C16.1183 7.27913 16.25 7.59707 16.25 7.92859Z" fill="#66757E"/>
</g>
<defs>
<clipPath id="clip0_12_2561">
<rect width="20" height="20" fill="white" transform="translate(0 0.428589)"/>
</clipPath>
</defs>
</svg>
