<svg width="24" height="24" viewBox="0 0 24 24" fill="none" xmlns="http://www.w3.org/2000/svg">
<path d="M9.75 10.8889V17.5556M14.25 10.8889V17.5556M3 6.44444H21M19.875 6.44444L18.8996 19.9356C18.8592 20.4962 18.6052 21.0209 18.1888 21.404C17.7723 21.787 17.2243 22 16.6553 22H7.34475C6.77566 22 6.2277 21.787 5.81125 21.404C5.39479 21.0209 5.14078 20.4962 5.10038 19.9356L4.125 6.44444H19.875ZM15.375 6.44444V3.11111C15.375 2.81643 15.2565 2.53381 15.0455 2.32544C14.8345 2.11706 14.5484 2 14.25 2H9.75C9.45163 2 9.16548 2.11706 8.95451 2.32544C8.74353 2.53381 8.625 2.81643 8.625 3.11111V6.44444H15.375Z" stroke="#2C4F63" stroke-width="1.5" stroke-linecap="round" stroke-linejoin="round"/>
</svg>
