<svg width="7" height="15" viewBox="0 0 7 15" fill="none" xmlns="http://www.w3.org/2000/svg">
<g clip-path="url(#clip0_1650_7750)">
<path d="M5.24727 7.59023L2.01523 6.57578C1.34531 6.36523 0.875 5.66797 0.875 4.8832C0.875 3.9125 1.575 3.125 2.43359 3.125H4.45156C5.05859 3.125 5.63555 3.36016 6.09492 3.79492C6.17969 3.87422 6.3082 3.88242 6.3957 3.80313L6.72109 3.50781C6.81406 3.42305 6.81953 3.27813 6.73203 3.19062C6.10859 2.58906 5.29102 2.24727 4.4543 2.24727H3.9375V0.71875C3.9375 0.598437 3.83906 0.5 3.71875 0.5H3.28125C3.16094 0.5 3.0625 0.598437 3.0625 0.71875V2.25H2.43359C1.09102 2.25 0 3.43125 0 4.8832C0 6.04805 0.721875 7.08711 1.75273 7.40977L4.98477 8.42422C5.65742 8.63477 6.125 9.33203 6.125 10.1168C6.125 11.0848 5.425 11.875 4.56641 11.875H2.54844C1.94141 11.875 1.36445 11.6398 0.905078 11.2051C0.820312 11.1258 0.691797 11.1176 0.604297 11.1969L0.281641 11.4922C0.191406 11.5742 0.183203 11.7219 0.273438 11.8066C0.896875 12.4082 1.71445 12.75 2.55117 12.75H3.0625V14.2812C3.0625 14.4016 3.16094 14.5 3.28125 14.5H3.71875C3.83906 14.5 3.9375 14.4016 3.9375 14.2812V12.75H4.56641C5.90898 12.75 7 11.5688 7 10.1168C7 8.95469 6.27812 7.91562 5.24727 7.59023Z" fill="#2C4F63"/>
</g>
<defs>
<clipPath id="clip0_1650_7750">
<rect width="7" height="14" fill="white" transform="translate(0 0.5)"/>
</clipPath>
</defs>
</svg>
