<svg width="20" height="21" viewBox="0 0 20 21" fill="none" xmlns="http://www.w3.org/2000/svg">
<path d="M18.125 2.92859H1.875C0.839844 2.92859 0 3.76843 0 4.80359V16.0536C0 17.0887 0.839844 17.9286 1.875 17.9286H18.125C19.1602 17.9286 20 17.0887 20 16.0536V4.80359C20 3.76843 19.1602 2.92859 18.125 2.92859ZM1.875 4.17859H18.125C18.4688 4.17859 18.75 4.45984 18.75 4.80359V6.42078C17.8945 7.14343 16.6719 8.13953 12.8672 11.1591C12.207 11.6825 10.9062 12.9442 10 12.9286C9.09375 12.9442 7.78906 11.6825 7.13281 11.1591C3.32813 8.13953 2.10547 7.14343 1.25 6.42078V4.80359C1.25 4.45984 1.53125 4.17859 1.875 4.17859ZM18.125 16.6786H1.875C1.53125 16.6786 1.25 16.3973 1.25 16.0536V8.04578C2.14062 8.77625 3.54687 9.90515 6.35547 12.1356C7.15625 12.7762 8.57031 14.1864 10 14.1786C11.4219 14.1903 12.8242 12.7919 13.6445 12.1356C16.4531 9.90515 17.8594 8.77625 18.75 8.04578V16.0536C18.75 16.3973 18.4688 16.6786 18.125 16.6786Z" fill="#66757E"/>
</svg>
