<svg width="20" height="20" viewBox="0 0 20 20" fill="none" xmlns="http://www.w3.org/2000/svg">
<path d="M4.64286 2.5C3.45939 2.5 2.5 3.45939 2.5 4.64286V6.78571C2.5 7.96918 3.45939 8.92857 4.64286 8.92857H6.78571C7.96918 8.92857 8.92857 7.96918 8.92857 6.78571V4.64286C8.92857 3.45939 7.96918 2.5 6.78571 2.5H4.64286ZM4.64286 11.0714C3.45939 11.0714 2.5 12.0308 2.5 13.2143V15.3571C2.5 16.5406 3.45939 17.5 4.64286 17.5H6.78571C7.96918 17.5 8.92857 16.5406 8.92857 15.3571V13.2143C8.92857 12.0308 7.96918 11.0714 6.78571 11.0714H4.64286ZM11.0714 4.64286C11.0714 3.45939 12.0308 2.5 13.2143 2.5H15.3571C16.5406 2.5 17.5 3.45939 17.5 4.64286V6.78571C17.5 7.96918 16.5406 8.92857 15.3571 8.92857H13.2143C12.0308 8.92857 11.0714 7.96918 11.0714 6.78571V4.64286ZM11.0714 13.2143C11.0714 12.0308 12.0308 11.0714 13.2143 11.0714H15.3571C16.5406 11.0714 17.5 12.0308 17.5 13.2143V15.3571C17.5 16.5406 16.5406 17.5 15.3571 17.5H13.2143C12.0308 17.5 11.0714 16.5406 11.0714 15.3571V13.2143Z" fill="#66757E"/>
</svg>
