<svg width="20" height="20" viewBox="0 0 20 20" fill="none" xmlns="http://www.w3.org/2000/svg">
<rect width="20" height="20" fill="white"/>
<g clip-path="url(#clip0_208_4276)">
<path d="M19.0001 10.1427V12.3279C18.9887 12.3791 18.9759 12.43 18.9664 12.4812C18.8435 13.1524 18.2753 13.704 17.6092 13.7642C17.2429 13.7975 16.8723 13.8023 16.5045 13.7874C16.2989 13.7792 16.2186 13.8543 16.1434 14.0404C15.2918 16.1464 13.8792 17.7083 11.8068 18.6075C10.9368 18.985 10.0309 19.1124 9.09529 18.8915C7.71682 18.566 6.58435 17.811 5.60879 16.7926C4.818 15.967 4.22189 15.0106 3.82301 13.9294C3.78342 13.8221 3.72843 13.7881 3.61808 13.7907C3.30206 13.7986 2.98567 13.7963 2.66965 13.793C1.76851 13.7829 1.09871 13.201 1.03235 12.2894C0.981758 11.595 0.997889 10.8924 1.03052 10.1957C1.05325 9.7069 1.30731 9.3126 1.70985 9.0394C1.8246 8.96129 1.8565 8.88093 1.85906 8.75125C1.8752 7.87745 1.97125 7.01374 2.20918 6.17095C2.80676 4.05447 4.08368 2.54793 6.08612 1.69955C6.9297 1.34188 7.81324 1.15052 8.72207 1.06755C10.293 0.923664 11.8478 0.988321 13.3583 1.48876C15.481 2.19213 16.946 3.60113 17.6799 5.76993C18.0058 6.73306 18.1345 7.7287 18.1539 8.7419C18.1565 8.87794 18.2009 8.95568 18.3068 9.04725C18.4909 9.20646 18.6602 9.39482 18.7933 9.59963C18.896 9.7581 18.9337 9.96029 19.0005 10.143L19.0001 10.1427ZM7.48329 6.21842C7.46862 6.34549 7.46386 6.43332 7.44809 6.51891C7.37697 6.89825 7.34874 7.29367 7.22152 7.65245C6.75702 8.9639 5.90831 9.87508 4.52985 10.1883C4.44113 10.2085 4.40923 10.2477 4.4041 10.3423C4.359 11.1521 4.44003 11.9478 4.60427 12.7417C4.70289 13.2189 4.95328 13.5624 5.3375 13.8244C5.44931 13.9006 5.56223 13.9754 5.67845 14.0438C6.50039 14.5263 7.40776 14.681 8.33493 14.7557C8.38186 14.7595 8.44968 14.7266 8.47901 14.6877C9.03333 13.9563 10.4085 13.9167 11.0702 14.542C11.4885 14.937 11.4904 15.5204 11.06 15.9039C10.6347 16.2828 10.1258 16.386 9.58398 16.3224C9.12315 16.2683 8.71474 16.0922 8.43172 15.6863C8.40239 15.6445 8.3243 15.6243 8.26637 15.6191C7.49538 15.5492 6.73283 15.4382 6.00327 15.1568C5.88595 15.1115 5.77047 15.0622 5.63445 15.0073C5.65168 15.0491 5.65572 15.0667 5.66525 15.0801C6.38564 16.112 7.29705 16.9115 8.42292 17.4556C9.35705 17.9071 10.3055 18.0028 11.2744 17.5883C13.1493 16.7863 14.4372 15.3982 15.1741 13.4768C15.5843 12.4072 15.6599 11.2904 15.6089 10.1502C15.5924 9.78239 15.4513 9.5787 15.1697 9.39707C14.538 8.98932 13.8473 8.73966 13.1262 8.57073C12.7585 8.48477 12.3831 8.43133 11.9607 8.35396C12.188 8.67612 12.3651 8.95942 12.4351 9.30438C12.2368 9.20496 12.0652 9.09957 11.8805 9.03043C11.442 8.86636 10.9987 8.71425 10.5544 8.56737C9.60965 8.25492 8.7503 7.8027 8.09626 7.01523C7.89279 6.77006 7.70655 6.50994 7.48329 6.21805V6.21842ZM17.1806 8.73742C17.1909 8.72284 17.1971 8.71798 17.1967 8.7135C17.1901 8.58269 17.1828 8.45151 17.1758 8.3207C17.1219 7.3116 16.9258 6.33764 16.5075 5.41451C15.9037 4.08138 14.9149 3.16759 13.5936 2.61259C12.8197 2.28744 12.011 2.11028 11.1788 2.03628C9.55136 1.89202 7.95072 1.98433 6.41571 2.61483C5.45591 3.00913 4.64973 3.61496 4.04078 4.47642C3.39298 5.3932 3.05679 6.4322 2.91271 7.54108C2.86175 7.93463 2.83646 8.33154 2.79833 8.73704H3.41974C3.42707 8.70602 3.43367 8.68397 3.43734 8.66155C3.56748 7.86474 3.76766 7.08848 4.09907 6.35184C4.83927 4.70627 6.04433 3.60561 7.76228 3.10929C8.88265 2.78563 10.0239 2.74265 11.1725 2.88467C12.0696 2.99567 12.9224 3.25916 13.6992 3.74277C15.0209 4.56537 15.8073 5.79647 16.2542 7.27423C16.3982 7.75037 16.4932 8.24184 16.6131 8.73667H17.1802L17.1806 8.73742Z" fill="#8FA4B0"/>
<path d="M7.64717 11.8353C7.14198 11.8218 6.73321 11.3906 6.7464 10.8853C6.76034 10.3617 7.18121 9.95129 7.69337 9.96212C8.19343 9.97259 8.60697 10.4102 8.59377 10.9144C8.57984 11.4399 8.15933 11.8488 7.64717 11.8349V11.8353Z" fill="#8FA4B0"/>
<path d="M12.3454 11.8365C11.8344 11.8383 11.4135 11.41 11.419 10.8939C11.4245 10.3811 11.8373 9.96292 12.3396 9.96143C12.8484 9.95993 13.2719 10.3912 13.2667 10.9059C13.2616 11.4186 12.8499 11.8346 12.3454 11.8365Z" fill="#8FA4B0"/>
</g>
<defs>
<clipPath id="clip0_208_4276">
<rect width="18" height="18" fill="white" transform="translate(1 1)"/>
</clipPath>
</defs>
</svg>
