<svg width="16" height="16" viewBox="0 0 16 16" fill="none" xmlns="http://www.w3.org/2000/svg">
<path d="M13.7858 4.04754H10.6191V2.69039C10.6191 1.94199 10.0104 1.33325 9.26199 1.33325H6.5477C5.79929 1.33325 5.19056 1.94199 5.19056 2.69039V4.04754H2.02389C1.27463 4.04754 0.666748 4.65542 0.666748 5.40468V12.6428C0.666748 13.392 1.27463 13.9999 2.02389 13.9999H13.7858C14.5351 13.9999 15.1429 13.392 15.1429 12.6428V5.40468C15.1429 4.65542 14.5351 4.04754 13.7858 4.04754ZM6.09532 2.69039C6.09532 2.44074 6.29861 2.23801 6.5477 2.23801H9.26199C9.51108 2.23801 9.71437 2.44074 9.71437 2.69039V4.04754H6.09532V2.69039ZM3.38103 13.0952H2.02389C1.77508 13.0952 1.57151 12.8916 1.57151 12.6428V5.40468C1.57151 5.15587 1.77508 4.9523 2.02389 4.9523H3.38103V13.0952ZM11.5239 13.0952H4.2858V4.9523H11.5239V13.0952ZM14.2382 12.6428C14.2382 12.8916 14.0346 13.0952 13.7858 13.0952H12.4287V4.9523H13.7858C14.0346 4.9523 14.2382 5.15587 14.2382 5.40468V12.6428Z" fill="white"/>
</svg>
