<svg width="16" height="16" viewBox="0 0 16 16" fill="none" xmlns="http://www.w3.org/2000/svg">
<path d="M13.7857 4.0476H10.6191V2.69046C10.6191 1.94205 10.0103 1.33331 9.26191 1.33331H6.54762C5.79922 1.33331 5.19048 1.94205 5.19048 2.69046V4.0476H2.02381C1.27456 4.0476 0.666672 4.65549 0.666672 5.40474V12.6428C0.666672 13.3921 1.27456 14 2.02381 14H13.7857C14.535 14 15.1429 13.3921 15.1429 12.6428V5.40474C15.1429 4.65549 14.535 4.0476 13.7857 4.0476ZM6.09524 2.69046C6.09524 2.4408 6.29853 2.23807 6.54762 2.23807H9.26191C9.511 2.23807 9.71429 2.4408 9.71429 2.69046V4.0476H6.09524V2.69046ZM3.38096 13.0952H2.02381C1.775 13.0952 1.57143 12.8916 1.57143 12.6428V5.40474C1.57143 5.15593 1.775 4.95236 2.02381 4.95236H3.38096V13.0952ZM11.5238 13.0952H4.28572V4.95236H11.5238V13.0952ZM14.2381 12.6428C14.2381 12.8916 14.0345 13.0952 13.7857 13.0952H12.4286V4.95236H13.7857C14.0345 4.95236 14.2381 5.15593 14.2381 5.40474V12.6428Z" fill="#005EB8"/>
</svg>
