<svg width="16" height="16" viewBox="0 0 16 16" fill="none" xmlns="http://www.w3.org/2000/svg">
<g clip-path="url(#clip0_919_5988)">
<path fill-rule="evenodd" clip-rule="evenodd" d="M14 1H2C1.73478 1 1.48043 1.10536 1.29289 1.29289C1.10536 1.48043 1 1.73478 1 2V14C1 14.2652 1.10536 14.5196 1.29289 14.7071C1.48043 14.8946 1.73478 15 2 15H14C14.2652 15 14.5196 14.8946 14.7071 14.7071C14.8946 14.5196 15 14.2652 15 14V2C15 1.73478 14.8946 1.48043 14.7071 1.29289C14.5196 1.10536 14.2652 1 14 1ZM2 0C1.46957 0 0.960859 0.210714 0.585786 0.585786C0.210714 0.960859 0 1.46957 0 2L0 14C0 14.5304 0.210714 15.0391 0.585786 15.4142C0.960859 15.7893 1.46957 16 2 16H14C14.5304 16 15.0391 15.7893 15.4142 15.4142C15.7893 15.0391 16 14.5304 16 14V2C16 1.46957 15.7893 0.960859 15.4142 0.585786C15.0391 0.210714 14.5304 0 14 0L2 0Z" fill="#005EB8"/>
<path fill-rule="evenodd" clip-rule="evenodd" d="M10.4999 5H6.4999C6.36729 5 6.24011 5.05268 6.14635 5.14645C6.05258 5.24021 5.9999 5.36739 5.9999 5.5C5.9999 5.63261 6.05258 5.75979 6.14635 5.85355C6.24011 5.94732 6.36729 6 6.4999 6H9.2929L5.1459 10.146C5.05201 10.2399 4.99927 10.3672 4.99927 10.5C4.99927 10.6328 5.05201 10.7601 5.1459 10.854C5.23979 10.9479 5.36712 11.0006 5.4999 11.0006C5.63268 11.0006 5.76001 10.9479 5.8539 10.854L9.9999 6.707V9.5C9.9999 9.63261 10.0526 9.75979 10.1463 9.85355C10.2401 9.94732 10.3673 10 10.4999 10C10.6325 10 10.7597 9.94732 10.8535 9.85355C10.9472 9.75979 10.9999 9.63261 10.9999 9.5V5.5C10.9999 5.36739 10.9472 5.24021 10.8535 5.14645C10.7597 5.05268 10.6325 5 10.4999 5Z" fill="#005EB8"/>
</g>
<defs>
<clipPath id="clip0_919_5988">
<rect width="16" height="16" fill="white"/>
</clipPath>
</defs>
</svg>
