<svg width="244" height="174" viewBox="0 0 244 174" fill="none" xmlns="http://www.w3.org/2000/svg">
<path d="M14.1715 166.999V145.181H22.3533C24.0295 145.181 25.4357 145.493 26.5721 146.118C27.7155 146.743 28.5785 147.603 29.1609 148.697C29.7503 149.783 30.0451 151.019 30.0451 152.404C30.0451 153.803 29.7503 155.046 29.1609 156.133C28.5714 157.219 27.7013 158.075 26.5508 158.7C25.4002 159.318 23.9833 159.627 22.3001 159.627H16.8775V156.378H21.7674C22.7475 156.378 23.5501 156.207 24.1751 155.866C24.8001 155.525 25.2617 155.057 25.56 154.46C25.8654 153.863 26.0181 153.178 26.0181 152.404C26.0181 151.63 25.8654 150.948 25.56 150.358C25.2617 149.769 24.7965 149.311 24.1644 148.984C23.5394 148.65 22.7333 148.483 21.7461 148.483H18.1239V166.999H14.1715Z" fill="#66757E"/>
<path d="M37.7235 167.329C36.6866 167.329 35.7527 167.145 34.9217 166.775C34.0978 166.399 33.4444 165.845 32.9615 165.113C32.4856 164.382 32.2477 163.48 32.2477 162.407C32.2477 161.484 32.4181 160.721 32.759 160.117C33.1 159.513 33.5652 159.03 34.1546 158.668C34.7441 158.306 35.4082 158.032 36.1468 157.848C36.8926 157.656 37.6632 157.518 38.4586 157.432C39.4174 157.333 40.1951 157.244 40.7917 157.166C41.3883 157.081 41.8215 156.953 42.0914 156.782C42.3684 156.605 42.5069 156.331 42.5069 155.962V155.898C42.5069 155.096 42.269 154.474 41.7931 154.034C41.3173 153.594 40.6319 153.373 39.737 153.373C38.7924 153.373 38.0431 153.579 37.4892 153.991C36.9423 154.403 36.573 154.89 36.3812 155.451L32.7804 154.939C33.0644 153.945 33.5332 153.114 34.1866 152.447C34.84 151.772 35.639 151.268 36.5836 150.934C37.5282 150.593 38.5723 150.422 39.7157 150.422C40.5041 150.422 41.2889 150.515 42.0701 150.699C42.8514 150.884 43.5652 151.189 44.2115 151.616C44.8578 152.035 45.3762 152.606 45.7669 153.331C46.1646 154.055 46.3634 154.961 46.3634 156.047V166.999H42.6561V164.751H42.5282C42.2938 165.206 41.9636 165.632 41.5375 166.03C41.1184 166.42 40.5893 166.736 39.9501 166.978C39.318 167.212 38.5758 167.329 37.7235 167.329ZM38.725 164.496C39.4991 164.496 40.1703 164.343 40.7384 164.037C41.3066 163.725 41.7434 163.313 42.0488 162.802C42.3613 162.29 42.5176 161.733 42.5176 161.129V159.201C42.3968 159.3 42.1909 159.393 41.8997 159.478C41.6156 159.563 41.296 159.638 40.9409 159.702C40.5857 159.765 40.2342 159.822 39.8862 159.872C39.5382 159.922 39.2363 159.964 38.9806 160C38.4054 160.078 37.8904 160.206 37.4359 160.383C36.9813 160.561 36.6227 160.809 36.3599 161.129C36.0971 161.442 35.9657 161.846 35.9657 162.344C35.9657 163.054 36.225 163.59 36.7434 163.952C37.2619 164.314 37.9224 164.496 38.725 164.496Z" fill="#66757E"/>
<path d="M57.3578 173.476C55.9728 173.476 54.7832 173.288 53.7889 172.912C52.7946 172.542 51.9956 172.045 51.3919 171.42C50.7882 170.795 50.3691 170.103 50.1348 169.343L53.6078 168.501C53.764 168.821 53.9913 169.137 54.2896 169.449C54.5879 169.769 54.9892 170.032 55.4934 170.238C56.0048 170.451 56.6475 170.557 57.4217 170.557C58.5154 170.557 59.421 170.291 60.1383 169.758C60.8556 169.233 61.2143 168.366 61.2143 167.159V164.059H61.0225C60.8237 164.457 60.5325 164.865 60.149 165.284C59.7725 165.703 59.2718 166.055 58.6468 166.339C58.0289 166.623 57.2512 166.765 56.3137 166.765C55.0566 166.765 53.9167 166.47 52.894 165.881C51.8784 165.284 51.0687 164.396 50.465 163.217C49.8684 162.031 49.5701 160.547 49.5701 158.764C49.5701 156.967 49.8684 155.451 50.465 154.215C51.0687 152.972 51.8819 152.031 52.9046 151.392C53.9274 150.746 55.0673 150.422 56.3244 150.422C57.2832 150.422 58.0715 150.586 58.6894 150.912C59.3144 151.232 59.8116 151.619 60.1809 152.074C60.5502 152.521 60.8308 152.944 61.0225 153.341H61.2356V150.635H65.0389V167.265C65.0389 168.665 64.7051 169.822 64.0375 170.738C63.3698 171.655 62.4572 172.34 61.2995 172.795C60.1419 173.249 58.8279 173.476 57.3578 173.476ZM57.3897 163.739C58.2065 163.739 58.9025 163.54 59.4778 163.143C60.0531 162.745 60.4899 162.173 60.7882 161.427C61.0865 160.682 61.2356 159.787 61.2356 158.743C61.2356 157.713 61.0865 156.811 60.7882 156.037C60.497 155.263 60.0637 154.662 59.4884 154.236C58.9203 153.803 58.2207 153.586 57.3897 153.586C56.5304 153.586 55.813 153.81 55.2377 154.258C54.6625 154.705 54.2292 155.319 53.938 156.101C53.6468 156.875 53.5012 157.756 53.5012 158.743C53.5012 159.744 53.6468 160.621 53.938 161.374C54.2363 162.12 54.6731 162.702 55.2484 163.121C55.8308 163.533 56.5446 163.739 57.3897 163.739Z" fill="#66757E"/>
<path d="M76.2356 167.319C74.595 167.319 73.1781 166.978 71.9849 166.296C70.7988 165.607 69.8862 164.634 69.247 163.377C68.6078 162.113 68.2882 160.625 68.2882 158.913C68.2882 157.23 68.6078 155.753 69.247 154.481C69.8933 153.203 70.7953 152.209 71.9529 151.498C73.1106 150.781 74.4707 150.422 76.0332 150.422C77.0417 150.422 77.9934 150.586 78.8883 150.912C79.7903 151.232 80.5858 151.729 81.2747 152.404C81.9707 153.079 82.5176 153.938 82.9153 154.982C83.313 156.019 83.5119 157.255 83.5119 158.689V159.872H70.0992V157.273H79.8152C79.8081 156.534 79.6482 155.877 79.3357 155.302C79.0232 154.719 78.5865 154.261 78.0254 153.927C77.4714 153.594 76.8251 153.427 76.0865 153.427C75.2981 153.427 74.6056 153.618 74.009 154.002C73.4125 154.378 72.9473 154.876 72.6134 155.493C72.2867 156.104 72.1198 156.775 72.1127 157.507V159.776C72.1127 160.728 72.2867 161.545 72.6348 162.226C72.9828 162.901 73.4693 163.42 74.0943 163.782C74.7193 164.137 75.4508 164.314 76.2889 164.314C76.85 164.314 77.3578 164.236 77.8123 164.08C78.2669 163.917 78.661 163.679 78.9948 163.366C79.3286 163.054 79.5808 162.667 79.7512 162.205L83.3521 162.61C83.1248 163.562 82.6916 164.393 82.0524 165.103C81.4203 165.806 80.6106 166.353 79.6234 166.743C78.6362 167.127 77.5069 167.319 76.2356 167.319Z" fill="#66757E"/>
<path d="M98.0724 157.411V166.999H94.2159V150.635H97.902V153.416H98.0937C98.4702 152.5 99.0703 151.772 99.8942 151.232C100.725 150.692 101.751 150.422 102.973 150.422C104.102 150.422 105.086 150.664 105.924 151.147C106.769 151.63 107.423 152.329 107.884 153.246C108.353 154.162 108.584 155.273 108.577 156.58V166.999H104.72V157.177C104.72 156.083 104.436 155.227 103.868 154.609C103.307 153.991 102.529 153.682 101.535 153.682C100.86 153.682 100.26 153.831 99.7344 154.13C99.2159 154.421 98.8075 154.844 98.5092 155.398C98.218 155.952 98.0724 156.623 98.0724 157.411Z" fill="#66757E"/>
<path d="M119.635 167.319C118.037 167.319 116.652 166.967 115.48 166.264C114.308 165.561 113.399 164.577 112.753 163.313C112.114 162.049 111.794 160.572 111.794 158.881C111.794 157.191 112.114 155.71 112.753 154.439C113.399 153.167 114.308 152.18 115.48 151.477C116.652 150.774 118.037 150.422 119.635 150.422C121.233 150.422 122.618 150.774 123.79 151.477C124.962 152.18 125.867 153.167 126.506 154.439C127.153 155.71 127.476 157.191 127.476 158.881C127.476 160.572 127.153 162.049 126.506 163.313C125.867 164.577 124.962 165.561 123.79 166.264C122.618 166.967 121.233 167.319 119.635 167.319ZM119.656 164.229C120.523 164.229 121.247 163.991 121.83 163.515C122.412 163.032 122.845 162.386 123.129 161.577C123.42 160.767 123.566 159.865 123.566 158.871C123.566 157.869 123.42 156.964 123.129 156.154C122.845 155.337 122.412 154.687 121.83 154.204C121.247 153.721 120.523 153.48 119.656 153.48C118.768 153.48 118.03 153.721 117.44 154.204C116.858 154.687 116.421 155.337 116.13 156.154C115.846 156.964 115.704 157.869 115.704 158.871C115.704 159.865 115.846 160.767 116.13 161.577C116.421 162.386 116.858 163.032 117.44 163.515C118.03 163.991 118.768 164.229 119.656 164.229Z" fill="#66757E"/>
<path d="M138.92 150.635V153.618H129.513V150.635H138.92ZM131.836 146.715H135.692V162.077C135.692 162.596 135.77 162.993 135.927 163.27C136.09 163.54 136.303 163.725 136.566 163.824C136.829 163.924 137.12 163.974 137.439 163.974C137.681 163.974 137.901 163.956 138.1 163.92C138.306 163.885 138.462 163.853 138.569 163.824L139.219 166.839C139.013 166.91 138.718 166.988 138.334 167.074C137.958 167.159 137.496 167.209 136.949 167.223C135.983 167.251 135.113 167.106 134.339 166.786C133.565 166.459 132.951 165.955 132.496 165.273C132.049 164.591 131.829 163.739 131.836 162.716V146.715Z" fill="#66757E"/>
<path d="M157.875 150.635V153.618H148.202V150.635H157.875ZM150.62 166.999V149.091C150.62 147.99 150.848 147.074 151.302 146.342C151.764 145.611 152.382 145.064 153.156 144.702C153.93 144.339 154.789 144.158 155.734 144.158C156.402 144.158 156.995 144.211 157.513 144.318C158.032 144.425 158.415 144.52 158.664 144.606L157.897 147.589C157.733 147.539 157.527 147.489 157.279 147.439C157.03 147.383 156.753 147.354 156.448 147.354C155.73 147.354 155.223 147.528 154.924 147.876C154.633 148.217 154.488 148.707 154.488 149.346V166.999H150.62Z" fill="#66757E"/>
<path d="M167.418 167.319C165.82 167.319 164.435 166.967 163.263 166.264C162.091 165.561 161.182 164.577 160.536 163.313C159.897 162.049 159.577 160.572 159.577 158.881C159.577 157.191 159.897 155.71 160.536 154.439C161.182 153.167 162.091 152.18 163.263 151.477C164.435 150.774 165.82 150.422 167.418 150.422C169.016 150.422 170.401 150.774 171.573 151.477C172.745 152.18 173.65 153.167 174.29 154.439C174.936 155.71 175.259 157.191 175.259 158.881C175.259 160.572 174.936 162.049 174.29 163.313C173.65 164.577 172.745 165.561 171.573 166.264C170.401 166.967 169.016 167.319 167.418 167.319ZM167.439 164.229C168.306 164.229 169.03 163.991 169.613 163.515C170.195 163.032 170.628 162.386 170.912 161.577C171.204 160.767 171.349 159.865 171.349 158.871C171.349 157.869 171.204 156.964 170.912 156.154C170.628 155.337 170.195 154.687 169.613 154.204C169.03 153.721 168.306 153.48 167.439 153.48C166.552 153.48 165.813 153.721 165.224 154.204C164.641 154.687 164.204 155.337 163.913 156.154C163.629 156.964 163.487 157.869 163.487 158.871C163.487 159.865 163.629 160.767 163.913 161.577C164.204 162.386 164.641 163.032 165.224 163.515C165.813 163.991 166.552 164.229 167.439 164.229Z" fill="#66757E"/>
<path d="M188.962 160.117V150.635H192.819V166.999H189.079V164.091H188.909C188.539 165.007 187.932 165.756 187.087 166.339C186.249 166.921 185.216 167.212 183.987 167.212C182.914 167.212 181.966 166.974 181.142 166.498C180.326 166.015 179.686 165.316 179.225 164.4C178.763 163.476 178.532 162.361 178.532 161.055V150.635H182.389V160.458C182.389 161.495 182.673 162.319 183.241 162.93C183.809 163.54 184.555 163.846 185.478 163.846C186.047 163.846 186.597 163.707 187.13 163.43C187.662 163.153 188.099 162.741 188.44 162.194C188.788 161.64 188.962 160.948 188.962 160.117Z" fill="#66757E"/>
<path d="M200.641 157.411V166.999H196.784V150.635H200.47V153.416H200.662C201.039 152.5 201.639 151.772 202.463 151.232C203.293 150.692 204.32 150.422 205.541 150.422C206.671 150.422 207.654 150.664 208.492 151.147C209.338 151.63 209.991 152.329 210.453 153.246C210.921 154.162 211.152 155.273 211.145 156.58V166.999H207.289V157.177C207.289 156.083 207.004 155.227 206.436 154.609C205.875 153.991 205.097 153.682 204.103 153.682C203.428 153.682 202.828 153.831 202.303 154.13C201.784 154.421 201.376 154.844 201.078 155.398C200.786 155.952 200.641 156.623 200.641 157.411Z" fill="#66757E"/>
<path d="M221.138 167.287C219.852 167.287 218.702 166.956 217.686 166.296C216.671 165.635 215.868 164.677 215.279 163.42C214.689 162.162 214.394 160.635 214.394 158.839C214.394 157.02 214.693 155.486 215.289 154.236C215.893 152.979 216.706 152.031 217.729 151.392C218.752 150.746 219.892 150.422 221.149 150.422C222.107 150.422 222.896 150.586 223.514 150.912C224.132 151.232 224.622 151.619 224.984 152.074C225.346 152.521 225.627 152.944 225.825 153.341H225.985V145.181H229.852V166.999H226.06V164.421H225.825C225.627 164.819 225.339 165.241 224.963 165.689C224.586 166.129 224.089 166.506 223.471 166.818C222.853 167.131 222.075 167.287 221.138 167.287ZM222.214 164.123C223.031 164.123 223.727 163.903 224.302 163.462C224.877 163.015 225.314 162.393 225.612 161.598C225.911 160.802 226.06 159.876 226.06 158.817C226.06 157.759 225.911 156.839 225.612 156.058C225.321 155.277 224.888 154.67 224.313 154.236C223.744 153.803 223.045 153.586 222.214 153.586C221.355 153.586 220.637 153.81 220.062 154.258C219.487 154.705 219.053 155.323 218.762 156.111C218.471 156.9 218.325 157.802 218.325 158.817C218.325 159.84 218.471 160.753 218.762 161.555C219.061 162.351 219.497 162.979 220.073 163.441C220.655 163.895 221.369 164.123 222.214 164.123Z" fill="#66757E"/>
<path d="M0.653381 77.7276V64.3185L40.1534 1.90945H51.3352V21.0004H44.517L17.9261 63.1367V63.864H73.0625V77.7276H0.653381ZM45.0625 95.0004V73.6367L45.2443 67.6367V1.90945H61.1534V95.0004H45.0625Z" fill="#66757E"/>
<path d="M121.994 96.7731C114.509 96.7731 108.085 94.8791 102.722 91.0913C97.3882 87.2731 93.2822 81.7731 90.4034 74.5913C87.5549 67.3791 86.1307 58.6973 86.1307 48.5458C86.161 38.3943 87.6004 29.7579 90.4488 22.6367C93.3276 15.4852 97.4337 10.0307 102.767 6.27309C108.131 2.51551 114.54 0.636719 121.994 0.636719C129.449 0.636719 135.858 2.51551 141.222 6.27309C146.585 10.0307 150.691 15.4852 153.54 22.6367C156.419 29.7882 157.858 38.4246 157.858 48.5458C157.858 58.7276 156.419 67.4246 153.54 74.6367C150.691 81.8185 146.585 87.3034 141.222 91.0913C135.888 94.8791 129.479 96.7731 121.994 96.7731ZM121.994 82.5458C127.812 82.5458 132.403 79.6822 135.767 73.9549C139.161 68.1973 140.858 59.7276 140.858 48.5458C140.858 41.1519 140.085 34.9398 138.54 29.9094C136.994 24.8791 134.812 21.0913 131.994 18.5458C129.176 15.9701 125.843 14.6822 121.994 14.6822C116.206 14.6822 111.631 17.561 108.267 23.3185C104.903 29.0458 103.206 37.4549 103.176 48.5458C103.146 55.9701 103.888 62.2125 105.403 67.2731C106.949 72.3337 109.131 76.1519 111.949 78.7276C114.767 81.2731 118.116 82.5458 121.994 82.5458Z" fill="#66757E"/>
<path d="M171.278 77.7276V64.3185L210.778 1.90945H221.96V21.0004H215.142L188.551 63.1367V63.864H243.687V77.7276H171.278ZM215.687 95.0004V73.6367L215.869 67.6367V1.90945H231.778V95.0004H215.687Z" fill="#66757E"/>
</svg>
