<svg width="241" height="168" viewBox="0 0 241 168" fill="none" xmlns="http://www.w3.org/2000/svg">
<path d="M49.6022 167V145.182H63.5794V148.495H53.5546V154.418H62.6206V157.731H53.5546V167H49.6022Z" fill="#66757E"/>
<path d="M72.9465 167.319C71.3484 167.319 69.9635 166.968 68.7916 166.265C67.6198 165.562 66.7107 164.578 66.0644 163.314C65.4251 162.05 65.1055 160.572 65.1055 158.882C65.1055 157.192 65.4251 155.711 66.0644 154.439C66.7107 153.168 67.6198 152.181 68.7916 151.478C69.9635 150.775 71.3484 150.423 72.9465 150.423C74.5445 150.423 75.9294 150.775 77.1013 151.478C78.2732 152.181 79.1787 153.168 79.8179 154.439C80.4642 155.711 80.7874 157.192 80.7874 158.882C80.7874 160.572 80.4642 162.05 79.8179 163.314C79.1787 164.578 78.2732 165.562 77.1013 166.265C75.9294 166.968 74.5445 167.319 72.9465 167.319ZM72.9678 164.23C73.8342 164.23 74.5587 163.992 75.1411 163.516C75.7234 163.033 76.1567 162.387 76.4408 161.577C76.732 160.768 76.8776 159.866 76.8776 158.871C76.8776 157.87 76.732 156.964 76.4408 156.155C76.1567 155.338 75.7234 154.688 75.1411 154.205C74.5587 153.722 73.8342 153.481 72.9678 153.481C72.08 153.481 71.3413 153.722 70.7519 154.205C70.1695 154.688 69.7327 155.338 69.4415 156.155C69.1574 156.964 69.0153 157.87 69.0153 158.871C69.0153 159.866 69.1574 160.768 69.4415 161.577C69.7327 162.387 70.1695 163.033 70.7519 163.516C71.3413 163.992 72.08 164.23 72.9678 164.23Z" fill="#66757E"/>
<path d="M84.0606 167V150.636H87.8V153.363H87.9704C88.2687 152.419 88.7801 151.691 89.5045 151.18C90.2361 150.661 91.0706 150.402 92.0081 150.402C92.2211 150.402 92.4591 150.412 92.7218 150.434C92.9917 150.448 93.2155 150.473 93.393 150.508V154.056C93.2297 153.999 92.9704 153.949 92.6153 153.907C92.2673 153.857 91.9299 153.832 91.6032 153.832C90.9001 153.832 90.268 153.985 89.7069 154.29C89.153 154.589 88.7162 155.004 88.3966 155.537C88.077 156.069 87.9172 156.684 87.9172 157.38V167H84.0606Z" fill="#66757E"/>
<path d="M96.1256 167V145.182H99.9821V153.342H100.142C100.341 152.944 100.621 152.522 100.984 152.074C101.346 151.62 101.836 151.233 102.454 150.913C103.072 150.586 103.86 150.423 104.819 150.423C106.083 150.423 107.223 150.746 108.239 151.393C109.261 152.032 110.071 152.98 110.668 154.237C111.271 155.487 111.573 157.021 111.573 158.839C111.573 160.636 111.278 162.163 110.689 163.42C110.099 164.677 109.297 165.636 108.281 166.297C107.266 166.957 106.115 167.287 104.829 167.287C103.892 167.287 103.114 167.131 102.496 166.819C101.878 166.506 101.381 166.13 101.005 165.689C100.636 165.242 100.348 164.819 100.142 164.422H99.9182V167H96.1256ZM99.9076 158.818C99.9076 159.876 100.057 160.803 100.355 161.599C100.66 162.394 101.097 163.015 101.665 163.463C102.241 163.903 102.937 164.123 103.753 164.123C104.606 164.123 105.32 163.896 105.895 163.442C106.47 162.98 106.903 162.351 107.195 161.556C107.493 160.753 107.642 159.841 107.642 158.818C107.642 157.802 107.496 156.9 107.205 156.112C106.914 155.324 106.481 154.706 105.905 154.258C105.33 153.811 104.613 153.587 103.753 153.587C102.93 153.587 102.23 153.804 101.655 154.237C101.079 154.67 100.643 155.278 100.344 156.059C100.053 156.84 99.9076 157.76 99.9076 158.818Z" fill="#66757E"/>
<path d="M114.852 167V150.636H118.708V167H114.852ZM116.791 148.314C116.18 148.314 115.654 148.111 115.214 147.706C114.774 147.295 114.553 146.801 114.553 146.226C114.553 145.643 114.774 145.15 115.214 144.745C115.654 144.333 116.18 144.127 116.791 144.127C117.408 144.127 117.934 144.333 118.367 144.745C118.808 145.15 119.028 145.643 119.028 146.226C119.028 146.801 118.808 147.295 118.367 147.706C117.934 148.111 117.408 148.314 116.791 148.314Z" fill="#66757E"/>
<path d="M128.746 167.287C127.461 167.287 126.31 166.957 125.295 166.297C124.279 165.636 123.476 164.677 122.887 163.42C122.297 162.163 122.003 160.636 122.003 158.839C122.003 157.021 122.301 155.487 122.898 154.237C123.501 152.98 124.315 152.032 125.337 151.393C126.36 150.746 127.5 150.423 128.757 150.423C129.716 150.423 130.504 150.586 131.122 150.913C131.74 151.233 132.23 151.62 132.592 152.074C132.954 152.522 133.235 152.944 133.434 153.342H133.594V145.182H137.461V167H133.668V164.422H133.434C133.235 164.819 132.947 165.242 132.571 165.689C132.195 166.13 131.697 166.506 131.079 166.819C130.462 167.131 129.684 167.287 128.746 167.287ZM129.822 164.123C130.639 164.123 131.335 163.903 131.91 163.463C132.486 163.015 132.922 162.394 133.221 161.599C133.519 160.803 133.668 159.876 133.668 158.818C133.668 157.76 133.519 156.84 133.221 156.059C132.93 155.278 132.496 154.67 131.921 154.237C131.353 153.804 130.653 153.587 129.822 153.587C128.963 153.587 128.246 153.811 127.67 154.258C127.095 154.706 126.662 155.324 126.371 156.112C126.079 156.9 125.934 157.802 125.934 158.818C125.934 159.841 126.079 160.753 126.371 161.556C126.669 162.351 127.106 162.98 127.681 163.442C128.263 163.896 128.977 164.123 129.822 164.123Z" fill="#66757E"/>
<path d="M147.643 167.287C146.357 167.287 145.207 166.957 144.191 166.297C143.176 165.636 142.373 164.677 141.783 163.42C141.194 162.163 140.899 160.636 140.899 158.839C140.899 157.021 141.198 155.487 141.794 154.237C142.398 152.98 143.211 152.032 144.234 151.393C145.256 150.746 146.396 150.423 147.653 150.423C148.612 150.423 149.401 150.586 150.019 150.913C150.636 151.233 151.127 151.62 151.489 152.074C151.851 152.522 152.131 152.944 152.33 153.342H152.49V145.182H156.357V167H152.565V164.422H152.33C152.131 164.819 151.844 165.242 151.467 165.689C151.091 166.13 150.594 166.506 149.976 166.819C149.358 167.131 148.58 167.287 147.643 167.287ZM148.719 164.123C149.536 164.123 150.232 163.903 150.807 163.463C151.382 163.015 151.819 162.394 152.117 161.599C152.416 160.803 152.565 159.876 152.565 158.818C152.565 157.76 152.416 156.84 152.117 156.059C151.826 155.278 151.393 154.67 150.818 154.237C150.249 153.804 149.55 153.587 148.719 153.587C147.859 153.587 147.142 153.811 146.567 154.258C145.992 154.706 145.558 155.324 145.267 156.112C144.976 156.9 144.83 157.802 144.83 158.818C144.83 159.841 144.976 160.753 145.267 161.556C145.565 162.351 146.002 162.98 146.577 163.442C147.16 163.896 147.874 164.123 148.719 164.123Z" fill="#66757E"/>
<path d="M167.711 167.319C166.071 167.319 164.654 166.979 163.46 166.297C162.274 165.608 161.362 164.635 160.723 163.378C160.083 162.113 159.764 160.626 159.764 158.914C159.764 157.231 160.083 155.753 160.723 154.482C161.369 153.204 162.271 152.209 163.429 151.499C164.586 150.782 165.946 150.423 167.509 150.423C168.517 150.423 169.469 150.586 170.364 150.913C171.266 151.233 172.061 151.73 172.75 152.405C173.446 153.079 173.993 153.939 174.391 154.983C174.789 156.02 174.987 157.256 174.987 158.69V159.873H161.575V157.273H171.291C171.284 156.535 171.124 155.878 170.811 155.302C170.499 154.72 170.062 154.262 169.501 153.928C168.947 153.594 168.301 153.427 167.562 153.427C166.774 153.427 166.081 153.619 165.485 154.003C164.888 154.379 164.423 154.876 164.089 155.494C163.762 156.105 163.595 156.776 163.588 157.508V159.777C163.588 160.729 163.762 161.545 164.11 162.227C164.458 162.902 164.945 163.42 165.57 163.782C166.195 164.138 166.926 164.315 167.764 164.315C168.326 164.315 168.833 164.237 169.288 164.081C169.742 163.917 170.137 163.68 170.47 163.367C170.804 163.055 171.056 162.667 171.227 162.206L174.828 162.611C174.6 163.562 174.167 164.393 173.528 165.104C172.896 165.807 172.086 166.354 171.099 166.744C170.112 167.128 168.982 167.319 167.711 167.319Z" fill="#66757E"/>
<path d="M182.107 157.412V167H178.25V150.636H181.936V153.417H182.128C182.504 152.501 183.104 151.773 183.928 151.233C184.759 150.693 185.786 150.423 187.007 150.423C188.136 150.423 189.12 150.665 189.958 151.148C190.803 151.631 191.457 152.33 191.918 153.246C192.387 154.162 192.618 155.274 192.611 156.581V167H188.754V157.177C188.754 156.084 188.47 155.228 187.902 154.61C187.341 153.992 186.563 153.683 185.569 153.683C184.894 153.683 184.294 153.832 183.769 154.131C183.25 154.422 182.842 154.844 182.543 155.398C182.252 155.952 182.107 156.623 182.107 157.412Z" fill="#66757E"/>
<path d="M0.59082 77.7276V64.3185L40.0908 1.90945H51.2726V21.0004H44.4545L17.8635 63.1367V63.864H72.9999V77.7276H0.59082ZM44.9999 95.0004V73.6367L45.1817 67.6367V1.90945H61.0908V95.0004H44.9999Z" fill="#66757E"/>
<path d="M121.932 96.7731C114.447 96.7731 108.023 94.8791 102.659 91.0913C97.3257 87.2731 93.2196 81.7731 90.3408 74.5913C87.4923 67.3791 86.0681 58.6973 86.0681 48.5458C86.0984 38.3943 87.5378 29.7579 90.3863 22.6367C93.2651 15.4852 97.3711 10.0307 102.704 6.27309C108.068 2.51551 114.477 0.636719 121.932 0.636719C129.386 0.636719 135.795 2.51551 141.159 6.27309C146.523 10.0307 150.629 15.4852 153.477 22.6367C156.356 29.7882 157.795 38.4246 157.795 48.5458C157.795 58.7276 156.356 67.4246 153.477 74.6367C150.629 81.8185 146.523 87.3034 141.159 91.0913C135.826 94.8791 129.417 96.7731 121.932 96.7731ZM121.932 82.5458C127.75 82.5458 132.341 79.6822 135.704 73.9549C139.098 68.1973 140.795 59.7276 140.795 48.5458C140.795 41.1519 140.023 34.9398 138.477 29.9094C136.932 24.8791 134.75 21.0913 131.932 18.5458C129.114 15.9701 125.78 14.6822 121.932 14.6822C116.144 14.6822 111.568 17.561 108.204 23.3185C104.841 29.0458 103.144 37.4549 103.114 48.5458C103.083 55.9701 103.826 62.2125 105.341 67.2731C106.886 72.3337 109.068 76.1519 111.886 78.7276C114.704 81.2731 118.053 82.5458 121.932 82.5458Z" fill="#66757E"/>
<path d="M206.307 96.2731C199.761 96.2731 193.943 95.1519 188.852 92.9094C183.792 90.667 179.792 87.5458 176.852 83.5458C173.913 79.5458 172.352 74.9246 172.17 69.6822H189.261C189.413 72.1973 190.246 74.3943 191.761 76.2731C193.276 78.1216 195.292 79.561 197.807 80.5913C200.322 81.6216 203.14 82.1367 206.261 82.1367C209.595 82.1367 212.549 81.561 215.125 80.4094C217.701 79.2276 219.716 77.5913 221.17 75.5004C222.625 73.4094 223.337 71.0004 223.307 68.2731C223.337 65.4549 222.61 62.9701 221.125 60.8185C219.64 58.667 217.489 56.9852 214.67 55.7731C211.882 54.561 208.519 53.9549 204.579 53.9549H196.352V40.9549H204.579C207.822 40.9549 210.655 40.3943 213.079 39.2731C215.534 38.1519 217.458 36.5761 218.852 34.5458C220.246 32.4852 220.928 30.1064 220.898 27.4094C220.928 24.7731 220.337 22.4852 219.125 20.5458C217.943 18.5761 216.261 17.0458 214.079 15.9549C211.928 14.864 209.398 14.3185 206.489 14.3185C203.64 14.3185 201.004 14.8337 198.579 15.864C196.155 16.8943 194.201 18.364 192.716 20.2731C191.231 22.1519 190.443 24.3943 190.352 27.0004H174.125C174.246 21.7882 175.746 17.2125 178.625 13.2731C181.534 9.30339 185.413 6.21248 190.261 4.00036C195.11 1.75793 200.549 0.636719 206.579 0.636719C212.792 0.636719 218.186 1.80339 222.761 4.13672C227.367 6.43975 230.928 9.54581 233.443 13.4549C235.958 17.364 237.216 21.6822 237.216 26.4094C237.246 31.6519 235.701 36.0458 232.579 39.5913C229.489 43.1367 225.428 45.4549 220.398 46.5458V47.2731C226.943 48.1822 231.958 50.6064 235.443 54.5458C238.958 58.4549 240.701 63.3185 240.67 69.1367C240.67 74.3488 239.186 79.0155 236.216 83.1367C233.276 87.2276 229.216 90.4398 224.034 92.7731C218.882 95.1064 212.973 96.2731 206.307 96.2731Z" fill="#66757E"/>
</svg>
