<svg width="40" height="40" viewBox="0 0 40 40" fill="none" xmlns="http://www.w3.org/2000/svg">
<path d="M25 11.6668C25.8841 11.6668 26.7319 12.018 27.357 12.6431C27.9821 13.2682 28.3333 14.1161 28.3333 15.0001M35 15.0001C35.0005 16.5621 34.635 18.1024 33.933 19.4977C33.2309 20.893 32.2118 22.1044 30.9573 23.0349C29.7027 23.9654 28.2477 24.5891 26.7087 24.856C25.1697 25.1229 23.5896 25.0255 22.095 24.5718L18.3333 28.3335H15V31.6668H11.6667V35.0001H6.66667C6.22464 35.0001 5.80072 34.8245 5.48816 34.512C5.17559 34.1994 5 33.7755 5 33.3335V29.0235C5.00009 28.5815 5.17575 28.1576 5.48833 27.8451L15.4283 17.9051C15.0124 16.5301 14.8976 15.0817 15.0917 13.6584C15.2859 12.235 15.7844 10.8702 16.5533 9.65687C17.3223 8.4435 18.3436 7.41003 19.5478 6.62682C20.752 5.84361 22.1109 5.32904 23.5318 5.11813C24.9527 4.90723 26.4024 5.00493 27.7822 5.4046C29.162 5.80427 30.4395 6.49652 31.5277 7.43423C32.616 8.37195 33.4894 9.53311 34.0886 10.8387C34.6878 12.1443 34.9986 13.5636 35 15.0001Z" stroke="#3F3F46" stroke-width="2" stroke-linecap="round" stroke-linejoin="round"/>
</svg>
