<svg width="16" height="16" viewBox="0 0 16 16" fill="none" xmlns="http://www.w3.org/2000/svg">
<path fill-rule="evenodd" clip-rule="evenodd" d="M2.5 12.5C2.5 12.3674 2.55268 12.2402 2.64645 12.1464C2.74021 12.0527 2.86739 12 3 12H13C13.1326 12 13.2598 12.0527 13.3536 12.1464C13.4473 12.2402 13.5 12.3674 13.5 12.5C13.5 12.6326 13.4473 12.7598 13.3536 12.8536C13.2598 12.9473 13.1326 13 13 13H3C2.86739 13 2.74021 12.9473 2.64645 12.8536C2.55268 12.7598 2.5 12.6326 2.5 12.5ZM2.5 8.5C2.5 8.36739 2.55268 8.24021 2.64645 8.14645C2.74021 8.05268 2.86739 8 3 8H13C13.1326 8 13.2598 8.05268 13.3536 8.14645C13.4473 8.24021 13.5 8.36739 13.5 8.5C13.5 8.63261 13.4473 8.75979 13.3536 8.85355C13.2598 8.94732 13.1326 9 13 9H3C2.86739 9 2.74021 8.94732 2.64645 8.85355C2.55268 8.75979 2.5 8.63261 2.5 8.5ZM2.5 4.5C2.5 4.36739 2.55268 4.24021 2.64645 4.14645C2.74021 4.05268 2.86739 4 3 4H13C13.1326 4 13.2598 4.05268 13.3536 4.14645C13.4473 4.24021 13.5 4.36739 13.5 4.5C13.5 4.63261 13.4473 4.75979 13.3536 4.85355C13.2598 4.94732 13.1326 5 13 5H3C2.86739 5 2.74021 4.94732 2.64645 4.85355C2.55268 4.75979 2.5 4.63261 2.5 4.5Z" fill="#9AAEC0"/>
</svg>
