<svg width="20" height="20" viewBox="0 0 20 20" fill="none" xmlns="http://www.w3.org/2000/svg">
<path d="M10.0001 14.1666L10.8334 12.5V8.21496C12.2676 7.84246 13.3334 6.54829 13.3334 4.99996C13.3334 3.16163 11.8384 1.66663 10.0001 1.66663C8.16175 1.66663 6.66675 3.16163 6.66675 4.99996C6.66675 6.54829 7.73258 7.84246 9.16675 8.21496V12.5L10.0001 14.1666Z" fill="#66757E"/>
<path d="M13.5559 8.80247L13.1117 10.4091C15.2709 11.0058 16.6667 12.1533 16.6667 13.3333C16.6667 14.91 13.9292 16.6666 10.0001 16.6666C6.07091 16.6666 3.33341 14.91 3.33341 13.3333C3.33341 12.1533 4.72925 11.0058 6.88925 10.4083L6.44508 8.80164C3.49758 9.61664 1.66675 11.3525 1.66675 13.3333C1.66675 16.1366 5.32758 18.3333 10.0001 18.3333C14.6726 18.3333 18.3334 16.1366 18.3334 13.3333C18.3334 11.3525 16.5026 9.61664 13.5559 8.80247Z" fill="#66757E"/>
</svg>
