<svg width="20" height="20" viewBox="0 0 20 20" fill="none" xmlns="http://www.w3.org/2000/svg">
<path d="M10.4166 1.66663C7.06344 1.66663 4.34518 4.32493 4.34518 7.60413V11.1526L3.62966 11.8523C3.34025 12.1353 3.25369 12.5609 3.41031 12.9308C3.56693 13.3006 3.93591 13.5416 4.34518 13.5416H16.488C16.8973 13.5416 17.2662 13.3006 17.4229 12.9308C17.5795 12.5609 17.4929 12.1353 17.2035 11.8523L16.488 11.1526V7.60413C16.488 4.32493 13.7697 1.66663 10.4166 1.66663ZM10.4166 17.5C8.73999 17.5 7.38086 16.1708 7.38086 14.5312H13.4523C13.4523 16.1708 12.0932 17.5 10.4166 17.5Z" fill="#8FA4B0"/>
</svg>
