<svg width="18" height="18" viewBox="0 0 18 18" fill="none" xmlns="http://www.w3.org/2000/svg">
<g clip-path="url(#clip0_1_22)">
<path d="M0 8.99995C0 4.231 3.70918 0.32838 8.4 0.0196285V4.84248C6.36462 5.13361 4.8 6.88406 4.8 8.99995C4.8 11.3195 6.6804 13.2 9 13.2C9.94342 13.2 10.8142 12.8888 11.5153 12.3637L14.9256 15.7741C13.3426 17.16 11.2694 18 9 18C4.02943 18 0 13.9705 0 8.99995Z" fill="#9AAEC0"/>
<path d="M15.7741 14.9256C17.1601 13.3424 18 11.2693 18 8.99995C18 7.75973 17.7491 6.5781 17.2954 5.50303L12.9062 7.45376C13.0958 7.93229 13.2 8.45395 13.2 8.99995C13.2 9.94333 12.889 10.8141 12.3638 11.5152L15.7741 14.9256ZM9.6 4.84248V0.0196285C12.6499 0.220374 15.2848 1.94039 16.7551 4.42999L12.3049 6.40783C11.6528 5.57749 10.6944 4.99902 9.6 4.84248Z" fill="#9AAEC0"/>
</g>
<defs>
<clipPath id="clip0_1_22">
<rect width="18" height="18" fill="white"/>
</clipPath>
</defs>
</svg>
