<svg width="16" height="16" viewBox="0 0 16 16" fill="none" xmlns="http://www.w3.org/2000/svg">
<path fill-rule="evenodd" clip-rule="evenodd" d="M6.50001 3.5C4.84315 3.5 3.5 4.84315 3.5 6.50001C3.5 8.15683 4.84315 9.50001 6.50001 9.50001C8.15683 9.50001 9.50001 8.15683 9.50001 6.50001C9.50001 4.84315 8.15683 3.5 6.50001 3.5ZM2 6.50001C2 4.01472 4.01472 2 6.50001 2C8.98529 2 11 4.01472 11 6.50001C11 7.47188 10.6919 8.37178 10.168 9.10739L13.7803 12.7197C14.0732 13.0126 14.0732 13.4875 13.7803 13.7803C13.4875 14.0732 13.0126 14.0732 12.7197 13.7803L9.10739 10.168C8.37178 10.6919 7.47188 11 6.50001 11C4.01472 11 2 8.98529 2 6.50001Z" fill="white"/>
</svg>
