<svg width="16" height="16" viewBox="0 0 16 16" fill="none" xmlns="http://www.w3.org/2000/svg">
<path d="M4.34399 9.54871L3.35066 13.85C3.28932 14.116 3.39599 14.3927 3.62132 14.548C3.73532 14.6267 3.86732 14.6667 3.99999 14.6667C4.12866 14.6667 4.25799 14.6294 4.36999 14.5547L7.99999 12.1347L11.63 14.5547C11.862 14.7094 12.1667 14.7034 12.3933 14.5387C12.6187 14.374 12.718 14.0854 12.6413 13.8174L11.422 9.55071L14.446 6.82937C14.644 6.65071 14.7167 6.37204 14.6313 6.12004C14.5453 5.86804 14.318 5.69071 14.0527 5.66937L10.252 5.36671L8.60732 1.72604C8.49999 1.48671 8.26199 1.33337 7.99999 1.33337C7.73799 1.33337 7.49999 1.48671 7.39266 1.72604L5.74799 5.36671L1.94732 5.66871C1.68599 5.68937 1.46132 5.86071 1.37332 6.10671C1.28399 6.35271 1.34799 6.62804 1.53466 6.81071L4.34399 9.54871ZM6.24599 6.66471C6.48799 6.64537 6.70132 6.49604 6.80066 6.27404L7.99999 3.62004L9.19932 6.27404C9.29866 6.49604 9.51199 6.64537 9.75399 6.66471L12.402 6.87471L10.2213 8.83737C10.032 9.00804 9.95666 9.27071 10.026 9.51604L10.8613 12.4394L8.37066 10.7787C8.14666 10.6287 7.85532 10.6287 7.63132 10.7787L5.02866 12.514L5.72866 9.48337C5.78066 9.25671 5.71132 9.01871 5.54466 8.85671L3.51932 6.88204L6.24599 6.66471Z" fill="#758FAA"/>
</svg>
