<svg width="16" height="14" viewBox="0 0 16 14" fill="none" xmlns="http://www.w3.org/2000/svg">
<path d="M4.87499 5.724V8.06775C4.87499 8.45608 4.5602 8.77087 4.17187 8.77087H1.20312C0.814795 8.77087 0.5 8.45608 0.5 8.06775V5.724C0.5 5.33567 0.814795 5.02087 1.20312 5.02087H4.17187C4.5602 5.02087 4.87499 5.33567 4.87499 5.724ZM0.5 10.4115V12.7552C0.5 13.1436 0.814795 13.4584 1.20312 13.4584H4.17187C4.5602 13.4584 4.87499 13.1436 4.87499 12.7552V10.4115C4.87499 10.0232 4.5602 9.70837 4.17187 9.70837H1.20312C0.814795 9.70837 0.5 10.0232 0.5 10.4115ZM4.17187 0.333374H1.20312C0.814795 0.333374 0.5 0.648169 0.5 1.0365V3.38025C0.5 3.76858 0.814795 4.08337 1.20312 4.08337H4.17187C4.5602 4.08337 4.87499 3.76858 4.87499 3.38025V1.0365C4.87499 0.648169 4.5602 0.333374 4.17187 0.333374ZM6.51562 13.4584H14.7969C15.1852 13.4584 15.5 13.1436 15.5 12.7552V10.4115C15.5 10.0232 15.1852 9.70837 14.7969 9.70837H6.51562C6.12728 9.70837 5.81249 10.0232 5.81249 10.4115V12.7552C5.81249 13.1436 6.12728 13.4584 6.51562 13.4584ZM5.81249 1.0365V3.38025C5.81249 3.76858 6.12728 4.08337 6.51562 4.08337H14.7969C15.1852 4.08337 15.5 3.76858 15.5 3.38025V1.0365C15.5 0.648169 15.1852 0.333374 14.7969 0.333374H6.51562C6.12728 0.333374 5.81249 0.648169 5.81249 1.0365ZM6.51562 8.77087H14.7969C15.1852 8.77087 15.5 8.45608 15.5 8.06775V5.724C15.5 5.33567 15.1852 5.02087 14.7969 5.02087H6.51562C6.12728 5.02087 5.81249 5.33567 5.81249 5.724V8.06775C5.81249 8.45608 6.12728 8.77087 6.51562 8.77087Z" fill="#66757E"/>
</svg>
