<svg width="17" height="16" viewBox="0 0 17 16" fill="none" xmlns="http://www.w3.org/2000/svg">
<path d="M7 7.25926V11.7037M10 7.25926V11.7037M2.5 4.2963H14.5M13.75 4.2963L13.0997 13.2904C13.0728 13.6641 12.9035 14.0139 12.6258 14.2693C12.3482 14.5247 11.9829 14.6667 11.6035 14.6667H5.3965C5.0171 14.6667 4.6518 14.5247 4.37416 14.2693C4.09653 14.0139 3.92719 13.6641 3.90025 13.2904L3.25 4.2963H13.75ZM10.75 4.2963V2.07408C10.75 1.87762 10.671 1.68921 10.5303 1.55029C10.3897 1.41138 10.1989 1.33334 10 1.33334H7C6.80109 1.33334 6.61032 1.41138 6.46967 1.55029C6.32902 1.68921 6.25 1.87762 6.25 2.07408V4.2963H10.75Z" stroke="#66757E" stroke-width="1.5" stroke-linecap="round" stroke-linejoin="round"/>
</svg>
