<svg width="24" height="24" viewBox="0 0 24 24" fill="none" xmlns="http://www.w3.org/2000/svg">
<path d="M22.8 14.7065C19.4649 16.0566 15.8193 16.8 12 16.8C8.18077 16.8 4.53517 16.0566 1.20001 14.7065M16.8 6.00001V3.60001C16.8 2.27453 15.7255 1.20001 14.4 1.20001H9.60001C8.27453 1.20001 7.20001 2.27453 7.20001 3.60001V6.00001M12 13.2H12.012M3.60001 22.8H20.4C21.7255 22.8 22.8 21.7255 22.8 20.4V8.40001C22.8 7.07453 21.7255 6.00001 20.4 6.00001H3.60001C2.27453 6.00001 1.20001 7.07453 1.20001 8.40001V20.4C1.20001 21.7255 2.27453 22.8 3.60001 22.8Z" stroke="#8FA4B0" stroke-width="1.5" stroke-linecap="round" stroke-linejoin="round"/>
</svg>
