<svg width="36" height="33" viewBox="0 0 36 33" fill="none" xmlns="http://www.w3.org/2000/svg">
<g clip-path="url(#clip0_885_4676)">
<path d="M13.4428 24.2372C14.9918 25.1312 15.5244 27.1191 14.6304 28.6677C13.736 30.2167 11.7481 30.7493 10.1994 29.8553C8.65083 28.9609 8.11796 26.973 9.01231 25.4243C9.90633 23.8757 11.8942 23.3429 13.4428 24.2372ZM6.71938 24.627C5.52508 27.116 6.35521 30.1664 8.65793 31.7183C11.3985 33.5639 15.0885 32.678 16.719 29.8535C17.3063 28.8364 17.5464 27.7196 17.4619 26.6386C17.3679 25.329 17.0798 21.6197 16.932 19.6315C16.8826 19.0157 16.2298 18.6387 15.687 18.9126C13.8999 19.7637 10.5349 21.384 9.3538 21.9572C8.23793 22.4874 7.30306 23.405 6.71938 24.627ZM8.8855 16.3438C8.8855 18.1322 7.43013 19.5875 5.64177 19.5875C3.8534 19.5875 2.39803 18.1322 2.39803 16.3438C2.39803 14.5558 3.8534 13.1004 5.64177 13.1004C7.43013 13.1004 8.8855 14.5558 8.8855 16.3438ZM5.18593 10.7159C2.43326 10.9262 0.206627 13.1704 0.0138534 15.9408C-0.213978 19.2369 2.39803 21.9896 5.65934 21.9896C6.83407 21.9896 7.92111 21.6386 8.81513 21.0253C9.90226 20.2888 12.9704 18.185 14.6185 17.0627C15.127 16.712 15.127 15.9583 14.6185 15.6249C12.988 14.503 9.90226 12.3992 8.81513 11.6627C7.79837 10.9614 6.53578 10.6108 5.18593 10.7159ZM13.4421 8.45049C11.8935 9.3445 9.90563 8.81188 9.01162 7.26329C8.11726 5.71426 8.64979 3.72637 10.1988 2.83236C11.7474 1.938 13.7353 2.47087 14.6293 4.01955C15.5237 5.56823 14.9911 7.55613 13.4421 8.45049ZM16.4664 2.43235C14.908 0.154045 11.8512 -0.652454 9.35579 0.565907C6.38698 2.01642 5.30937 5.65514 6.93985 8.47922C7.52717 9.49659 8.37453 10.2625 9.35311 10.7301C10.5342 11.3033 13.8905 12.9087 15.6863 13.7747C16.2442 14.0398 16.8972 13.6627 16.9313 13.0562C17.0879 11.0828 17.3668 7.35859 17.4612 6.049C17.5603 4.81757 17.2326 3.54918 16.4664 2.43235Z" fill="white"/>
<path d="M22.5568 8.44981C21.0079 7.5558 20.4753 5.5679 21.3696 4.01922C22.2637 2.47028 24.2515 1.93767 25.8002 2.83203C27.3492 3.72604 27.8817 5.71393 26.9874 7.26261C26.0934 8.81155 24.1055 9.34417 22.5568 8.44981ZM29.2802 8.06028C30.4745 5.57128 29.6444 2.52067 27.3418 0.968609C24.6011 -0.876892 20.9112 0.0089798 19.2807 2.83341C18.6933 3.85086 18.4532 4.96734 18.5378 6.04867C18.6318 7.35826 18.9199 11.0673 19.0677 13.0555C19.117 13.6712 19.7699 14.0483 20.3126 13.7743C22.0997 12.9232 25.4644 11.303 26.6459 10.7298C27.7617 10.1999 28.6966 9.28193 29.2802 8.06028ZM27.1145 16.3431C27.1145 14.5548 28.5695 13.0995 30.3579 13.0995C32.1463 13.0995 33.6012 14.5548 33.6012 16.3431C33.6012 18.1315 32.1463 19.5865 30.3579 19.5865C28.5695 19.5865 27.1145 18.1315 27.1145 16.3431ZM30.8137 21.971C33.5664 21.7607 35.793 19.5165 35.9861 16.7462C36.214 13.4501 33.6012 10.6977 30.3403 10.6977C29.1656 10.6977 28.0785 11.0483 27.1845 11.6617C26.0974 12.3982 23.0292 14.5024 21.3811 15.6243C20.8726 15.9749 20.8726 16.7289 21.3811 17.062C23.0116 18.184 26.0974 20.2881 27.1845 21.0242C28.2012 21.7256 29.4638 22.0762 30.8137 21.971ZM22.5575 24.2369C24.1062 23.3425 26.0941 23.8754 26.9884 25.424C27.8824 26.9727 27.3498 28.9606 25.8009 29.8546C24.2522 30.7489 22.2643 30.2164 21.3703 28.6674C20.4759 27.1188 21.0088 25.1309 22.5575 24.2369ZM19.5333 30.2546C21.0917 32.5332 24.1484 33.3394 26.6438 32.1215C29.6126 30.6709 30.6903 27.0319 29.0594 24.2078C28.4721 23.1904 27.6251 22.4245 26.6465 21.9568C25.4655 21.3837 22.1091 19.7786 20.3133 18.9123C19.7554 18.6472 19.1025 19.0242 19.0683 19.6312C18.9118 21.6042 18.6324 25.3283 18.5384 26.6383C18.4397 27.8694 18.767 29.1381 19.5333 30.2546Z" fill="white"/>
</g>
<defs>
<clipPath id="clip0_885_4676">
<rect width="36" height="32.6871" fill="white" transform="matrix(1 0 0 -1 0 32.6871)"/>
</clipPath>
</defs>
</svg>
