<svg width="16" height="16" viewBox="0 0 16 16" fill="none" xmlns="http://www.w3.org/2000/svg">
<mask id="path-1-inside-1_1748_9951" fill="white">
<path d="M15.5 6H14V4.5C14 4.225 13.775 4 13.5 4H12V2.5C12 2.225 11.775 2 11.5 2H4.5C4.225 2 4 2.225 4 2.5V4H2.5C2.225 4 2 4.225 2 4.5V6H0.5C0.225 6 0 6.225 0 6.5V13.5C0 13.775 0.225 14 0.5 14H15.5C15.775 14 16 13.775 16 13.5V6.5C16 6.225 15.775 6 15.5 6ZM15 13H13V9H12V13H10V9H9V13H7V9H6V13H4V9H3V13H1V7H3V5H5V3H11V5H13V7H15V13Z"/>
</mask>
<path d="M15.5 6H14V4.5C14 4.225 13.775 4 13.5 4H12V2.5C12 2.225 11.775 2 11.5 2H4.5C4.225 2 4 2.225 4 2.5V4H2.5C2.225 4 2 4.225 2 4.5V6H0.5C0.225 6 0 6.225 0 6.5V13.5C0 13.775 0.225 14 0.5 14H15.5C15.775 14 16 13.775 16 13.5V6.5C16 6.225 15.775 6 15.5 6ZM15 13H13V9H12V13H10V9H9V13H7V9H6V13H4V9H3V13H1V7H3V5H5V3H11V5H13V7H15V13Z" fill="#535353"/>
<path d="M14 6H13V7H14V6ZM12 4H11V5H12V4ZM4 4V5H5V4H4ZM2 6V7H3V6H2ZM15 13V14H16V13H15ZM13 13H12V14H13V13ZM13 9H14V8H13V9ZM12 9V8H11V9H12ZM12 13V14H13V13H12ZM10 13H9V14H10V13ZM10 9H11V8H10V9ZM9 9V8H8V9H9ZM9 13V14H10V13H9ZM7 13H6V14H7V13ZM7 9H8V8H7V9ZM6 9V8H5V9H6ZM6 13V14H7V13H6ZM4 13H3V14H4V13ZM4 9H5V8H4V9ZM3 9V8H2V9H3ZM3 13V14H4V13H3ZM1 13H0V14H1V13ZM1 7V6H0V7H1ZM3 7V8H4V7H3ZM3 5V4H2V5H3ZM5 5V6H6V5H5ZM5 3V2H4V3H5ZM11 3H12V2H11V3ZM11 5H10V6H11V5ZM13 5H14V4H13V5ZM13 7H12V8H13V7ZM15 7H16V6H15V7ZM15.5 5H14V7H15.5V5ZM15 6V4.5H13V6H15ZM15 4.5C15 3.67272 14.3273 3 13.5 3V5C13.2227 5 13 4.77728 13 4.5H15ZM13.5 3H12V5H13.5V3ZM13 4V2.5H11V4H13ZM13 2.5C13 1.67272 12.3273 1 11.5 1V3C11.2227 3 11 2.77728 11 2.5H13ZM11.5 1H4.5V3H11.5V1ZM4.5 1C3.67272 1 3 1.67272 3 2.5H5C5 2.77728 4.77728 3 4.5 3V1ZM3 2.5V4H5V2.5H3ZM4 3H2.5V5H4V3ZM2.5 3C1.67272 3 1 3.67272 1 4.5H3C3 4.77728 2.77728 5 2.5 5V3ZM1 4.5V6H3V4.5H1ZM2 5H0.5V7H2V5ZM0.5 5C-0.327285 5 -1 5.67272 -1 6.5H1C1 6.77728 0.777285 7 0.5 7V5ZM-1 6.5V13.5H1V6.5H-1ZM-1 13.5C-1 14.3273 -0.327285 15 0.5 15V13C0.777285 13 1 13.2227 1 13.5H-1ZM0.5 15H15.5V13H0.5V15ZM15.5 15C16.3273 15 17 14.3273 17 13.5H15C15 13.2227 15.2227 13 15.5 13V15ZM17 13.5V6.5H15V13.5H17ZM17 6.5C17 5.67272 16.3273 5 15.5 5V7C15.2227 7 15 6.77728 15 6.5H17ZM15 12H13V14H15V12ZM14 13V9H12V13H14ZM13 8H12V10H13V8ZM11 9V13H13V9H11ZM12 12H10V14H12V12ZM11 13V9H9V13H11ZM10 8H9V10H10V8ZM8 9V13H10V9H8ZM9 12H7V14H9V12ZM8 13V9H6V13H8ZM7 8H6V10H7V8ZM5 9V13H7V9H5ZM6 12H4V14H6V12ZM5 13V9H3V13H5ZM4 8H3V10H4V8ZM2 9V13H4V9H2ZM3 12H1V14H3V12ZM2 13V7H0V13H2ZM1 8H3V6H1V8ZM4 7V5H2V7H4ZM3 6H5V4H3V6ZM6 5V3H4V5H6ZM5 4H11V2H5V4ZM10 3V5H12V3H10ZM11 6H13V4H11V6ZM12 5V7H14V5H12ZM13 8H15V6H13V8ZM14 7V13H16V7H14Z" fill="#FF773D" mask="url(#path-1-inside-1_1748_9951)"/>
</svg>
