<svg width="16" height="16" viewBox="0 0 16 16" fill="none" xmlns="http://www.w3.org/2000/svg">
<path d="M12.1332 7.47102L12.1766 7.8125L12.5111 7.89387C13.4601 8.12476 14.1666 8.98323 14.1666 10C14.1666 11.1946 13.1944 12.1667 11.9999 12.1667H4.66659C3.10473 12.1667 1.83325 10.8952 1.83325 9.33337C1.83325 8.11933 2.74277 6.94922 3.9811 6.5791L4.20484 6.51223L4.29717 6.29774C4.9488 4.78403 6.36715 3.83337 7.99992 3.83337C10.1181 3.83337 11.8732 5.42276 12.1332 7.47102ZM4.36213 6.83091L4.36205 6.83092C3.16377 7.04147 2.16659 8.13153 2.16659 9.33337C2.16659 10.7122 3.28778 11.8334 4.66659 11.8334H11.9999C13.0114 11.8334 13.8333 11.0115 13.8333 10C13.8333 8.98856 13.0114 8.16671 11.9999 8.16671H11.8333V8.00004C11.8333 5.8859 10.1141 4.16671 7.99992 4.16671C6.37467 4.16671 5.0263 5.1597 4.49104 6.72095C4.491 6.72105 4.49097 6.72115 4.49093 6.72125L4.45906 6.81389L4.36213 6.83091Z" fill="#535353" stroke="#FF773D"/>
</svg>
