<svg width="14" height="14" viewBox="0 0 14 14" fill="none" xmlns="http://www.w3.org/2000/svg">
<path d="M8.65673 8.73718L8.94228 8.82219L9.15295 8.61152L10.2156 7.54885C10.281 7.48346 10.3857 7.48345 10.4511 7.54881C10.4511 7.54882 10.4512 7.54884 10.4512 7.54885L13.1178 10.2161L13.1178 10.2162C13.1832 10.2816 13.1832 10.3863 13.1178 10.4517L11.3098 12.2597C11.1504 12.4192 10.9444 12.504 10.7267 12.504H10.7267H10.7267H10.7267H10.7266H10.7266H10.7266H10.7266H10.7266H10.7265H10.7265H10.7265H10.7265H10.7265H10.7264H10.7264H10.7264H10.7264H10.7263H10.7263H10.7263H10.7263H10.7263H10.7262H10.7262H10.7262H10.7262H10.7261H10.7261H10.7261H10.7261H10.726H10.726H10.726H10.726H10.7259H10.7259H10.7259H10.7258H10.7258H10.7258H10.7258H10.7257H10.7257H10.7257H10.7257H10.7256H10.7256H10.7256H10.7255H10.7255H10.7255H10.7255H10.7254H10.7254H10.7254H10.7253H10.7253H10.7253H10.7253H10.7252H10.7252H10.7252H10.7251H10.7251H10.7251H10.725H10.725H10.725H10.7249H10.7249H10.7249H10.7249H10.7248H10.7248H10.7248H10.7247H10.7247H10.7247H10.7246H10.7246H10.7246H10.7245H10.7245H10.7245H10.7244H10.7244H10.7244H10.7243H10.7243H10.7243H10.7242H10.7242H10.7242H10.7241H10.7241H10.7241H10.724H10.724H10.7239H10.7239H10.7239H10.7238H10.7238H10.7238H10.7237H10.7237H10.7237H10.7236H10.7236H10.7235H10.7235H10.7235H10.7234H10.7234H10.7234H10.7233H10.7233H10.7233H10.7232H10.7232H10.7231H10.7231H10.7231H10.723H10.723H10.7229H10.7229H10.7229H10.7228H10.7228H10.7228H10.7227H10.7227H10.7226H10.7226H10.7226H10.7225H10.7225H10.7224H10.7224H10.7224H10.7223H10.7223H10.7222H10.7222H10.7222H10.7221H10.7221H10.722H10.722H10.722H10.7219H10.7219H10.7218H10.7218H10.7218H10.7217H10.7217H10.7216H10.7216H10.7215H10.7215H10.7215H10.7214H10.7214H10.7213H10.7213H10.7213H10.7212H10.7212H10.7211H10.7211H10.721H10.721H10.721H10.7209H10.7209H10.7208H10.7208H10.7208H10.7207H10.7207H10.7206H10.7206H10.7205H10.7205H10.7205H10.7204H10.7204H10.7203H10.7203H10.7202H10.7202H10.7201H10.7201H10.7201H10.72H10.72H10.7199H10.7199H10.7198H10.7198H10.7198H10.7197H10.7197H10.7196H10.7196H10.7195H10.7195H10.7194H10.7194H10.7194H10.7193H10.7193H10.7192H10.7192H10.7191H10.7191H10.719H10.719H10.719H10.7189H10.7189H10.7188H10.7188H10.7187H10.7187H10.7186H10.7186H10.7186H10.7185H10.7185H10.7184H10.7184H10.7183H10.7183H10.7182H10.7182H10.7182H10.7181H10.7181H10.718H10.718H10.7179H10.7179H10.7178H10.7178H10.7178H10.7177H10.7177H10.7176H10.7176H10.7175H10.7175H10.7174H10.7174H10.7173H10.7173H10.7173H10.7172H10.7172H10.7171H10.7171H10.717H10.717H10.7169H10.7169H10.7169H10.7168H10.7168H10.7167H10.7167H10.7166H10.7166H10.7165H10.7165H10.7165H10.7164H10.7164H10.7163H10.7163H10.7162H10.7162H10.7161H10.7161H10.716H10.716H10.716H10.7159H10.7159H10.7158H10.7158H10.7157H10.7157H10.7156H10.7156H10.7156H10.7155H10.7155H10.7154H10.7154H10.7153H10.7153H10.7153H10.7152H10.7152H10.7151H10.7151H10.715H10.715H10.7149H10.7149H10.7149H10.7148H10.7148H10.7147H10.7147H10.7146H10.7146H10.7146H10.7145H10.7145H10.7144H10.7144H10.7143H10.7143H10.7143H10.7142H10.7142H10.7141H10.7141H10.714H10.714H10.714H10.7139H10.7139H10.7138H10.7138H10.7137H10.7137H10.7137H10.7136H10.7136H10.7135H10.7135H10.7134H10.7134H10.7134H10.7133H10.7133H10.7132H10.7132H10.7132H10.7131H10.7131H10.713H10.713H10.7129H10.7129H10.7129H10.7128H10.7128H10.7127H10.7127H10.7127H10.7126H10.7126H10.7125H10.7125H10.7125H10.7124H10.7124H10.7123H10.7123C9.80314 12.4881 6.67316 12.2426 4.21561 9.78508C1.75451 7.32398 1.51129 4.1885 1.49667 3.28553C1.49347 3.06754 1.58181 2.84932 1.74095 2.69018L3.54895 0.882183C3.61435 0.816779 3.7191 0.816779 3.78451 0.882183L6.45117 3.54885C6.51658 3.61425 6.51658 3.71901 6.45117 3.78441L5.38851 4.84708L5.17784 5.05775L5.26284 5.34329C5.41229 5.84529 5.77362 6.8713 6.45117 7.54885C7.12873 8.2264 8.15474 8.58774 8.65673 8.73718ZM10.7116 12.1699L10.9236 12.1735L11.0735 12.0236L12.4109 10.6869L12.7646 10.3334L12.4109 9.97974L10.6869 8.25574L10.3335 7.90233L9.97998 8.25561L9.11731 9.11761L9.11643 9.11849C9.07685 9.15823 9.02192 9.17467 8.96699 9.16295L8.96487 9.16251C8.94366 9.15808 8.49951 9.0633 7.93214 8.83898C7.35857 8.61222 6.69909 8.26856 6.21495 7.78441C5.7308 7.30026 5.38713 6.64078 5.16037 6.06722C4.93606 5.49984 4.84128 5.0557 4.83685 5.03448L4.83681 5.0343C4.82522 4.97887 4.84271 4.92159 4.88154 4.88292L4.88228 4.88218L5.74428 4.02018L6.09783 3.66663L5.74428 3.31308L4.02028 1.58908L3.66673 1.23552L3.31317 1.58908L1.97651 2.92574L1.82666 3.07559L1.83013 3.28747C1.84422 4.14909 2.06973 7.16736 4.45112 9.5488C6.82492 11.9233 9.83283 12.1551 10.7116 12.1699Z" fill="#535353" stroke="#FF773D"/>
</svg>
