<svg width="16" height="16" viewBox="0 0 16 16" fill="none" xmlns="http://www.w3.org/2000/svg">
<path d="M1.8143 5.84176C3.50276 4.32711 5.68198 3.49996 8.00006 3.49996C10.3181 3.49996 12.4974 4.32711 14.1858 5.84176L14.4218 5.60578C12.673 4.03007 10.4135 3.16666 8.00018 3.16663L1.8143 5.84176ZM1.8143 5.84176L1.57833 5.60578C3.3271 4.0302 5.58659 3.16725 8.00006 3.16663L1.8143 5.84176ZM5.18239 9.79385L4.94564 9.5571C6.69685 8.14891 9.30327 8.14891 11.0545 9.5571L10.8177 9.79385C9.19224 8.50488 6.80788 8.50488 5.18239 9.79385Z" fill="#FF773D" stroke="#FF773D"/>
<path d="M13.6246 7.5287C10.5766 4.47937 5.42398 4.47937 2.37598 7.5287L3.31864 8.47137C5.85664 5.93337 10.144 5.93337 12.682 8.47137L13.6246 7.5287Z" fill="#FF773D"/>
<path d="M8.00008 13.3333C8.73646 13.3333 9.33341 12.7363 9.33341 12C9.33341 11.2636 8.73646 10.6666 8.00008 10.6666C7.2637 10.6666 6.66675 11.2636 6.66675 12C6.66675 12.7363 7.2637 13.3333 8.00008 13.3333Z" fill="#FF773D"/>
</svg>
