<svg width="16" height="16" viewBox="0 0 16 16" fill="none" xmlns="http://www.w3.org/2000/svg">
<path d="M4.56667 7.80004C4.56667 7.22932 4.10404 6.7667 3.53334 6.7667C2.96263 6.7667 2.5 7.22932 2.5 7.80004C2.5 8.37073 2.96264 8.83337 3.53334 8.83337C4.10403 8.83337 4.56667 8.37073 4.56667 7.80004ZM9.16668 7.80004C9.16668 7.22932 8.70406 6.7667 8.13334 6.7667C7.56264 6.7667 7.10001 7.22932 7.10001 7.80004C7.10001 8.37073 7.56265 8.83337 8.13334 8.83337C8.70405 8.83337 9.16668 8.37074 9.16668 7.80004ZM13.7667 7.80004C13.7667 7.22932 13.3041 6.7667 12.7333 6.7667C12.1626 6.7667 11.7 7.22932 11.7 7.80004C11.7 8.37074 12.1626 8.83337 12.7333 8.83337C13.3041 8.83337 13.7667 8.37074 13.7667 7.80004Z" fill="#66757E" stroke="#66757E"/>
</svg>
