<svg width="199" height="31" viewBox="0 0 199 31" fill="none" xmlns="http://www.w3.org/2000/svg">
<path d="M12.9634 22.8005C14.3764 23.616 14.8621 25.4293 14.0466 26.8419C13.2308 28.2549 11.4175 28.7406 10.0048 27.9251C8.59226 27.1093 8.10618 25.296 8.92199 23.8833C9.73749 22.4707 11.5508 21.9847 12.9634 22.8005ZM6.83043 23.156C5.74102 25.4264 6.49824 28.2089 8.59873 29.6246C11.0986 31.3081 14.4646 30.4999 15.9519 27.9235C16.4876 26.9958 16.7066 25.977 16.6295 24.991C16.5437 23.7964 16.281 20.4128 16.1462 18.5993C16.1011 18.0375 15.5056 17.6937 15.0105 17.9435C13.3804 18.7198 10.3108 20.1979 9.23349 20.7207C8.21562 21.2043 7.36285 22.0414 6.83043 23.156ZM8.80632 15.6003C8.80632 17.2316 7.47877 18.5591 5.84746 18.5591C4.21615 18.5591 2.8886 17.2316 2.8886 15.6003C2.8886 13.9693 4.21615 12.6417 5.84746 12.6417C7.47877 12.6417 8.80632 13.9693 8.80632 15.6003ZM5.43165 10.4666C2.92073 10.6585 0.889652 12.7056 0.713809 15.2327C0.505987 18.2393 2.8886 20.7503 5.86349 20.7503C6.93505 20.7503 7.92663 20.4301 8.74212 19.8706C9.73378 19.1988 12.5325 17.2798 14.0358 16.2561C14.4997 15.9362 14.4997 15.2487 14.0358 14.9445C12.5485 13.9211 9.73378 12.0021 8.74212 11.3303C7.81466 10.6906 6.66295 10.3708 5.43165 10.4666ZM12.9628 8.40019C11.5502 9.21568 9.73686 8.72984 8.92136 7.31725C8.10555 5.90427 8.59131 4.09096 10.0043 3.27546C11.4169 2.45965 13.2302 2.94573 14.0457 4.35839C14.8615 5.77106 14.3757 7.58437 12.9628 8.40019ZM15.7215 2.91059C14.2999 0.832369 11.5116 0.0966988 9.2353 1.20806C6.52722 2.53119 5.54425 5.85034 7.03154 8.4264C7.56728 9.35442 8.34022 10.0531 9.23286 10.4796C10.3103 11.0025 13.3718 12.4669 15.0099 13.2568C15.5188 13.4986 16.1144 13.1547 16.1455 12.6014C16.2884 10.8014 16.5428 7.40419 16.6289 6.20961C16.7193 5.08633 16.4203 3.92933 15.7215 2.91059Z" fill="#1D60AC"/>
<path d="M21.277 8.39961C19.8641 7.58412 19.3783 5.77081 20.1941 4.35814C21.0097 2.94523 22.8229 2.45939 24.2356 3.27521C25.6486 4.0907 26.1343 5.90401 25.3185 7.31668C24.503 8.72959 22.6897 9.21543 21.277 8.39961ZM27.41 8.04429C28.4994 5.77389 27.7422 2.99119 25.6418 1.57544C23.1418 -0.107981 19.7759 0.70009 18.2886 3.27647C17.7528 4.20456 17.5339 5.22299 17.611 6.20935C17.6968 7.40393 17.9595 10.7872 18.0943 12.6008C18.1393 13.1625 18.7349 13.5064 19.2299 13.2565C20.8601 12.4802 23.9293 11.0022 25.007 10.4794C26.0248 9.99602 26.8777 9.15866 27.41 8.04429ZM25.4345 15.5997C25.4345 13.9684 26.7617 12.6409 28.393 12.6409C30.0244 12.6409 31.3515 13.9684 31.3515 15.5997C31.3515 17.231 30.0244 18.5583 28.393 18.5583C26.7617 18.5583 25.4345 17.231 25.4345 15.5997ZM28.8088 20.7334C31.3198 20.5415 33.3508 18.4944 33.5269 15.9674C33.7348 12.9607 31.3515 10.45 28.3769 10.45C27.3055 10.45 26.3138 10.7699 25.4983 11.3294C24.5067 12.0012 21.7079 13.9206 20.2046 14.944C19.7407 15.2638 19.7407 15.9516 20.2046 16.2555C21.6919 17.2789 24.5067 19.1982 25.4983 19.8697C26.4258 20.5094 27.5775 20.8293 28.8088 20.7334ZM21.2777 22.8002C22.6903 21.9844 24.5036 22.4705 25.3195 23.8831C26.135 25.2957 25.6491 27.1091 24.2362 27.9245C22.8235 28.7404 21.0102 28.2546 20.1947 26.8416C19.3789 25.429 19.865 23.6157 21.2777 22.8002ZM18.5191 28.2894C19.9406 30.368 22.7289 31.1033 25.0051 29.9923C27.7132 28.6691 28.6962 25.3497 27.2086 22.7737C26.6728 21.8456 25.9002 21.147 25.0076 20.7204C23.9302 20.1976 20.8687 18.7335 19.2306 17.9432C18.7217 17.7014 18.1261 18.0453 18.0949 18.599C17.9521 20.3987 17.6973 23.7958 17.6116 24.9907C17.5216 26.1137 17.8201 27.271 18.5191 28.2894Z" fill="#F9AD16"/>
<path d="M187.433 16.9059H195.296C195.131 14.7889 193.701 13.387 191.419 13.387C189.247 13.387 187.846 14.5964 187.433 16.9059ZM198.1 20.8102C197.606 23.6693 195.104 25.5388 191.694 25.5388C187.406 25.5388 184.739 22.1571 184.739 18.3081C184.739 14.4313 187.158 11.2425 191.419 11.2425C195.708 11.2425 197.99 14.2941 197.99 17.813C197.99 18.1709 197.963 18.6107 197.936 18.8581H187.351C187.571 21.4696 189.275 23.257 191.694 23.257C193.729 23.257 195.048 22.3773 195.434 20.8102H198.1ZM172.773 20.8102H175.275C175.439 22.4045 176.595 23.3122 178.382 23.3122C179.977 23.3122 180.994 22.4597 180.994 21.4424C180.994 17.7582 173.131 21.1398 173.131 15.229C173.131 12.8371 175.165 11.2425 178.052 11.2425C181.186 11.2425 183.331 12.9743 183.468 15.5864H180.966C180.773 13.9915 179.234 13.3592 178.052 13.3592C176.622 13.3592 175.66 14.0742 175.66 15.1466C175.66 18.5832 183.578 15.0643 183.578 21.3872C183.578 23.9167 181.516 25.5388 178.382 25.5388C175.138 25.5388 172.966 23.7243 172.773 20.8102ZM168.225 18.3905C168.225 15.5041 166.548 13.5794 163.963 13.5794C161.407 13.5794 159.73 15.5041 159.73 18.3905C159.73 21.2774 161.407 23.202 163.963 23.202C166.548 23.202 168.225 21.2774 168.225 18.3905ZM157.008 18.3905C157.008 14.2666 159.4 11.2425 163.634 11.2425C165.449 11.2425 167.18 12.0947 168.033 13.3047V11.4624H170.7V25.3192H168.033V23.4494C167.373 24.6317 165.614 25.5388 163.661 25.5388C159.4 25.5388 157.008 22.5145 157.008 18.3905ZM152.944 18.3905C152.944 15.5041 151.239 13.5794 148.682 13.5794C146.098 13.5794 144.421 15.5041 144.421 18.3905C144.421 21.2774 146.098 23.202 148.682 23.202C151.239 23.202 152.944 21.2774 152.944 18.3905ZM144.641 23.257V25.3192H141.974V5.66129H144.641V13.4971C145.439 12.1496 147.115 11.2425 149.012 11.2425C153.246 11.2425 155.638 14.2666 155.638 18.3905C155.638 22.5145 153.246 25.5388 148.985 25.5388C147.143 25.5388 145.439 24.6317 144.641 23.257ZM133.795 7.11833H136.462V11.4624H140.558V13.772H136.462V20.5899C136.462 22.0747 137.258 22.8995 138.606 22.8995H140.558V25.3192H138.386C135.581 25.3192 133.795 23.6144 133.795 20.783V13.772H130.963V11.4624H133.795V7.11833ZM117.21 18.3905C117.21 14.5692 119.712 11.2425 124.083 11.2425C127.328 11.2425 130.132 13.1668 130.517 16.3011H127.85C127.602 14.7339 126.008 13.5794 124.139 13.5794C121.362 13.5794 119.987 15.7238 119.987 18.3905C119.987 21.0575 121.389 23.202 124.139 23.202C126.036 23.202 127.437 22.212 127.877 20.6452H130.517C130.077 23.5596 127.603 25.5388 124.083 25.5388C119.712 25.5388 117.21 22.212 117.21 18.3905ZM105.457 16.9059H113.319C113.154 14.7889 111.725 13.387 109.443 13.387C107.271 13.387 105.869 14.5964 105.457 16.9059ZM116.124 20.8102C115.629 23.6693 113.127 25.5388 109.718 25.5388C105.429 25.5388 102.762 22.1571 102.762 18.3081C102.762 14.4313 105.182 11.2425 109.443 11.2425C113.732 11.2425 116.014 14.2941 116.014 17.813C116.014 18.1709 115.987 18.6107 115.959 18.8581H105.374C105.594 21.4696 107.299 23.257 109.718 23.257C111.752 23.257 113.072 22.3773 113.457 20.8102H116.124ZM88.6437 25.3192V11.4624H91.3102V13.9092C92.0532 12.1773 93.7027 11.2425 95.7643 11.2425C98.899 11.2425 100.933 13.4971 100.933 16.7962V25.3192H98.2666V17.3184C98.2666 15.1188 96.974 13.6344 95.0221 13.6344C92.8499 13.6344 91.3102 15.394 91.3102 17.813V25.3192H88.6437ZM73.7164 25.3192V11.4624H76.3837V13.9092C77.1259 12.1773 78.7753 11.2425 80.8378 11.2425C83.9717 11.2425 86.0065 13.4971 86.0065 16.7962V25.3192H83.3392V17.3184C83.3392 15.1188 82.0474 13.6344 80.0956 13.6344C77.9234 13.6344 76.3837 15.394 76.3837 17.813V25.3192H73.7164ZM69.1139 18.3905C69.1139 15.5587 67.3268 13.5794 64.715 13.5794C62.0757 13.5794 60.2887 15.5587 60.2887 18.3905C60.2887 21.2228 62.0757 23.202 64.715 23.202C67.3268 23.202 69.1139 21.2228 69.1139 18.3905ZM57.567 18.3905C57.567 14.2389 60.5634 11.2425 64.715 11.2425C68.8665 11.2425 71.8356 14.2389 71.8356 18.3905C71.8356 22.5423 68.8665 25.5388 64.715 25.5388C60.5634 25.5388 57.567 22.5423 57.567 18.3905ZM38.6895 15.6966C38.6895 9.09817 43.1985 5.85379 48.0921 5.85379C52.4636 5.85379 55.9279 8.49302 56.4501 12.2596H53.4533C53.1236 10.0053 50.869 8.38295 48.0647 8.38295C44.3258 8.38295 41.6313 10.9402 41.6313 15.6966C41.6313 20.4527 44.3258 23.0096 48.0647 23.0096C50.9242 23.0096 53.206 21.3872 53.5082 19.1328H56.3952C55.9825 22.8995 52.5463 25.5388 48.0921 25.5388C43.1433 25.5388 38.6895 22.2949 38.6895 15.6966Z" fill="#161F27"/>
</svg>
