<svg width="188" height="69" viewBox="0 0 188 69" fill="none" xmlns="http://www.w3.org/2000/svg">
<path d="M25.9773 21.9091C25.9773 24.7301 25.4489 27.1463 24.392 29.1577C23.3438 31.1605 21.9119 32.6946 20.0966 33.7599C18.2898 34.8253 16.2401 35.358 13.9474 35.358C11.6548 35.358 9.60085 34.8253 7.78551 33.7599C5.97869 32.6861 4.54688 31.1477 3.49006 29.1449C2.44176 27.1335 1.91761 24.7216 1.91761 21.9091C1.91761 19.0881 2.44176 16.6761 3.49006 14.6733C4.54688 12.6619 5.97869 11.1236 7.78551 10.0582C9.60085 8.9929 11.6548 8.46023 13.9474 8.46023C16.2401 8.46023 18.2898 8.9929 20.0966 10.0582C21.9119 11.1236 23.3438 12.6619 24.392 14.6733C25.4489 16.6761 25.9773 19.0881 25.9773 21.9091ZM21.2088 21.9091C21.2088 19.9233 20.8977 18.2486 20.2756 16.8849C19.6619 15.5128 18.8097 14.4773 17.7188 13.7784C16.6278 13.071 15.3707 12.7173 13.9474 12.7173C12.5241 12.7173 11.267 13.071 10.1761 13.7784C9.08523 14.4773 8.22869 15.5128 7.60653 16.8849C6.9929 18.2486 6.68608 19.9233 6.68608 21.9091C6.68608 23.8949 6.9929 25.5739 7.60653 26.946C8.22869 28.3097 9.08523 29.3452 10.1761 30.0526C11.267 30.7514 12.5241 31.1009 13.9474 31.1009C15.3707 31.1009 16.6278 30.7514 17.7188 30.0526C18.8097 29.3452 19.6619 28.3097 20.2756 26.946C20.8977 25.5739 21.2088 23.8949 21.2088 21.9091ZM30.2567 35V15.3636H34.744V18.6364H34.9485C35.3065 17.5028 35.9201 16.6293 36.7894 16.0156C37.6673 15.3935 38.6687 15.0824 39.7937 15.0824C40.0494 15.0824 40.3349 15.0952 40.6502 15.1207C40.9741 15.1378 41.2425 15.1676 41.4556 15.2102V19.4673C41.2596 19.3991 40.9485 19.3395 40.5224 19.2884C40.1048 19.2287 39.6999 19.1989 39.3079 19.1989C38.4641 19.1989 37.7056 19.3821 37.0323 19.7486C36.3675 20.1065 35.8434 20.6051 35.4599 21.2443C35.0763 21.8835 34.8846 22.6207 34.8846 23.456V35H30.2567ZM51.0085 35.3452C49.4659 35.3452 48.0852 34.9489 46.8665 34.1562C45.6477 33.3636 44.6847 32.2131 43.9773 30.7045C43.2699 29.196 42.9162 27.3636 42.9162 25.2074C42.9162 23.0256 43.2741 21.1847 43.9901 19.6847C44.7145 18.1761 45.6903 17.0384 46.9176 16.2713C48.1449 15.4957 49.5128 15.108 51.0213 15.108C52.1719 15.108 53.1179 15.304 53.8594 15.696C54.6009 16.0795 55.1889 16.544 55.6236 17.0895C56.0582 17.6264 56.3949 18.1335 56.6335 18.6108H56.8253V8.81818H61.4659V35H56.9148V31.9062H56.6335C56.3949 32.3835 56.0497 32.8906 55.598 33.4276C55.1463 33.956 54.5497 34.4077 53.8082 34.7827C53.0668 35.1577 52.1335 35.3452 51.0085 35.3452ZM52.2997 31.5483C53.2798 31.5483 54.1151 31.2841 54.8054 30.7557C55.4957 30.2187 56.0199 29.473 56.3778 28.5185C56.7358 27.5639 56.9148 26.4517 56.9148 25.1818C56.9148 23.9119 56.7358 22.8082 56.3778 21.8707C56.0284 20.9332 55.5085 20.2045 54.8182 19.6847C54.1364 19.1648 53.2969 18.9048 52.2997 18.9048C51.2685 18.9048 50.4077 19.1733 49.7173 19.7102C49.027 20.2472 48.5071 20.9886 48.1577 21.9347C47.8082 22.8807 47.6335 23.9631 47.6335 25.1818C47.6335 26.4091 47.8082 27.5043 48.1577 28.4673C48.5156 29.4219 49.0398 30.1761 49.7301 30.7301C50.429 31.2756 51.2855 31.5483 52.2997 31.5483ZM75.0906 35.3835C73.1218 35.3835 71.4215 34.9744 69.9897 34.1562C68.5664 33.3295 67.4712 32.1619 66.7042 30.6534C65.9371 29.1364 65.5536 27.3509 65.5536 25.2969C65.5536 23.277 65.9371 21.5043 66.7042 19.9787C67.4798 18.4446 68.5621 17.2514 69.9513 16.3991C71.3406 15.5384 72.9727 15.108 74.8477 15.108C76.0579 15.108 77.1999 15.304 78.2738 15.696C79.3562 16.0795 80.3107 16.6761 81.1374 17.4858C81.9727 18.2955 82.6289 19.3267 83.1062 20.5795C83.5835 21.8239 83.8221 23.3068 83.8221 25.0284V26.4474H67.7269V23.3281H79.386C79.3775 22.4418 79.1857 21.6534 78.8107 20.9631C78.4357 20.2642 77.9116 19.7145 77.2383 19.3139C76.5735 18.9134 75.7979 18.7131 74.9116 18.7131C73.9656 18.7131 73.1346 18.9432 72.4187 19.4034C71.7028 19.8551 71.1445 20.4517 70.744 21.1932C70.3519 21.9261 70.1516 22.7315 70.1431 23.6094V26.3324C70.1431 27.4744 70.3519 28.4545 70.7695 29.2727C71.1871 30.0824 71.771 30.7045 72.521 31.1392C73.271 31.5653 74.1488 31.7784 75.1545 31.7784C75.8278 31.7784 76.4371 31.6847 76.9826 31.4972C77.5281 31.3011 78.0011 31.0156 78.4016 30.6406C78.8022 30.2656 79.1048 29.8011 79.3093 29.2472L83.6303 29.733C83.3576 30.875 82.8377 31.8722 82.0707 32.7244C81.3121 33.5682 80.3406 34.2244 79.1559 34.6932C77.9712 35.1534 76.6161 35.3835 75.0906 35.3835ZM87.7372 35V15.3636H92.2244V18.6364H92.429C92.7869 17.5028 93.4006 16.6293 94.2699 16.0156C95.1477 15.3935 96.1491 15.0824 97.2741 15.0824C97.5298 15.0824 97.8153 15.0952 98.1307 15.1207C98.4545 15.1378 98.723 15.1676 98.9361 15.2102V19.4673C98.7401 19.3991 98.429 19.3395 98.0028 19.2884C97.5852 19.2287 97.1804 19.1989 96.7884 19.1989C95.9446 19.1989 95.1861 19.3821 94.5128 19.7486C93.848 20.1065 93.3239 20.6051 92.9403 21.2443C92.5568 21.8835 92.3651 22.6207 92.3651 23.456V35H87.7372ZM102.215 35V8.81818H106.843V18.6108H107.035C107.273 18.1335 107.61 17.6264 108.045 17.0895C108.479 16.544 109.067 16.0795 109.809 15.696C110.55 15.304 111.496 15.108 112.647 15.108C114.164 15.108 115.532 15.4957 116.751 16.2713C117.978 17.0384 118.95 18.1761 119.665 19.6847C120.39 21.1847 120.752 23.0256 120.752 25.2074C120.752 27.3636 120.398 29.196 119.691 30.7045C118.984 32.2131 118.021 33.3636 116.802 34.1562C115.583 34.9489 114.202 35.3452 112.66 35.3452C111.535 35.3452 110.602 35.1577 109.86 34.7827C109.119 34.4077 108.522 33.956 108.07 33.4276C107.627 32.8906 107.282 32.3835 107.035 31.9062H106.766V35H102.215ZM106.754 25.1818C106.754 26.4517 106.933 27.5639 107.29 28.5185C107.657 29.473 108.181 30.2187 108.863 30.7557C109.553 31.2841 110.388 31.5483 111.369 31.5483C112.391 31.5483 113.248 31.2756 113.938 30.7301C114.629 30.1761 115.148 29.4219 115.498 28.4673C115.856 27.5043 116.035 26.4091 116.035 25.1818C116.035 23.9631 115.86 22.8807 115.511 21.9347C115.161 20.9886 114.641 20.2472 113.951 19.7102C113.261 19.1733 112.4 18.9048 111.369 18.9048C110.38 18.9048 109.54 19.1648 108.85 19.6847C108.16 20.2045 107.636 20.9332 107.278 21.8707C106.928 22.8082 106.754 23.9119 106.754 25.1818ZM130.337 35.3963C129.093 35.3963 127.972 35.1747 126.975 34.7315C125.986 34.2798 125.202 33.6151 124.623 32.7372C124.051 31.8594 123.766 30.777 123.766 29.4901C123.766 28.3821 123.971 27.4659 124.38 26.7415C124.789 26.017 125.347 25.4375 126.054 25.0028C126.762 24.5682 127.559 24.2401 128.445 24.0185C129.34 23.7884 130.265 23.6222 131.219 23.5199C132.37 23.4006 133.303 23.294 134.019 23.2003C134.735 23.098 135.255 22.9446 135.578 22.7401C135.911 22.527 136.077 22.1989 136.077 21.7557V21.679C136.077 20.7159 135.792 19.9702 135.221 19.4418C134.65 18.9134 133.827 18.6491 132.753 18.6491C131.62 18.6491 130.721 18.8963 130.056 19.3906C129.4 19.8849 128.956 20.4687 128.726 21.142L124.405 20.5284C124.746 19.3352 125.309 18.3381 126.093 17.5369C126.877 16.7273 127.836 16.1222 128.969 15.7216C130.103 15.3125 131.355 15.108 132.728 15.108C133.674 15.108 134.615 15.2188 135.553 15.4403C136.49 15.6619 137.347 16.0284 138.123 16.5398C138.898 17.0426 139.52 17.7287 139.989 18.598C140.466 19.4673 140.705 20.554 140.705 21.858V35H136.256V32.3026H136.103C135.821 32.848 135.425 33.3594 134.914 33.8366C134.411 34.3054 133.776 34.6847 133.009 34.9744C132.25 35.2557 131.36 35.3963 130.337 35.3963ZM131.539 31.9957C132.468 31.9957 133.273 31.8125 133.955 31.446C134.637 31.071 135.161 30.5767 135.527 29.9631C135.902 29.3494 136.09 28.6804 136.09 27.956V25.642C135.945 25.7614 135.698 25.8722 135.348 25.9744C135.007 26.0767 134.624 26.1662 134.198 26.2429C133.772 26.3196 133.35 26.3878 132.932 26.4474C132.515 26.5071 132.152 26.5582 131.846 26.6009C131.155 26.6946 130.537 26.848 129.992 27.0611C129.446 27.2741 129.016 27.5724 128.701 27.956C128.385 28.331 128.228 28.8168 128.228 29.4134C128.228 30.2656 128.539 30.9091 129.161 31.3438C129.783 31.7784 130.576 31.9957 131.539 31.9957ZM160.878 20.554L156.659 21.0142C156.54 20.5881 156.331 20.1875 156.033 19.8125C155.743 19.4375 155.351 19.1349 154.857 18.9048C154.363 18.6747 153.757 18.5597 153.042 18.5597C152.078 18.5597 151.269 18.7685 150.613 19.1861C149.965 19.6037 149.645 20.1449 149.654 20.8097C149.645 21.3807 149.854 21.8452 150.28 22.2031C150.715 22.5611 151.431 22.8551 152.428 23.0852L155.777 23.8011C157.635 24.2017 159.016 24.8366 159.919 25.706C160.831 26.5753 161.292 27.7131 161.3 29.1193C161.292 30.3551 160.929 31.446 160.213 32.392C159.506 33.3295 158.522 34.0625 157.26 34.5909C155.999 35.1193 154.55 35.3835 152.914 35.3835C150.51 35.3835 148.576 34.8807 147.11 33.875C145.644 32.8608 144.77 31.4503 144.489 29.6435L149.002 29.2088C149.206 30.0952 149.641 30.7642 150.306 31.2159C150.971 31.6676 151.836 31.8935 152.901 31.8935C154 31.8935 154.882 31.6676 155.547 31.2159C156.221 30.7642 156.557 30.206 156.557 29.5412C156.557 28.9787 156.34 28.5142 155.905 28.1477C155.479 27.7812 154.814 27.5 153.911 27.304L150.561 26.6009C148.678 26.2088 147.284 25.5483 146.381 24.6193C145.478 23.6818 145.03 22.4972 145.039 21.0653C145.03 19.8551 145.358 18.8068 146.023 17.9205C146.696 17.0256 147.63 16.3352 148.823 15.8494C150.025 15.3551 151.409 15.108 152.978 15.108C155.279 15.108 157.09 15.598 158.411 16.5781C159.74 17.5582 160.563 18.8835 160.878 20.554ZM173.809 35.3835C171.841 35.3835 170.14 34.9744 168.708 34.1562C167.285 33.3295 166.19 32.1619 165.423 30.6534C164.656 29.1364 164.272 27.3509 164.272 25.2969C164.272 23.277 164.656 21.5043 165.423 19.9787C166.199 18.4446 167.281 17.2514 168.67 16.3991C170.059 15.5384 171.691 15.108 173.566 15.108C174.777 15.108 175.919 15.304 176.993 15.696C178.075 16.0795 179.029 16.6761 179.856 17.4858C180.691 18.2955 181.348 19.3267 181.825 20.5795C182.302 21.8239 182.541 23.3068 182.541 25.0284V26.4474H166.446V23.3281H178.105C178.096 22.4418 177.904 21.6534 177.529 20.9631C177.154 20.2642 176.63 19.7145 175.957 19.3139C175.292 18.9134 174.517 18.7131 173.63 18.7131C172.684 18.7131 171.853 18.9432 171.137 19.4034C170.422 19.8551 169.863 20.4517 169.463 21.1932C169.071 21.9261 168.87 22.7315 168.862 23.6094V26.3324C168.862 27.4744 169.071 28.4545 169.488 29.2727C169.906 30.0824 170.49 30.7045 171.24 31.1392C171.99 31.5653 172.868 31.7784 173.873 31.7784C174.547 31.7784 175.156 31.6847 175.701 31.4972C176.247 31.3011 176.72 31.0156 177.12 30.6406C177.521 30.2656 177.824 29.8011 178.028 29.2472L182.349 29.733C182.076 30.875 181.556 31.8722 180.789 32.7244C180.031 33.5682 179.059 34.2244 177.875 34.6932C176.69 35.1534 175.335 35.3835 173.809 35.3835Z" fill="#081F2C"/>
<path d="M93.8196 58.9023C94.5001 59.2873 94.7341 60.1434 94.3413 60.8103C93.9484 61.4774 93.075 61.7067 92.3946 61.3217C91.7142 60.9365 91.4801 60.0805 91.873 59.4135C92.2658 58.7467 93.1392 58.5172 93.8196 58.9023ZM90.8656 59.0702C90.3409 60.1421 90.7056 61.4557 91.7173 62.124C92.9214 62.9188 94.5426 62.5373 95.259 61.321C95.517 60.8829 95.6225 60.402 95.5853 59.9365C95.544 59.3725 95.4175 57.7751 95.3526 56.9189C95.3308 56.6537 95.044 56.4914 94.8056 56.6093C94.0204 56.9758 92.5419 57.6736 92.0231 57.9204C91.5328 58.1488 91.1221 58.5439 90.8656 59.0702ZM91.8173 55.5031C91.8173 56.2732 91.1779 56.9 90.3922 56.9C89.6064 56.9 88.967 56.2732 88.967 55.5031C88.967 54.7331 89.6064 54.1063 90.3922 54.1063C91.1779 54.1063 91.8173 54.7331 91.8173 55.5031ZM90.1919 53.0794C88.9825 53.17 88.0042 54.1365 87.9195 55.3295C87.8194 56.749 88.967 57.9344 90.3999 57.9344C90.916 57.9344 91.3936 57.7833 91.7864 57.5191C92.264 57.202 93.612 56.296 94.3361 55.8127C94.5595 55.6617 94.5595 55.3371 94.3361 55.1935C93.6198 54.7103 92.264 53.8043 91.7864 53.4872C91.3397 53.1852 90.785 53.0342 90.1919 53.0794ZM93.8193 52.1039C93.1389 52.4889 92.2655 52.2595 91.8727 51.5926C91.4798 50.9255 91.7137 50.0694 92.3943 49.6844C93.0747 49.2993 93.9481 49.5288 94.3409 50.1957C94.7338 50.8626 94.4998 51.7187 93.8193 52.1039ZM95.148 49.5122C94.4633 48.531 93.1203 48.1837 92.0239 48.7084C90.7196 49.3331 90.2461 50.9001 90.9625 52.1162C91.2205 52.5544 91.5928 52.8842 92.0227 53.0856C92.5417 53.3324 94.0163 54.0238 94.8053 54.3967C95.0504 54.5109 95.3372 54.3485 95.3523 54.0873C95.4211 53.2375 95.5436 51.6336 95.585 51.0697C95.6286 50.5394 95.4846 49.9931 95.148 49.5122Z" fill="#1D60AC"/>
<path d="M97.8238 52.1034C97.1433 51.7184 96.9093 50.8623 97.3022 50.1954C97.695 49.5283 98.5684 49.2989 99.2488 49.6841C99.9293 50.0691 100.163 50.9252 99.7704 51.5921C99.3776 52.2591 98.5042 52.4885 97.8238 52.1034ZM100.778 51.9356C101.302 50.8637 100.938 49.55 99.9261 48.8816C98.722 48.0869 97.1008 48.4684 96.3844 49.6847C96.1263 50.1229 96.0209 50.6037 96.058 51.0693C96.0993 51.6333 96.2259 53.2306 96.2908 54.0868C96.3125 54.3519 96.5994 54.5143 96.8378 54.3963C97.6229 54.0298 99.1012 53.3321 99.6203 53.0852C100.111 52.857 100.521 52.4617 100.778 51.9356ZM99.8262 55.5026C99.8262 54.7324 100.465 54.1057 101.251 54.1057C102.037 54.1057 102.676 54.7324 102.676 55.5026C102.676 56.2727 102.037 56.8993 101.251 56.8993C100.465 56.8993 99.8262 56.2727 99.8262 55.5026ZM101.451 57.9262C102.661 57.8356 103.639 56.8692 103.724 55.6761C103.824 54.2567 102.676 53.0714 101.243 53.0714C100.727 53.0714 100.25 53.2224 99.857 53.4865C99.3794 53.8037 98.0313 54.7099 97.3072 55.193C97.0838 55.344 97.0838 55.6687 97.3072 55.8122C98.0236 56.2953 99.3794 57.2015 99.857 57.5185C100.304 57.8205 100.858 57.9715 101.451 57.9262ZM97.8241 58.902C98.5045 58.5168 99.3779 58.7463 99.7708 59.4132C100.164 60.0801 99.9296 60.9362 99.2491 61.3212C98.5687 61.7063 97.6953 61.477 97.3025 60.8099C96.9096 60.143 97.1437 59.287 97.8241 58.902ZM96.4954 61.4935C97.1801 62.4747 98.5231 62.8219 99.6194 62.2974C100.924 61.6727 101.397 60.1056 100.681 58.8894C100.423 58.4513 100.051 58.1215 99.6206 57.9201C99.1017 57.6733 97.6271 56.982 96.8381 56.609C96.593 56.4948 96.3061 56.6572 96.2911 56.9186C96.2223 57.7682 96.0996 59.372 96.0583 59.9361C96.0149 60.4663 96.1587 61.0127 96.4954 61.4935Z" fill="#F9AD16"/>
<path d="M177.853 56.1197H181.64C181.561 55.1202 180.872 54.4584 179.773 54.4584C178.727 54.4584 178.052 55.0293 177.853 56.1197ZM182.991 57.9629C182.753 59.3127 181.548 60.1953 179.905 60.1953C177.84 60.1953 176.555 58.5988 176.555 56.7817C176.555 54.9514 177.721 53.4459 179.773 53.4459C181.839 53.4459 182.938 54.8866 182.938 56.5479C182.938 56.7169 182.925 56.9245 182.912 57.0413H177.813C177.92 58.2742 178.74 59.1181 179.905 59.1181C180.886 59.1181 181.521 58.7028 181.707 57.9629H182.991ZM170.792 57.9629H171.997C172.076 58.7156 172.633 59.1441 173.493 59.1441C174.262 59.1441 174.752 58.7416 174.752 58.2614C174.752 56.522 170.964 58.1186 170.964 55.328C170.964 54.1988 171.944 53.4459 173.335 53.4459C174.844 53.4459 175.877 54.2636 175.943 55.4968H174.738C174.645 54.7438 173.904 54.4453 173.335 54.4453C172.646 54.4453 172.183 54.7828 172.183 55.2891C172.183 56.9115 175.996 55.2502 175.996 58.2353C175.996 59.4295 175.003 60.1953 173.493 60.1953C171.931 60.1953 170.885 59.3387 170.792 57.9629ZM168.602 56.8206C168.602 55.4579 167.794 54.5492 166.549 54.5492C165.318 54.5492 164.51 55.4579 164.51 56.8206C164.51 58.1835 165.318 59.0921 166.549 59.0921C167.794 59.0921 168.602 58.1835 168.602 56.8206ZM163.199 56.8206C163.199 54.8737 164.351 53.4459 166.39 53.4459C167.264 53.4459 168.098 53.8483 168.509 54.4195V53.5498H169.793V60.0916H168.509V59.2089C168.191 59.7671 167.344 60.1953 166.403 60.1953C164.351 60.1953 163.199 58.7676 163.199 56.8206ZM161.241 56.8206C161.241 55.4579 160.42 54.5492 159.189 54.5492C157.944 54.5492 157.136 55.4579 157.136 56.8206C157.136 58.1835 157.944 59.0921 159.189 59.0921C160.42 59.0921 161.241 58.1835 161.241 56.8206ZM157.242 59.1181V60.0916H155.958V50.811H157.242V54.5104C157.626 53.8742 158.434 53.4459 159.348 53.4459C161.387 53.4459 162.539 54.8737 162.539 56.8206C162.539 58.7676 161.387 60.1953 159.334 60.1953C158.447 60.1953 157.626 59.7671 157.242 59.1181ZM152.018 51.4989H153.303V53.5498H155.276V54.6401H153.303V57.8589C153.303 58.5599 153.686 58.9493 154.335 58.9493H155.276V60.0916H154.23C152.879 60.0916 152.018 59.2868 152.018 57.9501V54.6401H150.654V53.5498H152.018V51.4989ZM144.03 56.8206C144.03 55.0165 145.235 53.4459 147.341 53.4459C148.903 53.4459 150.254 54.3544 150.439 55.8342H149.155C149.036 55.0943 148.268 54.5492 147.367 54.5492C146.03 54.5492 145.368 55.5616 145.368 56.8206C145.368 58.0797 146.043 59.0921 147.367 59.0921C148.281 59.0921 148.956 58.6247 149.168 57.885H150.439C150.228 59.2609 149.036 60.1953 147.341 60.1953C145.235 60.1953 144.03 58.6247 144.03 56.8206ZM138.369 56.1197H142.156C142.077 55.1202 141.388 54.4584 140.289 54.4584C139.243 54.4584 138.568 55.0293 138.369 56.1197ZM143.507 57.9629C143.269 59.3127 142.063 60.1953 140.422 60.1953C138.356 60.1953 137.071 58.5988 137.071 56.7817C137.071 54.9514 138.237 53.4459 140.289 53.4459C142.355 53.4459 143.454 54.8866 143.454 56.5479C143.454 56.7169 143.441 56.9245 143.428 57.0413H138.329C138.435 58.2742 139.256 59.1181 140.422 59.1181C141.401 59.1181 142.037 58.7028 142.222 57.9629H143.507ZM130.271 60.0916V53.5498H131.555V54.7049C131.913 53.8873 132.708 53.4459 133.701 53.4459C135.211 53.4459 136.19 54.5104 136.19 56.0679V60.0916H134.906V56.3144C134.906 55.276 134.283 54.5752 133.343 54.5752C132.297 54.5752 131.555 55.4059 131.555 56.5479V60.0916H130.271ZM123.081 60.0916V53.5498H124.366V54.7049C124.724 53.8873 125.518 53.4459 126.511 53.4459C128.021 53.4459 129.001 54.5104 129.001 56.0679V60.0916H127.716V56.3144C127.716 55.276 127.094 54.5752 126.154 54.5752C125.108 54.5752 124.366 55.4059 124.366 56.5479V60.0916H123.081ZM120.865 56.8206C120.865 55.4837 120.004 54.5492 118.746 54.5492C117.475 54.5492 116.614 55.4837 116.614 56.8206C116.614 58.1577 117.475 59.0921 118.746 59.0921C120.004 59.0921 120.865 58.1577 120.865 56.8206ZM115.303 56.8206C115.303 54.8606 116.746 53.4459 118.746 53.4459C120.745 53.4459 122.175 54.8606 122.175 56.8206C122.175 58.7807 120.745 60.1953 118.746 60.1953C116.746 60.1953 115.303 58.7807 115.303 56.8206ZM106.211 55.5488C106.211 52.4336 108.382 50.9019 110.739 50.9019C112.845 50.9019 114.514 52.1479 114.765 53.9262H113.322C113.163 52.8619 112.077 52.0959 110.726 52.0959C108.925 52.0959 107.628 53.3032 107.628 55.5488C107.628 57.7941 108.925 59.0013 110.726 59.0013C112.103 59.0013 113.202 58.2353 113.348 57.171H114.739C114.54 58.9493 112.885 60.1953 110.739 60.1953C108.356 60.1953 106.211 58.6639 106.211 55.5488Z" fill="#161F27"/>
<path d="M70.7173 59V51.7273H72.0028V54.4474H72.0561C72.1224 54.3149 72.2159 54.174 72.3366 54.0249C72.4574 53.8733 72.6207 53.7443 72.8267 53.6378C73.0327 53.5289 73.2955 53.4744 73.6151 53.4744C74.0365 53.4744 74.4164 53.5821 74.755 53.7976C75.0959 54.0107 75.3658 54.3267 75.5646 54.7457C75.7659 55.1624 75.8665 55.6738 75.8665 56.2798C75.8665 56.8788 75.7682 57.3878 75.5717 57.8068C75.3752 58.2259 75.1077 58.5455 74.7692 58.7656C74.4306 58.9858 74.0471 59.0959 73.6186 59.0959C73.3061 59.0959 73.0469 59.0438 72.8409 58.9396C72.6349 58.8355 72.4692 58.71 72.3438 58.5632C72.2206 58.4141 72.1248 58.2732 72.0561 58.1406H71.9815V59H70.7173ZM71.978 56.2727C71.978 56.6255 72.0277 56.9344 72.1271 57.1996C72.2289 57.4647 72.3745 57.6719 72.5639 57.821C72.7557 57.9678 72.9877 58.0412 73.2599 58.0412C73.544 58.0412 73.782 57.9654 73.9737 57.8139C74.1655 57.66 74.3099 57.4505 74.407 57.1854C74.5064 56.9179 74.5561 56.6136 74.5561 56.2727C74.5561 55.9342 74.5076 55.6335 74.4105 55.3707C74.3134 55.108 74.169 54.902 73.9773 54.7528C73.7855 54.6037 73.5464 54.5291 73.2599 54.5291C72.9853 54.5291 72.7521 54.6013 72.5604 54.7457C72.3686 54.8902 72.223 55.0926 72.1236 55.353C72.0265 55.6134 71.978 55.92 71.978 56.2727ZM77.5728 61.0455C77.3976 61.0455 77.2354 61.0313 77.0863 61.0028C76.9395 60.9768 76.8223 60.946 76.7347 60.9105L77.033 59.9091C77.2201 59.9635 77.387 59.9896 77.5337 59.9872C77.6805 59.9848 77.8095 59.9387 77.9208 59.8487C78.0344 59.7611 78.1303 59.6143 78.2085 59.4084L78.3185 59.1136L76.3406 53.5455H77.7042L78.9613 57.6648H79.0181L80.2788 53.5455H81.646L79.462 59.6605C79.3602 59.9493 79.2253 60.1967 79.0572 60.4027C78.8891 60.611 78.6831 60.7696 78.4393 60.8786C78.1978 60.9898 77.909 61.0455 77.5728 61.0455Z" fill="#081F2C"/>
</svg>
