<svg width="25" height="24" viewBox="0 0 25 24" fill="none" xmlns="http://www.w3.org/2000/svg">
<path d="M5.50305 22H9.50305H15.5031H19.5031C20.6061 22 21.5031 21.103 21.5031 20V11C21.5031 10.735 21.3981 10.48 21.2101 10.293L13.2101 2.29301C12.8191 1.90201 12.1871 1.90201 11.7961 2.29301L3.79605 10.293C3.60805 10.48 3.50305 10.735 3.50305 11V20C3.50305 21.103 4.40005 22 5.50305 22ZM10.5031 20V15H14.5031V20H10.5031ZM5.50305 11.414L12.5031 4.41401L19.5031 11.414L19.5041 20H16.5031V15C16.5031 13.897 15.6061 13 14.5031 13H10.5031C9.40005 13 8.50305 13.897 8.50305 15V20H5.50305V11.414Z" fill="#8FA4B0"/>
</svg>
