<svg width="25" height="24" viewBox="0 0 25 24" fill="none" xmlns="http://www.w3.org/2000/svg">
<path d="M9.5 18.4V8.40002C9.5 7.29545 10.3954 6.40002 11.5 6.40002H13.5C14.6046 6.40002 15.5 7.29545 15.5 8.40002V18.4M9.5 18.4C9.5 19.5046 10.3954 20.4 11.5 20.4H13.5C14.6046 20.4 15.5 19.5046 15.5 18.4M9.5 18.4V12.4C9.5 11.2954 8.60457 10.4 7.5 10.4H5.5C4.39543 10.4 3.5 11.2954 3.5 12.4V18.4C3.5 19.5046 4.39543 20.4 5.5 20.4H7.5C8.60457 20.4 9.5 19.5046 9.5 18.4ZM15.5 18.4V4.40002C15.5 3.29545 16.3954 2.40002 17.5 2.40002H19.5C20.6046 2.40002 21.5 3.29545 21.5 4.40002V18.4C21.5 19.5046 20.6046 20.4 19.5 20.4H17.5C16.3954 20.4 15.5 19.5046 15.5 18.4Z" stroke="#8FA4B0" stroke-width="1.5" stroke-linecap="round" stroke-linejoin="round"/>
</svg>
