<svg width="25" height="25" viewBox="0 0 25 25" fill="none" xmlns="http://www.w3.org/2000/svg">
<path d="M19.2883 17.5883C18.1643 18.7122 15.8139 21.0625 14.1966 22.6799C13.2593 23.6172 11.7413 23.6177 10.8039 22.6804C9.21483 21.0912 6.90993 18.7864 5.7118 17.5883C1.96276 13.8393 1.96276 7.76082 5.7118 4.01179C9.46083 0.262752 15.5393 0.262752 19.2883 4.01179C23.0372 7.76082 23.0372 13.8393 19.2883 17.5883Z" stroke="#8FA4B0" stroke-width="1.5" stroke-linecap="round" stroke-linejoin="round"/>
<path d="M16.1 10.8C16.1 12.7883 14.4883 14.4 12.5 14.4C10.5117 14.4 8.90002 12.7883 8.90002 10.8C8.90002 8.81179 10.5117 7.20001 12.5 7.20001C14.4883 7.20001 16.1 8.81179 16.1 10.8Z" stroke="#8FA4B0" stroke-width="1.5" stroke-linecap="round" stroke-linejoin="round"/>
</svg>
