<?xml version="1.0" encoding="utf-8"?>
<!-- Generator: Adobe Illustrator 27.0.1, SVG Export Plug-In . SVG Version: 6.00 Build 0)  -->
<svg version="1.1" id="Layer_1" xmlns="http://www.w3.org/2000/svg" xmlns:xlink="http://www.w3.org/1999/xlink" x="0px" y="0px"
	 viewBox="0 0 16.6 16.6" style="enable-background:new 0 0 16.6 16.6;" xml:space="preserve">
<style type="text/css">
	.st0{fill:none;stroke:#8FA4B0;stroke-width:1.5;stroke-linecap:round;stroke-linejoin:round;}
</style>
<g>
	<path class="st0" d="M6.9,1.9c0.4-1.5,2.5-1.5,2.8,0c0.2,1,1.3,1.4,2.2,0.9c1.3-0.8,2.8,0.7,2,2c-0.5,0.8-0.1,1.9,0.9,2.2
		c1.5,0.4,1.5,2.5,0,2.8c-1,0.2-1.4,1.3-0.9,2.2c0.8,1.3-0.7,2.8-2,2c-0.8-0.5-1.9-0.1-2.2,0.9c-0.4,1.5-2.5,1.5-2.8,0
		c-0.2-1-1.3-1.4-2.2-0.9c-1.3,0.8-2.8-0.7-2-2c0.5-0.8,0.1-1.9-0.9-2.2c-1.5-0.4-1.5-2.5,0-2.8c1-0.2,1.4-1.3,0.9-2.2
		C2,3.4,3.4,2,4.7,2.8C5.6,3.3,6.7,2.8,6.9,1.9z"/>
	<path class="st0" d="M10.8,8.3c0,1.4-1.1,2.5-2.5,2.5S5.8,9.7,5.8,8.3s1.1-2.5,2.5-2.5S10.8,6.9,10.8,8.3z"/>
</g>
</svg>
