<svg width="16" height="16" viewBox="0 0 16 16" fill="none" xmlns="http://www.w3.org/2000/svg">
<g clip-path="url(#clip0_1650_3577)">
<mask id="path-1-inside-1_1650_3577" fill="white">
<path d="M15.8 7.5H8.4V5H10.4C10.8418 5 11.2 4.55219 11.2 4V1C11.2 0.447812 10.8418 0 10.4 0H5.6C5.15825 0 4.8 0.447812 4.8 1V4C4.8 4.55219 5.15825 5 5.6 5H7.6V7.5H0.2C0.0895 7.5 0 7.61187 0 7.75V8.25C0 8.38813 0.0895 8.5 0.2 8.5H3.2V11H1.6C1.15825 11 0.8 11.4478 0.8 12V15C0.8 15.5522 1.15825 16 1.6 16H5.6C6.04175 16 6.4 15.5522 6.4 15V12C6.4 11.4478 6.04175 11 5.6 11H4V8.5H12V11H10.4C9.95825 11 9.6 11.4478 9.6 12V15C9.6 15.5522 9.95825 16 10.4 16H14.4C14.8418 16 15.2 15.5522 15.2 15V12C15.2 11.4478 14.8418 11 14.4 11H12.8V8.5H15.8C15.9105 8.5 16 8.38813 16 8.25V7.75C16 7.61187 15.9105 7.5 15.8 7.5ZM5.6 12V15H1.6V12H5.6ZM5.6 4V1H10.4V4H5.6ZM14.4 12V15H10.4V12H14.4Z"/>
</mask>
<path d="M15.8 7.5H8.4V5H10.4C10.8418 5 11.2 4.55219 11.2 4V1C11.2 0.447812 10.8418 0 10.4 0H5.6C5.15825 0 4.8 0.447812 4.8 1V4C4.8 4.55219 5.15825 5 5.6 5H7.6V7.5H0.2C0.0895 7.5 0 7.61187 0 7.75V8.25C0 8.38813 0.0895 8.5 0.2 8.5H3.2V11H1.6C1.15825 11 0.8 11.4478 0.8 12V15C0.8 15.5522 1.15825 16 1.6 16H5.6C6.04175 16 6.4 15.5522 6.4 15V12C6.4 11.4478 6.04175 11 5.6 11H4V8.5H12V11H10.4C9.95825 11 9.6 11.4478 9.6 12V15C9.6 15.5522 9.95825 16 10.4 16H14.4C14.8418 16 15.2 15.5522 15.2 15V12C15.2 11.4478 14.8418 11 14.4 11H12.8V8.5H15.8C15.9105 8.5 16 8.38813 16 8.25V7.75C16 7.61187 15.9105 7.5 15.8 7.5ZM5.6 12V15H1.6V12H5.6ZM5.6 4V1H10.4V4H5.6ZM14.4 12V15H10.4V12H14.4Z" fill="#535353"/>
<path d="M8.4 7.5H7.4V8.5H8.4V7.5ZM8.4 5V4H7.4V5H8.4ZM7.6 5H8.6V4H7.6V5ZM7.6 7.5V8.5H8.6V7.5H7.6ZM3.2 8.5H4.2V7.5H3.2V8.5ZM3.2 11V12H4.2V11H3.2ZM4 11H3V12H4V11ZM4 8.5V7.5H3V8.5H4ZM12 8.5H13V7.5H12V8.5ZM12 11V12H13V11H12ZM12.8 11H11.8V12H12.8V11ZM12.8 8.5V7.5H11.8V8.5H12.8ZM5.6 12H6.6V11H5.6V12ZM5.6 15V16H6.6V15H5.6ZM1.6 15H0.6V16H1.6V15ZM1.6 12V11H0.6V12H1.6ZM5.6 4H4.6V5H5.6V4ZM5.6 1V0H4.6V1H5.6ZM10.4 1H11.4V0H10.4V1ZM10.4 4V5H11.4V4H10.4ZM14.4 12H15.4V11H14.4V12ZM14.4 15V16H15.4V15H14.4ZM10.4 15H9.4V16H10.4V15ZM10.4 12V11H9.4V12H10.4ZM15.8 6.5H8.4V8.5H15.8V6.5ZM9.4 7.5V5H7.4V7.5H9.4ZM8.4 6H10.4V4H8.4V6ZM10.4 6C11.5907 6 12.2 4.88471 12.2 4H10.2C10.2 4.06486 10.1781 4.0907 10.1848 4.08238C10.1892 4.07685 10.2066 4.0571 10.2439 4.03739C10.2833 4.01657 10.3376 4 10.4 4V6ZM12.2 4V1H10.2V4H12.2ZM12.2 1C12.2 0.115292 11.5907 -1 10.4 -1V1C10.3376 1 10.2833 0.98343 10.2439 0.962608C10.2066 0.942899 10.1892 0.923145 10.1848 0.917625C10.1781 0.909304 10.2 0.93514 10.2 1H12.2ZM10.4 -1H5.6V1H10.4V-1ZM5.6 -1C4.40927 -1 3.8 0.115292 3.8 1H5.8C5.8 0.93514 5.82187 0.909304 5.81521 0.917625C5.8108 0.923145 5.79338 0.942899 5.75611 0.962608C5.71673 0.98343 5.66235 1 5.6 1V-1ZM3.8 1V4H5.8V1H3.8ZM3.8 4C3.8 4.88471 4.40927 6 5.6 6V4C5.66235 4 5.71673 4.01657 5.75611 4.03739C5.79338 4.0571 5.8108 4.07685 5.81521 4.08238C5.82187 4.0907 5.8 4.06486 5.8 4H3.8ZM5.6 6H7.6V4H5.6V6ZM6.6 5V7.5H8.6V5H6.6ZM7.6 6.5H0.2V8.5H7.6V6.5ZM0.2 6.5C-0.659483 6.5 -1 7.27935 -1 7.75H1C1 7.8919 0.954839 8.05364 0.839431 8.1979C0.72249 8.34407 0.502714 8.5 0.2 8.5V6.5ZM-1 7.75V8.25H1V7.75H-1ZM-1 8.25C-1 8.72065 -0.659483 9.5 0.2 9.5V7.5C0.502714 7.5 0.72249 7.65593 0.839431 7.8021C0.954839 7.94636 1 8.1081 1 8.25H-1ZM0.2 9.5H3.2V7.5H0.2V9.5ZM2.2 8.5V11H4.2V8.5H2.2ZM3.2 10H1.6V12H3.2V10ZM1.6 10C0.409267 10 -0.2 11.1153 -0.2 12H1.8C1.8 11.9351 1.82187 11.9093 1.81521 11.9176C1.8108 11.9231 1.79338 11.9429 1.75611 11.9626C1.71673 11.9834 1.66235 12 1.6 12V10ZM-0.2 12V15H1.8V12H-0.2ZM-0.2 15C-0.2 15.8847 0.409267 17 1.6 17V15C1.66235 15 1.71673 15.0166 1.75611 15.0374C1.79338 15.0571 1.8108 15.0769 1.81521 15.0824C1.82187 15.0907 1.8 15.0649 1.8 15H-0.2ZM1.6 17H5.6V15H1.6V17ZM5.6 17C6.79073 17 7.4 15.8847 7.4 15H5.4C5.4 15.0649 5.37813 15.0907 5.38479 15.0824C5.3892 15.0769 5.40662 15.0571 5.44389 15.0374C5.48327 15.0166 5.53765 15 5.6 15V17ZM7.4 15V12H5.4V15H7.4ZM7.4 12C7.4 11.1153 6.79073 10 5.6 10V12C5.53765 12 5.48327 11.9834 5.44389 11.9626C5.40662 11.9429 5.3892 11.9231 5.38479 11.9176C5.37813 11.9093 5.4 11.9351 5.4 12H7.4ZM5.6 10H4V12H5.6V10ZM5 11V8.5H3V11H5ZM4 9.5H12V7.5H4V9.5ZM11 8.5V11H13V8.5H11ZM12 10H10.4V12H12V10ZM10.4 10C9.20927 10 8.6 11.1153 8.6 12H10.6C10.6 11.9351 10.6219 11.9093 10.6152 11.9176C10.6108 11.9231 10.5934 11.9429 10.5561 11.9626C10.5167 11.9834 10.4624 12 10.4 12V10ZM8.6 12V15H10.6V12H8.6ZM8.6 15C8.6 15.8847 9.20927 17 10.4 17V15C10.4624 15 10.5167 15.0166 10.5561 15.0374C10.5934 15.0571 10.6108 15.0769 10.6152 15.0824C10.6219 15.0907 10.6 15.0649 10.6 15H8.6ZM10.4 17H14.4V15H10.4V17ZM14.4 17C15.5907 17 16.2 15.8847 16.2 15H14.2C14.2 15.0649 14.1781 15.0907 14.1848 15.0824C14.1892 15.0769 14.2066 15.0571 14.2439 15.0374C14.2833 15.0166 14.3376 15 14.4 15V17ZM16.2 15V12H14.2V15H16.2ZM16.2 12C16.2 11.1153 15.5907 10 14.4 10V12C14.3376 12 14.2833 11.9834 14.2439 11.9626C14.2066 11.9429 14.1892 11.9231 14.1848 11.9176C14.1781 11.9093 14.2 11.9351 14.2 12H16.2ZM14.4 10H12.8V12H14.4V10ZM13.8 11V8.5H11.8V11H13.8ZM12.8 9.5H15.8V7.5H12.8V9.5ZM15.8 9.5C16.6595 9.5 17 8.72065 17 8.25H15C15 8.1081 15.0452 7.94636 15.1606 7.8021C15.2775 7.65593 15.4973 7.5 15.8 7.5V9.5ZM17 8.25V7.75H15V8.25H17ZM17 7.75C17 7.27935 16.6595 6.5 15.8 6.5V8.5C15.4973 8.5 15.2775 8.34407 15.1606 8.1979C15.0452 8.05364 15 7.8919 15 7.75H17ZM4.6 12V15H6.6V12H4.6ZM5.6 14H1.6V16H5.6V14ZM2.6 15V12H0.6V15H2.6ZM1.6 13H5.6V11H1.6V13ZM6.6 4V1H4.6V4H6.6ZM5.6 2H10.4V0H5.6V2ZM9.4 1V4H11.4V1H9.4ZM10.4 3H5.6V5H10.4V3ZM13.4 12V15H15.4V12H13.4ZM14.4 14H10.4V16H14.4V14ZM11.4 15V12H9.4V15H11.4ZM10.4 13H14.4V11H10.4V13Z" fill="#FF773D" mask="url(#path-1-inside-1_1650_3577)"/>
</g>
<defs>
<clipPath id="clip0_1650_3577">
<rect width="16" height="16" fill="white"/>
</clipPath>
</defs>
</svg>
