<svg width="16" height="16" viewBox="0 0 16 16" fill="none" xmlns="http://www.w3.org/2000/svg">
<path d="M2.59037 13.4423L2.59044 13.4424C2.66665 13.5057 2.77314 13.5179 2.86182 13.4736L13.3618 8.22361C13.3618 8.22361 13.3618 8.22361 13.3618 8.22361C13.4465 8.18125 13.5 8.09468 13.5 8.00001C13.5 7.90532 13.4465 7.81879 13.3618 7.77642C13.3618 7.77642 13.3618 7.77642 13.3618 7.77642L2.86182 2.52643L2.86177 2.52641C2.7731 2.48206 2.66666 2.49433 2.59047 2.55759L2.59033 2.5577C2.51408 2.62096 2.48242 2.72334 2.50965 2.81861L2.50967 2.81869L3.58103 6.56863C3.61172 6.676 3.70986 6.75001 3.82148 6.75001L7.25002 6.75001C7.94039 6.75001 8.50002 7.30964 8.50002 8.00001C8.50002 8.69035 7.94039 9.25001 7.25002 9.25001H3.82148C3.70984 9.25001 3.61171 9.32401 3.58103 9.43137L2.50967 13.1813L2.50965 13.1814C2.48242 13.2766 2.51406 13.379 2.59037 13.4423Z" fill="#005EB8" stroke="#005EB8"/>
</svg>
