<svg width="16" height="17" viewBox="0 0 16 17" fill="none" xmlns="http://www.w3.org/2000/svg">
<path fill-rule="evenodd" clip-rule="evenodd" d="M8.5 13.42C11.2172 13.42 13.42 11.2172 13.42 8.5C13.42 5.78276 11.2172 3.58 8.5 3.58C5.78276 3.58 3.58 5.78276 3.58 8.5C3.58 11.2172 5.78276 13.42 8.5 13.42ZM8.5 15C12.0899 15 15 12.0899 15 8.5C15 4.91015 12.0899 2 8.5 2C4.91015 2 2 4.91015 2 8.5C2 12.0899 4.91015 15 8.5 15ZM7.71 8.0001V5.9C7.71 5.4637 8.06369 5.11 8.5 5.11C8.93631 5.11 9.29 5.4637 9.29 5.9V8.0001C9.29 8.4364 8.93631 8.7901 8.5 8.7901C8.06369 8.7901 7.71 8.4364 7.71 8.0001ZM9.29 10.45C9.29 10.0137 8.93631 9.66 8.5 9.66C8.06369 9.66 7.71 10.0137 7.71 10.45V11.1C7.71 11.5363 8.06369 11.89 8.5 11.89C8.93631 11.89 9.29 11.5363 9.29 11.1V10.45Z" fill="#FF5372"/>
</svg>
