<svg width="16" height="16" viewBox="0 0 16 16" fill="none" xmlns="http://www.w3.org/2000/svg">
<g clip-path="url(#clip0_2135_11621)">
<path fill-rule="evenodd" clip-rule="evenodd" d="M14 1H2C1.73478 1 1.48043 1.10536 1.29289 1.29289C1.10536 1.48043 1 1.73478 1 2V14C1 14.2652 1.10536 14.5196 1.29289 14.7071C1.48043 14.8946 1.73478 15 2 15H14C14.2652 15 14.5196 14.8946 14.7071 14.7071C14.8946 14.5196 15 14.2652 15 14V2C15 1.73478 14.8946 1.48043 14.7071 1.29289C14.5196 1.10536 14.2652 1 14 1ZM2 0C1.46957 0 0.960859 0.210714 0.585786 0.585786C0.210714 0.960859 0 1.46957 0 2L0 14C0 14.5304 0.210714 15.0391 0.585786 15.4142C0.960859 15.7893 1.46957 16 2 16H14C14.5304 16 15.0391 15.7893 15.4142 15.4142C15.7893 15.0391 16 14.5304 16 14V2C16 1.46957 15.7893 0.960859 15.4142 0.585786C15.0391 0.210714 14.5304 0 14 0L2 0Z" fill="#005EB8"/>
<path fill-rule="evenodd" clip-rule="evenodd" d="M10.5 5H6.50001C6.3674 5 6.24022 5.05268 6.14645 5.14645C6.05268 5.24021 6.00001 5.36739 6.00001 5.5C6.00001 5.63261 6.05268 5.75979 6.14645 5.85355C6.24022 5.94732 6.3674 6 6.50001 6H9.29301L5.14601 10.146C5.05212 10.2399 4.99937 10.3672 4.99937 10.5C4.99937 10.6328 5.05212 10.7601 5.14601 10.854C5.23989 10.9479 5.36723 11.0006 5.50001 11.0006C5.63278 11.0006 5.76012 10.9479 5.85401 10.854L10 6.707V9.5C10 9.63261 10.0527 9.75979 10.1465 9.85355C10.2402 9.94732 10.3674 10 10.5 10C10.6326 10 10.7598 9.94732 10.8536 9.85355C10.9473 9.75979 11 9.63261 11 9.5V5.5C11 5.36739 10.9473 5.24021 10.8536 5.14645C10.7598 5.05268 10.6326 5 10.5 5Z" fill="#005EB8"/>
</g>
<defs>
<clipPath id="clip0_2135_11621">
<rect width="16" height="16" fill="white"/>
</clipPath>
</defs>
</svg>
