<svg width="18" height="18" viewBox="0 0 18 18" fill="none" xmlns="http://www.w3.org/2000/svg">
<path d="M4.13613 9.76113C4.35586 9.98086 4.71199 9.98086 4.93172 9.76113L6.75 7.9432L9.72738 10.9206C9.94711 11.1403 10.3032 11.1403 10.523 10.9206L14.3979 7.04531L15.4346 8.08242C15.9662 8.61398 16.875 8.23746 16.875 7.48582V3.9375C16.875 3.62672 16.6233 3.375 16.3125 3.375H12.7642C12.0125 3.375 11.636 4.28379 12.1676 4.81535L13.2047 5.85211L10.125 8.9318L7.14762 5.95441C6.92789 5.73469 6.57176 5.73469 6.35203 5.95441L3.73852 8.56793C3.51879 8.78766 3.51879 9.14379 3.73852 9.36352L4.13613 9.76113V9.76113ZM17.4375 14.0625H1.6875V2.8125C1.6875 2.50172 1.43578 2.25 1.125 2.25H0.5625C0.251719 2.25 0 2.50172 0 2.8125V14.625C0 15.2462 0.503789 15.75 1.125 15.75H17.4375C17.7483 15.75 18 15.4983 18 15.1875V14.625C18 14.3142 17.7483 14.0625 17.4375 14.0625Z" fill="#9AAEC0"/>
</svg>
