<svg width="18" height="18" viewBox="0 0 18 18" fill="none" xmlns="http://www.w3.org/2000/svg">
<path d="M10.371 7.62876C9.80842 7.06634 9.04549 6.7504 8.25 6.7504C7.45451 6.7504 6.69158 7.06634 6.129 7.62876L3.129 10.6288C2.84247 10.9055 2.61392 11.2365 2.4567 11.6025C2.29947 11.9686 2.21671 12.3622 2.21325 12.7606C2.20979 13.1589 2.28569 13.5539 2.43653 13.9226C2.58738 14.2913 2.81014 14.6263 3.09181 14.9079C3.37349 15.1896 3.70845 15.4124 4.07714 15.5632C4.44583 15.7141 4.84087 15.79 5.2392 15.7865C5.63754 15.783 6.0312 15.7003 6.39721 15.5431C6.76323 15.3858 7.09426 15.1573 7.371 14.8708L8.1975 14.045M7.629 10.3708C8.19158 10.9332 8.95451 11.2491 9.75 11.2491C10.5455 11.2491 11.3084 10.9332 11.871 10.3708L14.871 7.37076C15.4175 6.80495 15.7199 6.04714 15.713 5.26055C15.7062 4.47396 15.3907 3.72153 14.8345 3.1653C14.2782 2.60908 13.5258 2.29357 12.7392 2.28673C11.9526 2.2799 11.1948 2.58228 10.629 3.12876L9.804 3.95376" stroke="#005EB8" stroke-width="1.5" stroke-linecap="round" stroke-linejoin="round"/>
</svg>
