<svg width="20" height="21" viewBox="0 0 20 21" fill="none" xmlns="http://www.w3.org/2000/svg">
<path d="M12.0827 8.76188C11.391 8.76188 10.8327 8.20355 10.8327 7.51188V3.34521C10.8327 2.65355 11.391 2.09521 12.0827 2.09521C12.7743 2.09521 13.3327 2.65355 13.3327 3.34521V7.51188C13.3327 8.20355 12.7743 8.76188 12.0827 8.76188ZM17.0827 8.76188H15.8327V7.51188C15.8327 6.82021 16.391 6.26188 17.0827 6.26188C17.7743 6.26188 18.3327 6.82021 18.3327 7.51188C18.3327 8.20355 17.7743 8.76188 17.0827 8.76188ZM7.91602 12.0952C8.60768 12.0952 9.16602 12.6535 9.16602 13.3452V17.5119C9.16602 18.2035 8.60768 18.7619 7.91602 18.7619C7.22435 18.7619 6.66602 18.2035 6.66602 17.5119V13.3452C6.66602 12.6535 7.22435 12.0952 7.91602 12.0952ZM2.91602 12.0952H4.16602V13.3452C4.16602 14.0369 3.60768 14.5952 2.91602 14.5952C2.22435 14.5952 1.66602 14.0369 1.66602 13.3452C1.66602 12.6535 2.22435 12.0952 2.91602 12.0952ZM11.666 12.5119C11.666 11.8202 12.2243 11.2619 12.916 11.2619H17.0827C17.7743 11.2619 18.3327 11.8202 18.3327 12.5119C18.3327 13.2035 17.7743 13.7619 17.0827 13.7619H12.916C12.2243 13.7619 11.666 13.2035 11.666 12.5119ZM12.916 16.2619H11.666V17.5119C11.666 18.2035 12.2243 18.7619 12.916 18.7619C13.6077 18.7619 14.166 18.2035 14.166 17.5119C14.166 16.8202 13.6077 16.2619 12.916 16.2619ZM8.33268 8.34521C8.33268 7.65355 7.77435 7.09521 7.08268 7.09521H2.91602C2.22435 7.09521 1.66602 7.65355 1.66602 8.34521C1.66602 9.03688 2.22435 9.59521 2.91602 9.59521H7.08268C7.77435 9.59521 8.33268 9.03688 8.33268 8.34521ZM7.08268 4.59521H8.33268V3.34521C8.33268 2.65355 7.77435 2.09521 7.08268 2.09521C6.39102 2.09521 5.83268 2.65355 5.83268 3.34521C5.83268 4.03688 6.39102 4.59521 7.08268 4.59521Z" stroke="#66757E" stroke-width="1.2" stroke-linecap="round" stroke-linejoin="round"/>
</svg>
