<svg width="20" height="23" viewBox="0 0 20 23" fill="none" xmlns="http://www.w3.org/2000/svg">
<path d="M17.0045 4.33484C15.1339 2.45984 12.6429 1.42859 9.99554 1.42859C4.53125 1.42859 0.0848214 5.87502 0.0848214 11.3393C0.0848214 13.0848 0.540179 14.7902 1.40625 16.2947L0 21.4286L5.25446 20.0491C6.70089 20.8393 8.33036 21.2545 9.99107 21.2545H9.99554C15.4554 21.2545 20 16.8081 20 11.3438C20 8.69645 18.875 6.20984 17.0045 4.33484ZM9.99554 19.5848C8.51339 19.5848 7.0625 19.1875 5.79911 18.4375L5.5 18.2589L2.38393 19.0759L3.21429 16.0357L3.01786 15.7232C2.19196 14.4107 1.75893 12.8973 1.75893 11.3393C1.75893 6.79912 5.45536 3.1027 10 3.1027C12.2009 3.1027 14.2679 3.95984 15.8214 5.51787C17.375 7.07591 18.3304 9.14288 18.3259 11.3438C18.3259 15.8884 14.5357 19.5848 9.99554 19.5848ZM14.5134 13.4152C14.2679 13.2902 13.0491 12.692 12.8214 12.6116C12.5938 12.5268 12.4286 12.4866 12.2634 12.7366C12.0982 12.9866 11.625 13.5402 11.4777 13.7098C11.3348 13.875 11.1875 13.8973 10.942 13.7723C9.48661 13.0447 8.53125 12.4732 7.57143 10.8259C7.31696 10.3884 7.82589 10.4197 8.29911 9.47323C8.37946 9.30805 8.33929 9.1652 8.27679 9.0402C8.21429 8.9152 7.71875 7.69645 7.51339 7.20091C7.3125 6.71877 7.10714 6.78573 6.95536 6.7768C6.8125 6.76787 6.64732 6.76788 6.48214 6.76788C6.31696 6.76788 6.04911 6.83037 5.82143 7.07591C5.59375 7.32591 4.95536 7.92412 4.95536 9.14287C4.95536 10.3616 5.84375 11.5402 5.96429 11.7054C6.08929 11.8706 7.70982 14.3706 10.1964 15.4464C11.7679 16.125 12.3839 16.1831 13.1696 16.067C13.6473 15.9956 14.6339 15.4688 14.8393 14.8884C15.0446 14.3081 15.0446 13.8125 14.9821 13.7098C14.9241 13.5982 14.7589 13.5357 14.5134 13.4152Z" fill="#66757E"/>
</svg>
